<?xml version="1.0" encoding="UTF-8"?>
<svg xmlns="http://www.w3.org/2000/svg" xmlns:xlink="http://www.w3.org/1999/xlink" width="339.487pt" height="214.182pt" viewBox="0 0 339.487 214.182">
<defs>
<g>
<g id="glyph-0-0">
<path d="M 1.703125 -2.75 L 2.421875 -2.75 C 2.546875 -2.75 2.640625 -2.75 2.640625 -2.90625 C 2.640625 -3 2.546875 -3 2.4375 -3 L 1.765625 -3 L 2.03125 -4.03125 C 2.03125 -4.0625 2.046875 -4.09375 2.046875 -4.125 C 2.046875 -4.25 1.953125 -4.34375 1.8125 -4.34375 C 1.640625 -4.34375 1.53125 -4.234375 1.484375 -4.046875 C 1.4375 -3.875 1.53125 -4.203125 1.21875 -3 L 0.515625 -3 C 0.375 -3 0.296875 -3 0.296875 -2.84375 C 0.296875 -2.75 0.375 -2.75 0.5 -2.75 L 1.15625 -2.75 L 0.75 -1.109375 C 0.703125 -0.9375 0.640625 -0.6875 0.640625 -0.59375 C 0.640625 -0.1875 1 0.0625 1.390625 0.0625 C 2.15625 0.0625 2.59375 -0.90625 2.59375 -1 C 2.59375 -1.078125 2.515625 -1.078125 2.484375 -1.078125 C 2.40625 -1.078125 2.40625 -1.078125 2.34375 -0.953125 C 2.15625 -0.515625 1.796875 -0.125 1.40625 -0.125 C 1.265625 -0.125 1.171875 -0.21875 1.171875 -0.46875 C 1.171875 -0.53125 1.203125 -0.6875 1.203125 -0.75 Z M 1.703125 -2.75 "/>
</g>
<g id="glyph-0-1">
<path d="M 1.578125 -0.390625 C 1.578125 -0.640625 1.375 -0.796875 1.1875 -0.796875 C 0.953125 -0.796875 0.78125 -0.609375 0.78125 -0.40625 C 0.78125 -0.15625 0.984375 0 1.171875 0 C 1.40625 0 1.578125 -0.1875 1.578125 -0.390625 Z M 1.578125 -0.390625 "/>
</g>
<g id="glyph-0-2">
<path d="M 0.375 1.125 C 0.34375 1.21875 0.34375 1.265625 0.34375 1.265625 C 0.34375 1.421875 0.46875 1.484375 0.578125 1.484375 C 0.828125 1.484375 0.890625 1.265625 0.921875 1.140625 C 0.9375 1.109375 1.078125 0.546875 1.234375 -0.125 C 1.453125 0.015625 1.734375 0.0625 1.984375 0.0625 C 2.578125 0.0625 2.96875 -0.421875 2.984375 -0.4375 C 3.109375 0.046875 3.59375 0.0625 3.703125 0.0625 C 3.953125 0.0625 4.125 -0.078125 4.25 -0.296875 C 4.40625 -0.5625 4.484375 -0.96875 4.484375 -1 C 4.484375 -1.078125 4.40625 -1.078125 4.375 -1.078125 C 4.28125 -1.078125 4.28125 -1.0625 4.234375 -0.875 C 4.140625 -0.53125 4.015625 -0.125 3.71875 -0.125 C 3.546875 -0.125 3.484375 -0.28125 3.484375 -0.46875 C 3.484375 -0.578125 3.546875 -0.828125 3.59375 -1.015625 C 3.640625 -1.203125 3.71875 -1.484375 3.75 -1.640625 L 3.90625 -2.265625 C 3.953125 -2.4375 4.03125 -2.734375 4.03125 -2.78125 C 4.03125 -2.90625 3.921875 -3 3.796875 -3 C 3.71875 -3 3.59375 -2.96875 3.515625 -2.828125 C 3.484375 -2.78125 3.4375 -2.5625 3.40625 -2.421875 L 3.25 -1.84375 L 3.03125 -0.984375 C 2.984375 -0.8125 2.984375 -0.796875 2.921875 -0.703125 C 2.71875 -0.390625 2.40625 -0.125 2.015625 -0.125 C 1.4375 -0.125 1.4375 -0.625 1.4375 -0.75 C 1.4375 -0.921875 1.453125 -1.015625 1.5625 -1.390625 C 1.625 -1.703125 1.640625 -1.75 1.703125 -2.015625 L 1.8125 -2.40625 C 1.84375 -2.546875 1.90625 -2.8125 1.90625 -2.84375 C 1.90625 -2.96875 1.8125 -3.0625 1.671875 -3.0625 C 1.421875 -3.0625 1.359375 -2.828125 1.34375 -2.734375 Z M 0.375 1.125 "/>
</g>
<g id="glyph-0-3">
<path d="M 1.75 -2.859375 C 1.75 -2.890625 1.765625 -2.9375 1.765625 -2.96875 C 1.765625 -2.96875 1.765625 -3.0625 1.640625 -3.0625 C 1.640625 -3.0625 1.25 -3.03125 1.203125 -3.03125 C 1.0625 -3.015625 0.9375 -3.015625 0.8125 -3 C 0.703125 -2.984375 0.609375 -2.984375 0.609375 -2.84375 C 0.609375 -2.734375 0.703125 -2.734375 0.796875 -2.734375 C 1.125 -2.734375 1.125 -2.703125 1.125 -2.640625 C 1.125 -2.59375 1.09375 -2.453125 1.0625 -2.359375 L 0.71875 -0.953125 C 0.546875 -0.265625 0.5 -0.125 0.5 -0.09375 C 0.5 0 0.609375 0 0.640625 0 L 0.75 0 C 1.375 -0.09375 2.25 -0.421875 3 -1.078125 C 3.9375 -1.921875 4.078125 -2.828125 4.078125 -2.84375 C 4.078125 -2.96875 3.984375 -3.0625 3.84375 -3.0625 C 3.609375 -3.0625 3.546875 -2.875 3.484375 -2.671875 C 3.21875 -1.6875 2.28125 -0.625 1.09375 -0.28125 Z M 1.75 -2.859375 "/>
</g>
<g id="glyph-0-4">
<path d="M 0.375 1.125 C 0.34375 1.21875 0.34375 1.265625 0.34375 1.265625 C 0.34375 1.421875 0.46875 1.484375 0.578125 1.484375 C 0.828125 1.484375 0.890625 1.28125 0.9375 1.0625 C 1.03125 0.703125 1.234375 -0.09375 1.296875 -0.359375 C 1.359375 -0.25 1.578125 0.0625 2.0625 0.0625 C 2.953125 0.0625 3.90625 -0.875 3.90625 -1.890625 C 3.90625 -2.625 3.40625 -3.0625 2.796875 -3.0625 C 2.109375 -3.0625 1.265625 -2.46875 1.03125 -1.484375 Z M 2.0625 -0.125 C 1.546875 -0.125 1.390625 -0.640625 1.390625 -0.734375 C 1.390625 -0.75 1.4375 -0.890625 1.453125 -0.984375 C 1.65625 -1.828125 1.703125 -2 1.90625 -2.296875 C 2.15625 -2.671875 2.5 -2.875 2.78125 -2.875 C 3.0625 -2.875 3.34375 -2.671875 3.34375 -2.171875 C 3.34375 -1.84375 3.15625 -1.078125 2.9375 -0.734375 C 2.625 -0.234375 2.28125 -0.125 2.0625 -0.125 Z M 2.0625 -0.125 "/>
</g>
<g id="glyph-0-5">
<path d="M 7.203125 -3.921875 L 7.328125 -4.109375 C 7.46875 -4.296875 7.640625 -4.46875 7.984375 -4.5 C 8.0625 -4.5 8.140625 -4.515625 8.140625 -4.65625 C 8.140625 -4.703125 8.09375 -4.75 8.046875 -4.75 C 7.890625 -4.75 7.6875 -4.71875 7.515625 -4.71875 C 7.265625 -4.71875 6.96875 -4.75 6.75 -4.75 C 6.703125 -4.75 6.59375 -4.75 6.59375 -4.59375 C 6.59375 -4.5 6.703125 -4.5 6.71875 -4.5 C 6.875 -4.484375 7.109375 -4.453125 7.109375 -4.25 C 7.109375 -4.171875 7.03125 -4.046875 7 -4 L 5.046875 -0.78125 L 4.65625 -4.296875 C 4.65625 -4.484375 5.0625 -4.5 5.140625 -4.5 C 5.234375 -4.5 5.328125 -4.5 5.328125 -4.65625 C 5.328125 -4.65625 5.328125 -4.75 5.21875 -4.75 C 5.078125 -4.75 4.921875 -4.734375 4.78125 -4.734375 C 4.640625 -4.71875 4.46875 -4.71875 4.328125 -4.71875 C 4.171875 -4.71875 3.75 -4.75 3.59375 -4.75 C 3.5625 -4.75 3.453125 -4.75 3.453125 -4.59375 C 3.453125 -4.5 3.546875 -4.5 3.640625 -4.5 C 3.9375 -4.5 3.96875 -4.453125 3.984375 -4.375 C 4 -4.34375 4.015625 -4.140625 4.046875 -3.921875 L 2.125 -0.78125 L 1.765625 -4.1875 C 1.765625 -4.21875 1.75 -4.296875 1.75 -4.296875 C 1.75 -4.5 2.171875 -4.5 2.234375 -4.5 C 2.328125 -4.5 2.421875 -4.5 2.421875 -4.65625 C 2.421875 -4.671875 2.40625 -4.75 2.3125 -4.75 C 2.109375 -4.75 1.609375 -4.71875 1.40625 -4.71875 C 1.1875 -4.71875 0.890625 -4.75 0.6875 -4.75 C 0.609375 -4.75 0.546875 -4.71875 0.546875 -4.609375 C 0.546875 -4.5 0.625 -4.5 0.734375 -4.5 C 1.0625 -4.5 1.0625 -4.453125 1.078125 -4.28125 L 1.546875 -0.046875 C 1.5625 0.09375 1.578125 0.140625 1.703125 0.140625 C 1.8125 0.140625 1.859375 0.078125 1.90625 0 L 4.078125 -3.578125 L 4.453125 -0.046875 C 4.46875 0.109375 4.5 0.140625 4.609375 0.140625 C 4.734375 0.140625 4.765625 0.078125 4.8125 0 Z M 7.203125 -3.921875 "/>
</g>
<g id="glyph-0-6">
<path d="M 1.46875 -0.109375 C 1.46875 0.265625 1.390625 0.71875 0.921875 1.15625 C 0.890625 1.1875 0.875 1.203125 0.875 1.25 C 0.875 1.296875 0.9375 1.34375 0.96875 1.34375 C 1.078125 1.34375 1.65625 0.78125 1.65625 -0.046875 C 1.65625 -0.46875 1.5 -0.796875 1.171875 -0.796875 C 0.953125 -0.796875 0.78125 -0.625 0.78125 -0.40625 C 0.78125 -0.1875 0.9375 0 1.1875 0 C 1.34375 0 1.453125 -0.109375 1.46875 -0.109375 Z M 1.46875 -0.109375 "/>
</g>
<g id="glyph-0-7">
<path d="M 3.71875 -2.53125 C 3.71875 -3.0625 3.390625 -3.078125 3.359375 -3.078125 C 3.1875 -3.078125 2.984375 -2.890625 2.984375 -2.703125 C 2.984375 -2.59375 3.0625 -2.53125 3.109375 -2.484375 C 3.21875 -2.390625 3.359375 -2.21875 3.359375 -1.9375 C 3.359375 -1.625 2.90625 -0.125 2.078125 -0.125 C 1.515625 -0.125 1.515625 -0.625 1.515625 -0.75 C 1.515625 -1.0625 1.640625 -1.453125 1.890625 -2.09375 C 1.953125 -2.25 2 -2.34375 2 -2.46875 C 2 -2.828125 1.6875 -3.0625 1.328125 -3.0625 C 0.640625 -3.0625 0.328125 -2.109375 0.328125 -2 C 0.328125 -1.90625 0.421875 -1.90625 0.4375 -1.90625 C 0.546875 -1.90625 0.546875 -1.953125 0.5625 -2.015625 C 0.734375 -2.59375 1.03125 -2.875 1.3125 -2.875 C 1.4375 -2.875 1.484375 -2.796875 1.484375 -2.625 C 1.484375 -2.46875 1.4375 -2.328125 1.359375 -2.15625 C 1.0625 -1.390625 0.984375 -1.09375 0.984375 -0.84375 C 0.984375 -0.15625 1.53125 0.0625 2.0625 0.0625 C 3.21875 0.0625 3.71875 -1.953125 3.71875 -2.53125 Z M 3.71875 -2.53125 "/>
</g>
<g id="glyph-0-8">
<path d="M 3.96875 -4.609375 C 3.984375 -4.625 4 -4.71875 4 -4.734375 C 4 -4.765625 3.96875 -4.828125 3.890625 -4.828125 C 3.75 -4.828125 3.171875 -4.765625 3 -4.75 C 2.9375 -4.75 2.84375 -4.734375 2.84375 -4.59375 C 2.84375 -4.5 2.9375 -4.5 3.03125 -4.5 C 3.359375 -4.5 3.359375 -4.453125 3.359375 -4.390625 C 3.359375 -4.34375 3.34375 -4.296875 3.328125 -4.234375 L 2.9375 -2.65625 C 2.78125 -2.890625 2.546875 -3.0625 2.21875 -3.0625 C 1.328125 -3.0625 0.421875 -2.09375 0.421875 -1.078125 C 0.421875 -0.40625 0.875 0.0625 1.46875 0.0625 C 1.84375 0.0625 2.1875 -0.140625 2.46875 -0.421875 C 2.59375 0 3 0.0625 3.171875 0.0625 C 3.421875 0.0625 3.609375 -0.078125 3.734375 -0.296875 C 3.875 -0.5625 3.96875 -0.96875 3.96875 -1 C 3.96875 -1.078125 3.875 -1.078125 3.859375 -1.078125 C 3.765625 -1.078125 3.75 -1.0625 3.703125 -0.875 C 3.625 -0.53125 3.484375 -0.125 3.203125 -0.125 C 3.015625 -0.125 2.96875 -0.28125 2.96875 -0.46875 C 2.96875 -0.59375 2.984375 -0.65625 3 -0.75 Z M 2.484375 -0.875 C 2.4375 -0.671875 2.28125 -0.53125 2.140625 -0.40625 C 2.078125 -0.34375 1.796875 -0.125 1.5 -0.125 C 1.234375 -0.125 0.984375 -0.3125 0.984375 -0.796875 C 0.984375 -1.171875 1.1875 -1.9375 1.34375 -2.21875 C 1.671875 -2.765625 2.015625 -2.875 2.21875 -2.875 C 2.703125 -2.875 2.84375 -2.34375 2.84375 -2.265625 C 2.84375 -2.234375 2.828125 -2.1875 2.8125 -2.171875 Z M 2.484375 -0.875 "/>
</g>
<g id="glyph-0-9">
<path d="M 1.734375 -0.734375 C 1.65625 -0.5 1.4375 -0.125 1.078125 -0.125 C 1.0625 -0.125 0.84375 -0.125 0.703125 -0.21875 C 0.984375 -0.3125 1.015625 -0.5625 1.015625 -0.609375 C 1.015625 -0.765625 0.890625 -0.859375 0.734375 -0.859375 C 0.53125 -0.859375 0.328125 -0.703125 0.328125 -0.4375 C 0.328125 -0.09375 0.71875 0.0625 1.0625 0.0625 C 1.390625 0.0625 1.671875 -0.125 1.84375 -0.421875 C 2.015625 -0.0625 2.390625 0.0625 2.671875 0.0625 C 3.46875 0.0625 3.890625 -0.796875 3.890625 -1 C 3.890625 -1.078125 3.796875 -1.078125 3.78125 -1.078125 C 3.6875 -1.078125 3.671875 -1.046875 3.65625 -0.96875 C 3.5 -0.484375 3.09375 -0.125 2.703125 -0.125 C 2.421875 -0.125 2.28125 -0.3125 2.28125 -0.578125 C 2.28125 -0.765625 2.4375 -1.390625 2.640625 -2.15625 C 2.78125 -2.703125 3.09375 -2.875 3.3125 -2.875 C 3.328125 -2.875 3.546875 -2.875 3.6875 -2.78125 C 3.46875 -2.71875 3.390625 -2.515625 3.390625 -2.390625 C 3.390625 -2.234375 3.5 -2.140625 3.671875 -2.140625 C 3.828125 -2.140625 4.046875 -2.265625 4.046875 -2.5625 C 4.046875 -2.953125 3.609375 -3.0625 3.328125 -3.0625 C 2.984375 -3.0625 2.703125 -2.84375 2.546875 -2.578125 C 2.421875 -2.859375 2.109375 -3.0625 1.71875 -3.0625 C 0.9375 -3.0625 0.5 -2.21875 0.5 -2 C 0.5 -1.90625 0.59375 -1.90625 0.609375 -1.90625 C 0.703125 -1.90625 0.703125 -1.9375 0.75 -2.03125 C 0.921875 -2.578125 1.359375 -2.875 1.703125 -2.875 C 1.921875 -2.875 2.109375 -2.75 2.109375 -2.40625 C 2.109375 -2.28125 2.03125 -1.921875 1.96875 -1.6875 Z M 1.734375 -0.734375 "/>
</g>
<g id="glyph-1-0">
<path d="M 5.34375 -2.34375 C 5.4375 -2.34375 5.609375 -2.34375 5.609375 -2.515625 C 5.609375 -2.671875 5.4375 -2.671875 5.34375 -2.671875 L 0.75 -2.671875 C 0.65625 -2.671875 0.484375 -2.671875 0.484375 -2.515625 C 0.484375 -2.34375 0.640625 -2.34375 0.75 -2.34375 Z M 5.34375 -0.8125 C 5.4375 -0.8125 5.609375 -0.8125 5.609375 -0.96875 C 5.609375 -1.140625 5.4375 -1.140625 5.34375 -1.140625 L 0.75 -1.140625 C 0.640625 -1.140625 0.484375 -1.140625 0.484375 -0.96875 C 0.484375 -0.8125 0.65625 -0.8125 0.75 -0.8125 Z M 5.34375 -0.8125 "/>
</g>
<g id="glyph-1-1">
<path d="M 3.59375 -2.21875 C 3.59375 -2.984375 3.5 -3.53125 3.171875 -4.015625 C 2.96875 -4.34375 2.53125 -4.609375 1.96875 -4.609375 C 0.359375 -4.609375 0.359375 -2.71875 0.359375 -2.21875 C 0.359375 -1.71875 0.359375 0.140625 1.96875 0.140625 C 3.59375 0.140625 3.59375 -1.71875 3.59375 -2.21875 Z M 1.96875 -0.0625 C 1.65625 -0.0625 1.234375 -0.25 1.09375 -0.8125 C 1 -1.21875 1 -1.796875 1 -2.3125 C 1 -2.8125 1 -3.34375 1.09375 -3.734375 C 1.25 -4.28125 1.6875 -4.421875 1.96875 -4.421875 C 2.34375 -4.421875 2.71875 -4.1875 2.84375 -3.796875 C 2.953125 -3.40625 2.953125 -2.90625 2.953125 -2.3125 C 2.953125 -1.796875 2.953125 -1.28125 2.859375 -0.84375 C 2.71875 -0.203125 2.25 -0.0625 1.96875 -0.0625 Z M 1.96875 -0.0625 "/>
</g>
<g id="glyph-1-2">
<path d="M 1.078125 -3.875 C 1.4375 -3.796875 1.640625 -3.796875 1.75 -3.796875 C 2.671875 -3.796875 3.21875 -4.421875 3.21875 -4.515625 C 3.21875 -4.59375 3.15625 -4.609375 3.125 -4.609375 C 3.109375 -4.609375 3.09375 -4.609375 3.078125 -4.59375 C 2.90625 -4.53125 2.53125 -4.390625 2.015625 -4.390625 C 1.828125 -4.390625 1.453125 -4.40625 1.015625 -4.578125 C 0.9375 -4.609375 0.921875 -4.609375 0.921875 -4.609375 C 0.828125 -4.609375 0.828125 -4.546875 0.828125 -4.421875 L 0.828125 -2.375 C 0.828125 -2.265625 0.828125 -2.171875 0.9375 -2.171875 C 1 -2.171875 1.015625 -2.1875 1.078125 -2.28125 C 1.375 -2.65625 1.796875 -2.71875 2.046875 -2.71875 C 2.46875 -2.71875 2.65625 -2.375 2.6875 -2.328125 C 2.8125 -2.09375 2.84375 -1.828125 2.84375 -1.421875 C 2.84375 -1.21875 2.84375 -0.8125 2.640625 -0.5 C 2.46875 -0.25 2.171875 -0.078125 1.828125 -0.078125 C 1.375 -0.078125 0.90625 -0.328125 0.734375 -0.796875 C 1 -0.765625 1.140625 -0.953125 1.140625 -1.140625 C 1.140625 -1.4375 0.875 -1.484375 0.78125 -1.484375 C 0.765625 -1.484375 0.4375 -1.484375 0.4375 -1.109375 C 0.4375 -0.484375 1.015625 0.140625 1.84375 0.140625 C 2.734375 0.140625 3.515625 -0.515625 3.515625 -1.390625 C 3.515625 -2.1875 2.90625 -2.90625 2.046875 -2.90625 C 1.75 -2.90625 1.390625 -2.828125 1.078125 -2.5625 Z M 1.078125 -3.875 "/>
</g>
<g id="glyph-1-3">
<path d="M 2.328125 -4.421875 C 2.328125 -4.609375 2.3125 -4.609375 2.125 -4.609375 C 1.671875 -4.171875 1.046875 -4.171875 0.765625 -4.171875 L 0.765625 -3.921875 C 0.921875 -3.921875 1.390625 -3.921875 1.765625 -4.109375 L 1.765625 -0.5625 C 1.765625 -0.34375 1.765625 -0.25 1.078125 -0.25 L 0.8125 -0.25 L 0.8125 0 C 0.9375 0 1.78125 -0.03125 2.046875 -0.03125 C 2.265625 -0.03125 3.140625 0 3.28125 0 L 3.28125 -0.25 L 3.03125 -0.25 C 2.328125 -0.25 2.328125 -0.34375 2.328125 -0.5625 Z M 2.328125 -4.421875 "/>
</g>
<g id="glyph-1-4">
<path d="M 2.640625 -2.921875 C 2.640625 -3.03125 2.640625 -3.09375 2.53125 -3.09375 C 2.5 -3.09375 2.484375 -3.09375 2.40625 -3.015625 C 2.390625 -3.015625 2.3125 -2.953125 2.28125 -2.90625 C 2.0625 -3.0625 1.796875 -3.09375 1.546875 -3.09375 C 0.546875 -3.09375 0.3125 -2.578125 0.3125 -2.234375 C 0.3125 -2.015625 0.40625 -1.828125 0.578125 -1.6875 C 0.84375 -1.453125 1.109375 -1.40625 1.53125 -1.34375 C 1.890625 -1.28125 2.453125 -1.1875 2.453125 -0.71875 C 2.453125 -0.4375 2.265625 -0.125 1.59375 -0.125 C 0.921875 -0.125 0.6875 -0.5625 0.5625 -1.03125 C 0.53125 -1.125 0.53125 -1.15625 0.4375 -1.15625 C 0.3125 -1.15625 0.3125 -1.109375 0.3125 -0.96875 L 0.3125 -0.109375 C 0.3125 0 0.3125 0.0625 0.40625 0.0625 C 0.46875 0.0625 0.609375 -0.078125 0.75 -0.234375 C 1.046875 0.0625 1.421875 0.0625 1.59375 0.0625 C 2.5 0.0625 2.828125 -0.421875 2.828125 -0.90625 C 2.828125 -1.171875 2.71875 -1.390625 2.53125 -1.546875 C 2.265625 -1.796875 1.953125 -1.84375 1.703125 -1.890625 C 1.140625 -1.984375 0.703125 -2.078125 0.703125 -2.4375 C 0.703125 -2.65625 0.890625 -2.9375 1.546875 -2.9375 C 2.34375 -2.9375 2.390625 -2.375 2.40625 -2.171875 C 2.40625 -2.09375 2.484375 -2.09375 2.515625 -2.09375 C 2.640625 -2.09375 2.640625 -2.140625 2.640625 -2.28125 Z M 2.640625 -2.921875 "/>
</g>
<g id="glyph-1-5">
<path d="M 1.9375 1.09375 C 1.484375 1.09375 1.40625 1.09375 1.40625 0.796875 L 1.40625 -0.328125 C 1.453125 -0.296875 1.765625 0.0625 2.359375 0.0625 C 3.28125 0.0625 4.0625 -0.625 4.0625 -1.5 C 4.0625 -2.359375 3.34375 -3.0625 2.46875 -3.0625 C 2.078125 -3.0625 1.671875 -2.921875 1.390625 -2.640625 L 1.390625 -3.0625 L 0.34375 -2.984375 L 0.34375 -2.734375 C 0.828125 -2.734375 0.859375 -2.703125 0.859375 -2.40625 L 0.859375 0.796875 C 0.859375 1.09375 0.796875 1.09375 0.34375 1.09375 L 0.34375 1.34375 C 0.359375 1.34375 0.84375 1.328125 1.140625 1.328125 C 1.390625 1.328125 1.875 1.34375 1.9375 1.34375 Z M 1.40625 -2.3125 C 1.625 -2.65625 2.015625 -2.84375 2.390625 -2.84375 C 2.96875 -2.84375 3.421875 -2.234375 3.421875 -1.5 C 3.421875 -0.703125 2.90625 -0.125 2.3125 -0.125 C 1.703125 -0.125 1.4375 -0.65625 1.40625 -0.703125 Z M 1.40625 -2.3125 "/>
</g>
<g id="glyph-1-6">
<path d="M 3.09375 -1.859375 C 3.09375 -2.234375 3.09375 -2.5 2.78125 -2.75 C 2.5 -2.984375 2.15625 -3.09375 1.75 -3.09375 C 1.09375 -3.09375 0.625 -2.84375 0.625 -2.421875 C 0.625 -2.203125 0.78125 -2.09375 0.953125 -2.09375 C 1.140625 -2.09375 1.28125 -2.21875 1.28125 -2.40625 C 1.28125 -2.53125 1.234375 -2.671875 1.046875 -2.734375 C 1.296875 -2.90625 1.703125 -2.90625 1.734375 -2.90625 C 2.125 -2.90625 2.546875 -2.65625 2.546875 -2.0625 L 2.546875 -1.84375 C 2.171875 -1.828125 1.703125 -1.8125 1.203125 -1.625 C 0.578125 -1.390625 0.375 -1.015625 0.375 -0.703125 C 0.375 -0.109375 1.109375 0.0625 1.59375 0.0625 C 2.15625 0.0625 2.484375 -0.25 2.625 -0.515625 C 2.65625 -0.234375 2.84375 0.03125 3.15625 0.03125 C 3.171875 0.03125 3.859375 0.03125 3.859375 -0.625 L 3.859375 -1.015625 L 3.609375 -1.015625 L 3.609375 -0.625 C 3.609375 -0.5625 3.609375 -0.234375 3.359375 -0.234375 C 3.09375 -0.234375 3.09375 -0.5625 3.09375 -0.640625 Z M 2.546875 -0.984375 C 2.546875 -0.3125 1.96875 -0.125 1.65625 -0.125 C 1.296875 -0.125 0.96875 -0.359375 0.96875 -0.703125 C 0.96875 -1.078125 1.296875 -1.625 2.546875 -1.671875 Z M 2.546875 -0.984375 "/>
</g>
<g id="glyph-1-7">
<path d="M 2.703125 -2.78125 C 2.578125 -2.71875 2.515625 -2.609375 2.515625 -2.46875 C 2.515625 -2.28125 2.640625 -2.140625 2.84375 -2.140625 C 3.03125 -2.140625 3.171875 -2.265625 3.171875 -2.484375 C 3.171875 -3.09375 2.203125 -3.09375 2.015625 -3.09375 C 0.96875 -3.09375 0.3125 -2.296875 0.3125 -1.5 C 0.3125 -0.625 1.0625 0.0625 1.96875 0.0625 C 3.015625 0.0625 3.25 -0.75 3.25 -0.828125 C 3.25 -0.921875 3.15625 -0.921875 3.140625 -0.921875 C 3.046875 -0.921875 3.03125 -0.890625 3 -0.796875 C 2.84375 -0.375 2.484375 -0.15625 2.0625 -0.15625 C 1.578125 -0.15625 0.953125 -0.5 0.953125 -1.515625 C 0.953125 -2.390625 1.390625 -2.875 2.03125 -2.875 C 2.125 -2.875 2.453125 -2.875 2.703125 -2.78125 Z M 2.703125 -2.78125 "/>
</g>
<g id="glyph-1-8">
<path d="M 3.0625 -1.578125 C 3.203125 -1.578125 3.25 -1.578125 3.25 -1.734375 C 3.25 -2.34375 2.90625 -3.09375 1.875 -3.09375 C 0.96875 -3.09375 0.265625 -2.375 0.265625 -1.515625 C 0.265625 -0.640625 1.046875 0.0625 1.96875 0.0625 C 2.90625 0.0625 3.25 -0.6875 3.25 -0.828125 C 3.25 -0.859375 3.234375 -0.9375 3.140625 -0.9375 C 3.046875 -0.9375 3.03125 -0.890625 3.015625 -0.828125 C 2.796875 -0.25 2.265625 -0.15625 2.015625 -0.15625 C 1.6875 -0.15625 1.375 -0.296875 1.171875 -0.5625 C 0.90625 -0.890625 0.90625 -1.3125 0.90625 -1.578125 Z M 0.90625 -1.765625 C 0.984375 -2.75 1.609375 -2.90625 1.875 -2.90625 C 2.734375 -2.90625 2.765625 -1.9375 2.765625 -1.765625 Z M 0.90625 -1.765625 "/>
</g>
<g id="glyph-1-9">
<path d="M 1.390625 -2.75 L 2.484375 -2.75 L 2.484375 -3 L 1.390625 -3 L 1.390625 -4.28125 L 1.15625 -4.28125 C 1.15625 -3.65625 0.875 -2.96875 0.203125 -2.9375 L 0.203125 -2.75 L 0.84375 -2.75 L 0.84375 -0.875 C 0.84375 -0.09375 1.4375 0.0625 1.828125 0.0625 C 2.28125 0.0625 2.609375 -0.328125 2.609375 -0.875 L 2.609375 -1.265625 L 2.375 -1.265625 L 2.375 -0.890625 C 2.375 -0.40625 2.15625 -0.15625 1.875 -0.15625 C 1.390625 -0.15625 1.390625 -0.734375 1.390625 -0.859375 Z M 1.390625 -2.75 "/>
</g>
<g id="glyph-1-10">
<path d="M 1.46875 -4.296875 C 1.46875 -4.484375 1.296875 -4.6875 1.0625 -4.6875 C 0.859375 -4.6875 0.671875 -4.515625 0.671875 -4.296875 C 0.671875 -4.046875 0.875 -3.890625 1.0625 -3.890625 C 1.28125 -3.890625 1.46875 -4.0625 1.46875 -4.296875 Z M 0.40625 -2.984375 L 0.40625 -2.734375 C 0.84375 -2.734375 0.90625 -2.703125 0.90625 -2.359375 L 0.90625 -0.546875 C 0.90625 -0.25 0.84375 -0.25 0.390625 -0.25 L 0.390625 0 C 0.40625 0 0.890625 -0.03125 1.171875 -0.03125 C 1.40625 -0.03125 1.65625 -0.015625 1.90625 0 L 1.90625 -0.25 C 1.5 -0.25 1.4375 -0.25 1.4375 -0.546875 L 1.4375 -3.0625 Z M 0.40625 -2.984375 "/>
</g>
<g id="glyph-1-11">
<path d="M 5.71875 -2.109375 C 5.71875 -2.71875 5.421875 -3.0625 4.671875 -3.0625 C 4.125 -3.0625 3.75 -2.765625 3.5625 -2.421875 C 3.421875 -2.90625 3.046875 -3.0625 2.53125 -3.0625 C 1.96875 -3.0625 1.59375 -2.75 1.40625 -2.390625 L 1.390625 -2.390625 L 1.390625 -3.0625 L 0.375 -2.984375 L 0.375 -2.734375 C 0.84375 -2.734375 0.890625 -2.6875 0.890625 -2.34375 L 0.890625 -0.546875 C 0.890625 -0.25 0.828125 -0.25 0.375 -0.25 L 0.375 0 C 0.390625 0 0.875 -0.03125 1.171875 -0.03125 C 1.421875 -0.03125 1.90625 0 1.96875 0 L 1.96875 -0.25 C 1.515625 -0.25 1.453125 -0.25 1.453125 -0.546875 L 1.453125 -1.796875 C 1.453125 -2.53125 2.015625 -2.875 2.484375 -2.875 C 2.96875 -2.875 3.03125 -2.484375 3.03125 -2.140625 L 3.03125 -0.546875 C 3.03125 -0.25 2.96875 -0.25 2.515625 -0.25 L 2.515625 0 C 2.53125 0 3.015625 -0.03125 3.296875 -0.03125 C 3.5625 -0.03125 4.046875 0 4.109375 0 L 4.109375 -0.25 C 3.65625 -0.25 3.578125 -0.25 3.578125 -0.546875 L 3.578125 -1.796875 C 3.578125 -2.53125 4.15625 -2.875 4.609375 -2.875 C 5.109375 -2.875 5.171875 -2.484375 5.171875 -2.140625 L 5.171875 -0.546875 C 5.171875 -0.25 5.09375 -0.25 4.640625 -0.25 L 4.640625 0 C 4.65625 0 5.140625 -0.03125 5.4375 -0.03125 C 5.6875 -0.03125 6.171875 0 6.234375 0 L 6.234375 -0.25 C 5.78125 -0.25 5.71875 -0.25 5.71875 -0.546875 Z M 5.71875 -2.109375 "/>
</g>
<g id="glyph-1-12">
<path d="M 1.515625 -2.59375 C 1.515625 -2.84375 1.328125 -3 1.125 -3 C 0.890625 -3 0.71875 -2.796875 0.71875 -2.59375 C 0.71875 -2.359375 0.921875 -2.203125 1.125 -2.203125 C 1.359375 -2.203125 1.515625 -2.390625 1.515625 -2.59375 Z M 1.515625 -0.390625 C 1.515625 -0.640625 1.328125 -0.796875 1.125 -0.796875 C 0.890625 -0.796875 0.71875 -0.609375 0.71875 -0.40625 C 0.71875 -0.15625 0.921875 0 1.125 0 C 1.359375 0 1.515625 -0.1875 1.515625 -0.390625 Z M 1.515625 -0.390625 "/>
</g>
<g id="glyph-1-13">
<path d="M 2.46875 -4.75 L 2.46875 -4.5 C 2.9375 -4.5 3 -4.453125 3 -4.109375 L 3 -2.671875 C 2.734375 -2.921875 2.40625 -3.0625 2.015625 -3.0625 C 1.09375 -3.0625 0.3125 -2.375 0.3125 -1.5 C 0.3125 -0.625 1.0625 0.0625 1.9375 0.0625 C 2.515625 0.0625 2.84375 -0.234375 2.96875 -0.359375 L 2.96875 0.0625 L 4.046875 0 L 4.046875 -0.25 C 3.578125 -0.25 3.515625 -0.296875 3.515625 -0.640625 L 3.515625 -4.828125 Z M 2.96875 -0.734375 C 2.78125 -0.40625 2.4375 -0.125 1.984375 -0.125 C 1.59375 -0.125 1.3125 -0.359375 1.171875 -0.5625 C 1.03125 -0.765625 0.953125 -1.046875 0.953125 -1.484375 C 0.953125 -1.640625 0.953125 -2.171875 1.234375 -2.5 C 1.515625 -2.8125 1.859375 -2.875 2.0625 -2.875 C 2.390625 -2.875 2.6875 -2.71875 2.890625 -2.46875 C 2.96875 -2.359375 2.96875 -2.34375 2.96875 -2.21875 Z M 2.96875 -0.734375 "/>
</g>
<g id="glyph-1-14">
<path d="M 1.4375 -4.828125 L 0.390625 -4.75 L 0.390625 -4.5 C 0.859375 -4.5 0.90625 -4.453125 0.90625 -4.109375 L 0.90625 -0.546875 C 0.90625 -0.25 0.84375 -0.25 0.390625 -0.25 L 0.390625 0 C 0.40625 0 0.890625 -0.03125 1.171875 -0.03125 C 1.4375 -0.03125 1.6875 -0.015625 1.953125 0 L 1.953125 -0.25 C 1.5 -0.25 1.4375 -0.25 1.4375 -0.546875 Z M 1.4375 -4.828125 "/>
</g>
<g id="glyph-1-15">
<path d="M 3.578125 -2.109375 C 3.578125 -2.71875 3.28125 -3.0625 2.53125 -3.0625 C 1.96875 -3.0625 1.59375 -2.75 1.40625 -2.390625 L 1.390625 -2.390625 L 1.390625 -3.0625 L 0.375 -2.984375 L 0.375 -2.734375 C 0.84375 -2.734375 0.890625 -2.6875 0.890625 -2.34375 L 0.890625 -0.546875 C 0.890625 -0.25 0.828125 -0.25 0.375 -0.25 L 0.375 0 C 0.390625 0 0.875 -0.03125 1.171875 -0.03125 C 1.421875 -0.03125 1.90625 0 1.96875 0 L 1.96875 -0.25 C 1.515625 -0.25 1.453125 -0.25 1.453125 -0.546875 L 1.453125 -1.796875 C 1.453125 -2.53125 2.015625 -2.875 2.484375 -2.875 C 2.96875 -2.875 3.03125 -2.484375 3.03125 -2.140625 L 3.03125 -0.546875 C 3.03125 -0.25 2.96875 -0.25 2.515625 -0.25 L 2.515625 0 C 2.53125 0 3.015625 -0.03125 3.296875 -0.03125 C 3.5625 -0.03125 4.046875 0 4.109375 0 L 4.109375 -0.25 C 3.65625 -0.25 3.578125 -0.25 3.578125 -0.546875 Z M 3.578125 -2.109375 "/>
</g>
<g id="glyph-1-16">
<path d="M 1.390625 -1.578125 C 1.390625 -2.171875 1.65625 -2.875 2.3125 -2.875 C 2.25 -2.828125 2.203125 -2.734375 2.203125 -2.625 C 2.203125 -2.390625 2.375 -2.296875 2.515625 -2.296875 C 2.671875 -2.296875 2.828125 -2.40625 2.828125 -2.625 C 2.828125 -2.859375 2.609375 -3.0625 2.28125 -3.0625 C 1.9375 -3.0625 1.546875 -2.84375 1.34375 -2.328125 L 1.328125 -2.328125 L 1.328125 -3.0625 L 0.34375 -2.984375 L 0.34375 -2.734375 C 0.8125 -2.734375 0.859375 -2.6875 0.859375 -2.34375 L 0.859375 -0.546875 C 0.859375 -0.25 0.796875 -0.25 0.34375 -0.25 L 0.34375 0 C 0.375 0 0.84375 -0.03125 1.140625 -0.03125 C 1.4375 -0.03125 1.734375 -0.015625 2.03125 0 L 2.03125 -0.25 L 1.890625 -0.25 C 1.390625 -0.25 1.390625 -0.328125 1.390625 -0.5625 Z M 1.390625 -1.578125 "/>
</g>
<g id="glyph-1-17">
<path d="M 3.671875 -1.484375 C 3.671875 -2.34375 2.9375 -3.09375 1.96875 -3.09375 C 1.015625 -3.09375 0.265625 -2.34375 0.265625 -1.484375 C 0.265625 -0.625 1.03125 0.0625 1.96875 0.0625 C 2.90625 0.0625 3.671875 -0.625 3.671875 -1.484375 Z M 1.96875 -0.15625 C 1.71875 -0.15625 1.34375 -0.234375 1.109375 -0.578125 C 0.921875 -0.859375 0.90625 -1.21875 0.90625 -1.546875 C 0.90625 -1.84375 0.90625 -2.25 1.15625 -2.546875 C 1.328125 -2.75 1.625 -2.90625 1.96875 -2.90625 C 2.390625 -2.90625 2.671875 -2.71875 2.828125 -2.5 C 3.03125 -2.21875 3.046875 -1.875 3.046875 -1.546875 C 3.046875 -1.203125 3.03125 -0.84375 2.828125 -0.5625 C 2.640625 -0.296875 2.3125 -0.15625 1.96875 -0.15625 Z M 1.96875 -0.15625 "/>
</g>
<g id="glyph-1-18">
<path d="M 2.46875 -5.21875 C 1.140625 -4.28125 0.796875 -2.8125 0.796875 -1.75 C 0.796875 -0.765625 1.09375 0.765625 2.46875 1.734375 C 2.53125 1.734375 2.609375 1.734375 2.609375 1.640625 C 2.609375 1.609375 2.59375 1.59375 2.53125 1.546875 C 1.609375 0.703125 1.265625 -0.46875 1.265625 -1.734375 C 1.265625 -3.609375 1.984375 -4.53125 2.5625 -5.046875 C 2.59375 -5.078125 2.609375 -5.09375 2.609375 -5.125 C 2.609375 -5.21875 2.53125 -5.21875 2.46875 -5.21875 Z M 2.46875 -5.21875 "/>
</g>
<g id="glyph-1-19">
<path d="M 0.625 -5.21875 C 0.578125 -5.21875 0.5 -5.21875 0.5 -5.125 C 0.5 -5.09375 0.515625 -5.078125 0.5625 -5.03125 C 1.15625 -4.484375 1.828125 -3.546875 1.828125 -1.75 C 1.828125 -0.296875 1.375 0.8125 0.625 1.484375 C 0.5 1.609375 0.5 1.609375 0.5 1.640625 C 0.5 1.6875 0.515625 1.734375 0.578125 1.734375 C 0.671875 1.734375 1.328125 1.265625 1.78125 0.40625 C 2.09375 -0.171875 2.296875 -0.921875 2.296875 -1.734375 C 2.296875 -2.71875 2 -4.234375 0.625 -5.21875 Z M 0.625 -5.21875 "/>
</g>
<g id="glyph-2-0">
<path d="M 5.015625 -1.171875 L 2.828125 -5.90625 C 2.71875 -6.125 2.59375 -6.125 2.40625 -6.125 L 0.40625 -6.125 L 0.40625 -5.6875 L 1.375 -5.6875 L 1.375 -0.703125 C 1.375 -0.5 1.359375 -0.484375 1.109375 -0.46875 C 0.890625 -0.4375 0.875 -0.4375 0.640625 -0.4375 L 0.40625 -0.4375 L 0.40625 0 C 0.984375 -0.03125 1.234375 -0.03125 1.625 -0.03125 C 2.015625 -0.03125 2.25 -0.03125 2.84375 0 L 2.84375 -0.4375 L 2.609375 -0.4375 C 2.375 -0.4375 2.34375 -0.4375 2.140625 -0.46875 C 1.890625 -0.484375 1.875 -0.5 1.875 -0.703125 L 1.875 -5.5625 L 1.890625 -5.5625 L 4.359375 -0.234375 C 4.390625 -0.15625 4.46875 0 4.671875 0 C 4.875 0 4.9375 -0.140625 4.984375 -0.234375 L 7.5 -5.6875 L 7.515625 -5.6875 L 7.515625 -0.4375 L 6.546875 -0.4375 L 6.546875 0 C 6.859375 -0.03125 7.71875 -0.03125 8.078125 -0.03125 C 8.4375 -0.03125 9.296875 -0.03125 9.609375 0 L 9.609375 -0.4375 L 8.65625 -0.4375 L 8.65625 -5.6875 L 9.609375 -5.6875 L 9.609375 -6.125 L 7.625 -6.125 C 7.4375 -6.125 7.3125 -6.125 7.21875 -5.90625 Z M 5.015625 -1.171875 "/>
</g>
<g id="glyph-2-1">
<path d="M 4.328125 -2.65625 C 4.328125 -3.453125 3.6875 -4.046875 2.3125 -4.046875 C 1.796875 -4.046875 0.65625 -4.03125 0.65625 -3.203125 C 0.65625 -2.8125 0.953125 -2.625 1.234375 -2.625 C 1.53125 -2.625 1.8125 -2.828125 1.8125 -3.203125 C 1.8125 -3.453125 1.65625 -3.609375 1.640625 -3.640625 C 1.71875 -3.65625 1.9375 -3.6875 2.265625 -3.6875 C 2.90625 -3.6875 3.28125 -3.375 3.28125 -2.65625 L 3.28125 -2.375 C 1.796875 -2.375 0.296875 -2 0.296875 -1 C 0.296875 -0.109375 1.40625 0.046875 2.0625 0.046875 C 2.734375 0.046875 3.203125 -0.234375 3.4375 -0.65625 C 3.4375 -0.421875 3.4375 0 4.390625 0 L 4.828125 0 C 5 0 5.125 0 5.125 -0.21875 C 5.125 -0.4375 4.984375 -0.4375 4.890625 -0.4375 C 4.328125 -0.453125 4.328125 -0.53125 4.328125 -0.75 Z M 3.28125 -1.25 C 3.28125 -0.296875 2.25 -0.296875 2.203125 -0.296875 C 1.75 -0.296875 1.375 -0.59375 1.375 -1 C 1.375 -1.296875 1.53125 -2 3.28125 -2.078125 Z M 3.28125 -1.25 "/>
</g>
<g id="glyph-2-2">
<path d="M 3.546875 -3.796875 C 3.546875 -3.953125 3.546875 -4.046875 3.375 -4.046875 C 3.28125 -4.046875 3.140625 -3.984375 2.96875 -3.890625 C 2.6875 -4.015625 2.34375 -4.046875 2.046875 -4.046875 C 1.765625 -4.046875 0.34375 -4.046875 0.34375 -2.875 C 0.34375 -1.9375 1.515625 -1.734375 1.828125 -1.6875 C 2.5625 -1.5625 3.15625 -1.453125 3.15625 -0.953125 C 3.15625 -0.296875 2.3125 -0.296875 2.125 -0.296875 C 1.65625 -0.296875 1.078125 -0.421875 0.828125 -1.25 C 0.78125 -1.390625 0.765625 -1.421875 0.578125 -1.421875 C 0.34375 -1.421875 0.34375 -1.375 0.34375 -1.15625 L 0.34375 -0.203125 C 0.34375 -0.046875 0.34375 0.046875 0.53125 0.046875 C 0.59375 0.046875 0.609375 0.046875 0.796875 -0.078125 L 1.046875 -0.21875 C 1.46875 0.046875 1.9375 0.046875 2.125 0.046875 C 2.390625 0.046875 3.8125 0.046875 3.8125 -1.25 C 3.8125 -1.703125 3.5625 -2 3.390625 -2.125 C 3 -2.46875 2.703125 -2.515625 2 -2.625 C 1.578125 -2.703125 1.015625 -2.78125 1.015625 -3.1875 C 1.015625 -3.734375 1.84375 -3.734375 2.03125 -3.734375 C 3.03125 -3.734375 3.078125 -3.203125 3.09375 -2.953125 C 3.09375 -2.828125 3.21875 -2.828125 3.3125 -2.828125 C 3.546875 -2.828125 3.546875 -2.875 3.546875 -3.09375 Z M 3.546875 -3.796875 "/>
</g>
<g id="glyph-2-3">
<path d="M 7.96875 -2.71875 C 7.96875 -3.78125 7.328125 -4.015625 6.546875 -4.015625 C 5.609375 -4.015625 5.15625 -3.453125 4.984375 -3.1875 C 4.796875 -3.984375 4 -4.015625 3.609375 -4.015625 C 2.5 -4.015625 2.0625 -3.21875 2 -3.078125 L 2 -4.015625 L 0.453125 -3.953125 L 0.453125 -3.515625 C 0.984375 -3.515625 1.046875 -3.515625 1.046875 -3.15625 L 1.046875 -0.4375 L 0.453125 -0.4375 L 0.453125 0 C 1.109375 -0.03125 1.21875 -0.03125 1.578125 -0.03125 C 1.9375 -0.03125 2.03125 -0.03125 2.703125 0 L 2.703125 -0.4375 L 2.09375 -0.4375 L 2.09375 -2.265625 C 2.09375 -3.265625 2.921875 -3.671875 3.453125 -3.671875 C 3.796875 -3.671875 3.984375 -3.484375 3.984375 -2.8125 L 3.984375 -0.4375 L 3.375 -0.4375 L 3.375 0 C 4.046875 -0.03125 4.140625 -0.03125 4.5 -0.03125 C 4.875 -0.03125 4.953125 -0.03125 5.640625 0 L 5.640625 -0.4375 L 5.03125 -0.4375 L 5.03125 -2.265625 C 5.03125 -3.265625 5.859375 -3.671875 6.390625 -3.671875 C 6.734375 -3.671875 6.921875 -3.484375 6.921875 -2.8125 L 6.921875 -0.4375 L 6.3125 -0.4375 L 6.3125 0 C 6.96875 -0.03125 7.078125 -0.03125 7.4375 -0.03125 C 7.796875 -0.03125 7.890625 -0.03125 8.578125 0 L 8.578125 -0.4375 L 7.96875 -0.4375 Z M 7.96875 -2.71875 "/>
</g>
<g id="glyph-2-4">
<path d="M 4.984375 -1.953125 C 4.984375 -3.125 4.171875 -4.046875 2.640625 -4.046875 C 1.078125 -4.046875 0.296875 -3.078125 0.296875 -1.953125 C 0.296875 -0.84375 1.09375 0.046875 2.640625 0.046875 C 4.234375 0.046875 4.984375 -0.890625 4.984375 -1.953125 Z M 2.640625 -0.328125 C 1.484375 -0.328125 1.484375 -1.265625 1.484375 -2.046875 C 1.484375 -2.796875 1.484375 -3.6875 2.640625 -3.6875 C 3.796875 -3.6875 3.796875 -2.796875 3.796875 -2.046875 C 3.796875 -1.28125 3.796875 -0.328125 2.640625 -0.328125 Z M 2.640625 -0.328125 "/>
</g>
<g id="glyph-2-5">
<path d="M 4.671875 -3.34375 C 4.734375 -3.46875 4.765625 -3.53125 5.328125 -3.53125 L 5.328125 -3.96875 C 5.078125 -3.9375 4.859375 -3.9375 4.609375 -3.9375 C 4.34375 -3.9375 4.0625 -3.9375 3.796875 -3.96875 L 3.796875 -3.53125 C 4.046875 -3.53125 4.125 -3.484375 4.203125 -3.453125 C 4.203125 -3.421875 4.203125 -3.390625 4.15625 -3.328125 L 3.078125 -1.09375 L 1.90625 -3.53125 L 2.375 -3.53125 L 2.375 -3.96875 C 1.78125 -3.953125 1.609375 -3.9375 1.28125 -3.9375 C 0.953125 -3.9375 0.78125 -3.9375 0.25 -3.96875 L 0.25 -3.53125 L 0.8125 -3.53125 L 2.40625 -0.203125 C 2.5 -0.03125 2.5625 0.046875 2.78125 0.046875 C 3.015625 0.046875 3.078125 -0.03125 3.15625 -0.203125 Z M 4.671875 -3.34375 "/>
</g>
<g id="glyph-2-6">
<path d="M 4.25 -1.921875 C 4.4375 -1.921875 4.546875 -1.921875 4.546875 -2.171875 C 4.546875 -2.375 4.53125 -3.15625 3.953125 -3.640625 C 3.546875 -3.96875 3.015625 -4.046875 2.578125 -4.046875 C 1.046875 -4.046875 0.296875 -3.078125 0.296875 -2.015625 C 0.296875 -0.84375 1.1875 0.046875 2.703125 0.046875 C 4.171875 0.046875 4.546875 -0.890625 4.546875 -1.03125 C 4.546875 -1.21875 4.375 -1.21875 4.3125 -1.21875 C 4.15625 -1.21875 4.140625 -1.15625 4.078125 -1.03125 C 3.875 -0.578125 3.328125 -0.328125 2.765625 -0.328125 C 1.5 -0.328125 1.484375 -1.484375 1.484375 -1.921875 Z M 1.484375 -2.25 C 1.5 -2.65625 1.546875 -3.6875 2.578125 -3.6875 C 3.625 -3.6875 3.65625 -2.59375 3.671875 -2.25 Z M 1.484375 -2.25 "/>
</g>
<g id="glyph-2-7">
<path d="M 1.921875 -0.15625 C 1.875 0.5625 1.53125 1.0625 1.09375 1.40625 C 1.046875 1.4375 1.015625 1.46875 1.015625 1.53125 C 1.015625 1.625 1.125 1.734375 1.203125 1.734375 C 1.34375 1.734375 2.28125 0.96875 2.28125 -0.28125 C 2.28125 -0.890625 1.96875 -1.40625 1.46875 -1.40625 C 1.015625 -1.40625 0.765625 -1.046875 0.765625 -0.703125 C 0.765625 -0.34375 1.015625 0 1.46875 0 C 1.65625 0 1.828125 -0.078125 1.921875 -0.15625 Z M 1.921875 -0.15625 "/>
</g>
<g id="glyph-2-8">
<path d="M 2.140625 -5.5 C 2.140625 -5.96875 1.765625 -6.21875 1.453125 -6.21875 C 1.03125 -6.21875 0.734375 -5.859375 0.734375 -5.515625 C 0.734375 -5.140625 1.046875 -4.8125 1.453125 -4.8125 C 1.78125 -4.8125 2.140625 -5.078125 2.140625 -5.5 Z M 0.484375 -3.953125 L 0.484375 -3.515625 C 1.015625 -3.515625 1.078125 -3.515625 1.078125 -3.15625 L 1.078125 -0.4375 L 0.46875 -0.4375 L 0.46875 0 C 1.0625 -0.015625 1.1875 -0.03125 1.5625 -0.03125 C 2 -0.03125 2.109375 -0.015625 2.609375 0 L 2.609375 -0.4375 L 2.0625 -0.4375 L 2.0625 -4.015625 Z M 0.484375 -3.953125 "/>
</g>
<g id="glyph-2-9">
<path d="M 2 -3.53125 L 3.34375 -3.53125 L 3.34375 -3.96875 L 2 -3.96875 L 2 -5.671875 L 1.53125 -5.671875 C 1.53125 -4.828125 1.109375 -3.921875 0.203125 -3.890625 L 0.203125 -3.53125 L 0.953125 -3.53125 L 0.953125 -1.09375 C 0.953125 -0.078125 1.828125 0.046875 2.390625 0.046875 C 3.078125 0.046875 3.515625 -0.453125 3.515625 -1.09375 L 3.515625 -1.578125 L 3.0625 -1.578125 L 3.0625 -1.125 C 3.0625 -0.484375 2.734375 -0.328125 2.515625 -0.328125 C 2 -0.328125 2 -0.859375 2 -1.078125 Z M 2 -3.53125 "/>
</g>
<g id="glyph-2-10">
<path d="M 3.28125 -6.125 L 3.28125 -5.6875 C 3.828125 -5.6875 3.890625 -5.6875 3.890625 -5.34375 L 3.890625 -3.625 C 3.5 -3.90625 3.078125 -4.015625 2.65625 -4.015625 C 1.203125 -4.015625 0.34375 -3.140625 0.34375 -1.984375 C 0.34375 -0.796875 1.1875 0.046875 2.546875 0.046875 C 3.109375 0.046875 3.5625 -0.15625 3.84375 -0.390625 L 3.84375 0.046875 L 5.5 0 L 5.5 -0.4375 C 4.953125 -0.4375 4.890625 -0.4375 4.890625 -0.78125 L 4.890625 -6.203125 Z M 3.84375 -0.96875 C 3.640625 -0.65625 3.21875 -0.296875 2.640625 -0.296875 C 1.53125 -0.296875 1.53125 -1.375 1.53125 -1.96875 C 1.53125 -2.484375 1.546875 -2.875 1.78125 -3.203125 C 2.015625 -3.5625 2.4375 -3.671875 2.75 -3.671875 C 3.203125 -3.671875 3.5625 -3.46875 3.84375 -3.125 Z M 3.84375 -0.96875 "/>
</g>
<g id="glyph-2-11">
<path d="M 5.015625 -2.71875 C 5.015625 -3.796875 4.375 -4.015625 3.609375 -4.015625 C 2.5 -4.015625 2.0625 -3.21875 2 -3.078125 L 2 -4.015625 L 0.453125 -3.953125 L 0.453125 -3.515625 C 0.984375 -3.515625 1.046875 -3.515625 1.046875 -3.15625 L 1.046875 -0.4375 L 0.453125 -0.4375 L 0.453125 0 C 1.109375 -0.03125 1.21875 -0.03125 1.578125 -0.03125 C 1.9375 -0.03125 2.03125 -0.03125 2.703125 0 L 2.703125 -0.4375 L 2.09375 -0.4375 L 2.09375 -2.265625 C 2.09375 -3.265625 2.921875 -3.671875 3.453125 -3.671875 C 3.796875 -3.671875 3.984375 -3.484375 3.984375 -2.8125 L 3.984375 -0.4375 L 3.375 -0.4375 L 3.375 0 C 4.03125 -0.03125 4.140625 -0.03125 4.5 -0.03125 C 4.859375 -0.03125 4.953125 -0.03125 5.625 0 L 5.625 -0.4375 L 5.015625 -0.4375 Z M 5.015625 -2.71875 "/>
</g>
<g id="glyph-2-12">
<path d="M 2.078125 -3.53125 L 3.140625 -3.53125 L 3.140625 -3.96875 L 2.015625 -3.96875 L 2.015625 -4.859375 C 2.015625 -5.828125 2.71875 -5.90625 2.9375 -5.90625 C 2.96875 -5.90625 3.0625 -5.90625 3.0625 -5.875 C 3.0625 -5.875 3.0625 -5.859375 3.03125 -5.84375 C 2.9375 -5.734375 2.890625 -5.609375 2.890625 -5.453125 C 2.890625 -5.078125 3.203125 -4.890625 3.453125 -4.890625 C 3.75 -4.890625 4.03125 -5.109375 4.03125 -5.453125 C 4.03125 -5.859375 3.6875 -6.25 2.984375 -6.25 C 2.046875 -6.25 1.078125 -5.859375 1.078125 -4.859375 L 1.078125 -3.96875 L 0.390625 -3.96875 L 0.390625 -3.53125 L 1.078125 -3.53125 L 1.078125 -0.4375 L 0.46875 -0.4375 L 0.46875 0 C 1.140625 -0.03125 1.1875 -0.03125 1.625 -0.03125 C 1.84375 -0.03125 2.359375 -0.03125 2.828125 0 L 2.828125 -0.4375 L 2.078125 -0.4375 Z M 2.078125 -3.53125 "/>
</g>
<g id="glyph-3-0">
<path d="M 1.984375 -3.15625 C 1.984375 -3.3125 1.96875 -3.3125 1.796875 -3.3125 C 1.453125 -2.984375 0.890625 -2.984375 0.796875 -2.984375 L 0.703125 -2.984375 L 0.703125 -2.765625 L 0.796875 -2.765625 C 0.90625 -2.765625 1.234375 -2.78125 1.515625 -2.90625 L 1.515625 -0.421875 C 1.515625 -0.265625 1.515625 -0.21875 1 -0.21875 L 0.75 -0.21875 L 0.75 0 C 1.015625 -0.015625 1.453125 -0.015625 1.75 -0.015625 C 2.03125 -0.015625 2.484375 -0.015625 2.75 0 L 2.75 -0.21875 L 2.5 -0.21875 C 1.984375 -0.21875 1.984375 -0.265625 1.984375 -0.421875 Z M 1.984375 -3.15625 "/>
</g>
<g id="glyph-3-1">
<path d="M 2.921875 -0.953125 L 2.71875 -0.953125 C 2.703125 -0.859375 2.65625 -0.5625 2.578125 -0.5 C 2.53125 -0.484375 2.109375 -0.484375 2.046875 -0.484375 L 1.0625 -0.484375 C 1.390625 -0.71875 1.765625 -1 2.0625 -1.203125 C 2.515625 -1.5 2.921875 -1.796875 2.921875 -2.328125 C 2.921875 -2.953125 2.328125 -3.3125 1.609375 -3.3125 C 0.9375 -3.3125 0.453125 -2.921875 0.453125 -2.4375 C 0.453125 -2.171875 0.671875 -2.125 0.734375 -2.125 C 0.875 -2.125 1.03125 -2.21875 1.03125 -2.421875 C 1.03125 -2.609375 0.90625 -2.703125 0.75 -2.71875 C 0.890625 -2.9375 1.171875 -3.09375 1.515625 -3.09375 C 2 -3.09375 2.390625 -2.796875 2.390625 -2.3125 C 2.390625 -1.890625 2.109375 -1.578125 1.71875 -1.25 L 0.515625 -0.234375 C 0.46875 -0.1875 0.453125 -0.1875 0.453125 -0.15625 L 0.453125 0 L 2.765625 0 Z M 2.921875 -0.953125 "/>
</g>
<g id="glyph-3-2">
<path d="M 2.984375 -1.59375 C 2.984375 -1.953125 2.984375 -3.3125 1.6875 -3.3125 C 0.390625 -3.3125 0.390625 -1.953125 0.390625 -1.59375 C 0.390625 -1.234375 0.390625 0.109375 1.6875 0.109375 C 2.984375 0.109375 2.984375 -1.234375 2.984375 -1.59375 Z M 1.6875 -0.046875 C 1.5 -0.046875 1.09375 -0.125 0.96875 -0.625 C 0.890625 -0.890625 0.890625 -1.234375 0.890625 -1.65625 C 0.890625 -2.015625 0.890625 -2.359375 0.96875 -2.640625 C 1.09375 -3.0625 1.46875 -3.140625 1.6875 -3.140625 C 2.0625 -3.140625 2.328125 -2.953125 2.421875 -2.609375 C 2.484375 -2.359375 2.484375 -1.9375 2.484375 -1.65625 C 2.484375 -1.3125 2.484375 -0.90625 2.421875 -0.609375 C 2.28125 -0.125 1.890625 -0.046875 1.6875 -0.046875 Z M 1.6875 -0.046875 "/>
</g>
<g id="glyph-4-0">
<path d="M 3 -3.484375 C 3.03125 -3.546875 3.03125 -3.578125 3.03125 -3.59375 C 3.03125 -3.65625 2.96875 -3.71875 2.890625 -3.71875 C 2.8125 -3.71875 2.78125 -3.671875 2.75 -3.609375 L 0.65625 1 C 0.625 1.0625 0.625 1.09375 0.625 1.109375 C 0.625 1.171875 0.6875 1.234375 0.765625 1.234375 C 0.84375 1.234375 0.875 1.1875 0.90625 1.125 Z M 3 -3.484375 "/>
</g>
<g id="glyph-4-1">
<path d="M 1.5625 -1.921875 L 2.140625 -1.921875 C 2.25 -1.921875 2.25 -1.921875 2.28125 -1.9375 C 2.3125 -1.96875 2.328125 -2.03125 2.328125 -2.0625 C 2.328125 -2.140625 2.25 -2.140625 2.15625 -2.140625 L 1.609375 -2.140625 L 1.71875 -2.546875 C 1.75 -2.6875 1.8125 -2.90625 1.8125 -2.9375 C 1.8125 -3.015625 1.75 -3.109375 1.625 -3.109375 C 1.546875 -3.109375 1.421875 -3.0625 1.375 -2.921875 C 1.359375 -2.84375 1.421875 -3.078125 1.1875 -2.140625 L 0.59375 -2.140625 C 0.484375 -2.140625 0.421875 -2.140625 0.421875 -2 C 0.421875 -1.921875 0.484375 -1.921875 0.578125 -1.921875 L 1.125 -1.921875 L 0.828125 -0.75 C 0.8125 -0.640625 0.765625 -0.484375 0.765625 -0.421875 C 0.765625 -0.140625 1.03125 0.046875 1.375 0.046875 C 1.984375 0.046875 2.34375 -0.609375 2.34375 -0.71875 C 2.34375 -0.78125 2.265625 -0.78125 2.25 -0.78125 C 2.171875 -0.78125 2.15625 -0.765625 2.125 -0.703125 C 1.96875 -0.34375 1.65625 -0.109375 1.40625 -0.109375 C 1.234375 -0.109375 1.1875 -0.234375 1.1875 -0.375 C 1.1875 -0.453125 1.203125 -0.46875 1.203125 -0.515625 Z M 1.5625 -1.921875 "/>
</g>
<g id="glyph-5-0">
<path d="M 4.421875 0.359375 C 4.390625 0.375 4.171875 0.4375 4.171875 0.671875 C 4.171875 0.890625 4.359375 0.984375 4.484375 0.984375 C 4.640625 0.984375 4.8125 0.890625 4.8125 0.65625 C 4.8125 0.28125 4.421875 0 3.953125 0 C 3.40625 0 2.9375 0.40625 2.71875 1.28125 C 2.640625 1.578125 2.359375 3.609375 2.21875 5.1875 C 2.21875 5.375 2.171875 5.8125 2.140625 6.1875 C 2.046875 6.953125 1.890625 7.53125 1.390625 7.53125 C 1.25 7.53125 1.0625 7.484375 0.921875 7.375 C 0.953125 7.359375 1.171875 7.28125 1.171875 7.0625 C 1.171875 6.828125 0.984375 6.734375 0.859375 6.734375 C 0.703125 6.734375 0.53125 6.828125 0.53125 7.0625 C 0.53125 7.4375 0.921875 7.71875 1.390625 7.71875 C 1.9375 7.71875 2.40625 7.3125 2.640625 6.4375 C 2.71875 6.15625 2.984375 4.109375 3.125 2.53125 C 3.140625 2.359375 3.171875 1.921875 3.21875 1.546875 C 3.296875 0.765625 3.453125 0.1875 3.96875 0.1875 C 4.09375 0.1875 4.28125 0.234375 4.421875 0.359375 Z M 4.421875 0.359375 "/>
</g>
<g id="glyph-6-0">
<path d="M 1.34375 -4.9375 C 1.34375 -5.046875 1.34375 -5.21875 1.1875 -5.21875 C 1.015625 -5.21875 1.015625 -5.0625 1.015625 -4.9375 L 1.015625 1.46875 C 1.015625 1.578125 1.015625 1.734375 1.171875 1.734375 C 1.34375 1.734375 1.34375 1.578125 1.34375 1.46875 Z M 1.34375 -4.9375 "/>
</g>
</g>
</defs>
<path fill="none" stroke-width="0.3985" stroke-linecap="butt" stroke-linejoin="miter" stroke="rgb(84.999084%, 84.999084%, 84.999084%)" stroke-opacity="1" stroke-miterlimit="10" d="M -45.78087 140.033404 L -45.78087 183.119206 L 45.778419 183.119206 L 45.778419 140.033404 Z M -45.78087 140.033404 " transform="matrix(0.996195, 0, 0, -0.996195, 54.134034, 190.55922)"/>
<path fill-rule="nonzero" fill="rgb(71.311951%, 52.764893%, 56.43158%)" fill-opacity="0.85" d="M 11.210938 45.980469 L 12.960938 45.449219 L 14.714844 44.703125 L 16.464844 43.695312 L 18.21875 42.371094 L 19.96875 40.6875 L 21.71875 38.613281 L 23.472656 36.148438 L 25.222656 33.3125 L 26.976562 30.179688 L 28.726562 26.855469 L 30.476562 23.480469 L 32.230469 20.238281 L 33.980469 17.320312 L 35.734375 14.917969 L 37.484375 13.195312 L 39.234375 12.285156 L 40.988281 12.246094 L 42.738281 13.089844 L 44.492188 14.746094 L 46.242188 17.101562 L 47.996094 19.984375 L 49.746094 23.207031 L 51.496094 26.578125 L 53.25 29.910156 L 55 33.066406 L 56.753906 35.929688 L 58.503906 38.425781 L 60.253906 40.53125 L 62.007812 42.246094 L 63.757812 43.597656 L 65.511719 44.632812 L 67.261719 45.394531 L 69.011719 45.945312 L 70.765625 46.332031 L 72.515625 46.589844 L 74.269531 46.761719 L 76.019531 46.871094 L 77.769531 46.9375 L 79.523438 46.980469 L 81.273438 47.003906 L 83.027344 47.019531 L 84.777344 47.027344 L 86.527344 47.03125 L 88.28125 47.035156 L 97.058594 47.035156 L 11.210938 47.035156 Z M 11.210938 45.980469 "/>
<g fill="rgb(69.999695%, 69.999695%, 69.999695%)" fill-opacity="1">
<use xlink:href="#glyph-0-0" x="45.350579" y="61.346706"/>
</g>
<g fill="rgb(69.999695%, 69.999695%, 69.999695%)" fill-opacity="1">
<use xlink:href="#glyph-1-0" x="50.606881" y="61.346706"/>
</g>
<g fill="rgb(69.999695%, 69.999695%, 69.999695%)" fill-opacity="1">
<use xlink:href="#glyph-1-1" x="58.957497" y="61.346706"/>
</g>
<path fill="none" stroke-width="0.3985" stroke-linecap="butt" stroke-linejoin="miter" stroke="rgb(84.999084%, 84.999084%, 84.999084%)" stroke-opacity="1" stroke-miterlimit="10" d="M 70.015162 140.033404 L 70.015162 183.119206 L 161.574451 183.119206 L 161.574451 140.033404 Z M 70.015162 140.033404 " transform="matrix(0.996195, 0, 0, -0.996195, 54.134034, 190.55922)"/>
<path fill-rule="nonzero" fill="rgb(71.311951%, 52.764893%, 56.43158%)" fill-opacity="0.85" d="M 126.566406 47.035156 L 128.316406 47.027344 L 130.070312 47.023438 L 131.820312 47.011719 L 133.574219 46.992188 L 135.324219 46.960938 L 137.078125 46.902344 L 138.828125 46.8125 L 140.578125 46.671875 L 142.332031 46.453125 L 144.082031 46.125 L 145.835938 45.652344 L 147.585938 44.980469 L 149.335938 44.066406 L 151.089844 42.855469 L 152.839844 41.296875 L 154.59375 39.359375 L 156.34375 37.023438 L 158.09375 34.308594 L 159.847656 31.269531 L 161.597656 27.992188 L 163.351562 24.617188 L 165.101562 21.308594 L 166.851562 18.261719 L 168.605469 15.660156 L 170.355469 13.695312 L 172.109375 12.496094 L 173.859375 12.160156 L 175.609375 12.710938 L 177.363281 14.101562 L 179.113281 16.238281 L 180.867188 18.960938 L 182.617188 22.089844 L 184.371094 25.433594 L 186.121094 28.796875 L 187.871094 32.027344 L 189.625 34.996094 L 191.375 37.625 L 193.128906 39.863281 L 194.878906 41.710938 L 196.628906 43.175781 L 198.382812 44.316406 L 200.132812 45.160156 L 201.886719 45.78125 L 203.636719 46.214844 L 205.386719 46.511719 L 207.140625 46.710938 L 208.890625 46.839844 L 210.644531 46.917969 L 212.394531 46.96875 L 212.414062 47.035156 Z M 126.566406 47.035156 "/>
<g fill="rgb(69.999695%, 69.999695%, 69.999695%)" fill-opacity="1">
<use xlink:href="#glyph-0-0" x="157.549073" y="61.346706"/>
</g>
<g fill="rgb(69.999695%, 69.999695%, 69.999695%)" fill-opacity="1">
<use xlink:href="#glyph-1-0" x="162.805375" y="61.346706"/>
</g>
<g fill="rgb(69.999695%, 69.999695%, 69.999695%)" fill-opacity="1">
<use xlink:href="#glyph-1-1" x="171.15599" y="61.346706"/>
</g>
<g fill="rgb(69.999695%, 69.999695%, 69.999695%)" fill-opacity="1">
<use xlink:href="#glyph-0-1" x="175.112459" y="61.346706"/>
</g>
<g fill="rgb(69.999695%, 69.999695%, 69.999695%)" fill-opacity="1">
<use xlink:href="#glyph-1-2" x="177.469666" y="61.346706"/>
</g>
<path fill="none" stroke-width="0.3985" stroke-linecap="butt" stroke-linejoin="miter" stroke="rgb(84.999084%, 84.999084%, 84.999084%)" stroke-opacity="1" stroke-miterlimit="10" d="M 185.811194 140.033404 L 185.811194 183.119206 L 277.374404 183.119206 L 277.374404 140.033404 Z M 185.811194 140.033404 " transform="matrix(0.996195, 0, 0, -0.996195, 54.134034, 190.55922)"/>
<path fill-rule="nonzero" fill="rgb(71.311951%, 52.764893%, 56.43158%)" fill-opacity="0.85" d="M 241.921875 47.035156 L 259.4375 47.035156 L 261.191406 47.03125 L 264.691406 47.015625 L 266.445312 47 L 268.195312 46.972656 L 269.949219 46.925781 L 271.699219 46.847656 L 273.449219 46.726562 L 275.203125 46.535156 L 276.953125 46.25 L 278.707031 45.828125 L 280.457031 45.230469 L 282.210938 44.410156 L 283.960938 43.300781 L 285.710938 41.867188 L 287.464844 40.058594 L 289.214844 37.859375 L 290.96875 35.269531 L 292.71875 32.328125 L 294.46875 29.121094 L 296.222656 25.757812 L 297.972656 22.40625 L 299.726562 19.25 L 301.476562 16.476562 L 303.226562 14.28125 L 304.980469 12.808594 L 306.730469 12.171875 L 308.484375 12.425781 L 310.234375 13.542969 L 311.984375 15.441406 L 313.738281 17.984375 L 315.488281 21 L 317.242188 24.292969 L 318.992188 27.667969 L 320.746094 30.960938 L 322.496094 34.03125 L 324.246094 36.78125 L 326 39.152344 L 327.75 41.128906 L 327.769531 47.035156 Z M 241.921875 47.035156 "/>
<g fill="rgb(69.999695%, 69.999695%, 69.999695%)" fill-opacity="1">
<use xlink:href="#glyph-0-0" x="276.05946" y="61.346706"/>
</g>
<g fill="rgb(69.999695%, 69.999695%, 69.999695%)" fill-opacity="1">
<use xlink:href="#glyph-1-0" x="281.315762" y="61.346706"/>
</g>
<g fill="rgb(69.999695%, 69.999695%, 69.999695%)" fill-opacity="1">
<use xlink:href="#glyph-1-3" x="289.666377" y="61.346706"/>
</g>
<g fill="rgb(47.840881%, 14.118958%, 20.783997%)" fill-opacity="1">
<use xlink:href="#glyph-2-0" x="102.476405" y="29.149672"/>
<use xlink:href="#glyph-2-1" x="112.494857" y="29.149672"/>
<use xlink:href="#glyph-2-2" x="117.632708" y="29.149672"/>
<use xlink:href="#glyph-2-2" x="121.802299" y="29.149672"/>
</g>
<g fill="rgb(47.840881%, 14.118958%, 20.783997%)" fill-opacity="1">
<use xlink:href="#glyph-2-3" x="129.491211" y="29.149672"/>
<use xlink:href="#glyph-2-4" x="138.299338" y="29.149672"/>
</g>
<g fill="rgb(47.840881%, 14.118958%, 20.783997%)" fill-opacity="1">
<use xlink:href="#glyph-2-5" x="143.289806" y="29.149672"/>
</g>
<g fill="rgb(47.840881%, 14.118958%, 20.783997%)" fill-opacity="1">
<use xlink:href="#glyph-2-6" x="148.582186" y="29.149672"/>
<use xlink:href="#glyph-2-2" x="153.432417" y="29.149672"/>
<use xlink:href="#glyph-2-7" x="157.602008" y="29.149672"/>
</g>
<g fill="rgb(47.840881%, 14.118958%, 20.783997%)" fill-opacity="1">
<use xlink:href="#glyph-2-8" x="164.057371" y="29.149672"/>
<use xlink:href="#glyph-2-9" x="166.993414" y="29.149672"/>
</g>
<g fill="rgb(47.840881%, 14.118958%, 20.783997%)" fill-opacity="1">
<use xlink:href="#glyph-2-10" x="174.623372" y="29.149672"/>
<use xlink:href="#glyph-2-4" x="180.495457" y="29.149672"/>
</g>
<g fill="rgb(47.840881%, 14.118958%, 20.783997%)" fill-opacity="1">
<use xlink:href="#glyph-2-6" x="186.075456" y="29.149672"/>
<use xlink:href="#glyph-2-2" x="190.925687" y="29.149672"/>
</g>
<g fill="rgb(47.840881%, 14.118958%, 20.783997%)" fill-opacity="1">
<use xlink:href="#glyph-2-11" x="198.623532" y="29.149672"/>
<use xlink:href="#glyph-2-4" x="204.495616" y="29.149672"/>
<use xlink:href="#glyph-2-9" x="209.78085" y="29.149672"/>
</g>
<g fill="rgb(47.840881%, 14.118958%, 20.783997%)" fill-opacity="1">
<use xlink:href="#glyph-2-12" x="217.410809" y="29.149672"/>
<use xlink:href="#glyph-2-1" x="220.640723" y="29.149672"/>
<use xlink:href="#glyph-2-10" x="225.778574" y="29.149672"/>
<use xlink:href="#glyph-2-6" x="231.650659" y="29.149672"/>
</g>
<path fill="none" stroke-width="0.79701" stroke-linecap="butt" stroke-linejoin="miter" stroke="rgb(75%, 75%, 75%)" stroke-opacity="1" stroke-miterlimit="10" d="M -0.00122574 0.000628334 L 238.252904 0.000628334 " transform="matrix(0.996195, 0, 0, -0.996195, 54.134034, 190.55922)"/>
<path fill-rule="nonzero" fill="rgb(75%, 75%, 75%)" fill-opacity="1" stroke-width="0.79701" stroke-linecap="butt" stroke-linejoin="miter" stroke="rgb(75%, 75%, 75%)" stroke-opacity="1" stroke-miterlimit="10" d="M 5.440071 0.000628334 L 1.287554 1.569096 L 2.663884 0.000628334 L 1.287554 -1.57176 Z M 5.440071 0.000628334 " transform="matrix(0.996195, 0, 0, -0.996195, 289.025939, 190.55922)"/>
<g fill="rgb(75%, 75%, 75%)" fill-opacity="1">
<use xlink:href="#glyph-1-4" x="299.277785" y="191.379088"/>
<use xlink:href="#glyph-1-5" x="302.422118" y="191.379088"/>
<use xlink:href="#glyph-1-6" x="306.805844" y="191.379088"/>
<use xlink:href="#glyph-1-7" x="310.762312" y="191.379088"/>
<use xlink:href="#glyph-1-8" x="314.290829" y="191.379088"/>
</g>
<path fill="none" stroke-width="0.79701" stroke-linecap="butt" stroke-linejoin="miter" stroke="rgb(75%, 75%, 75%)" stroke-opacity="1" stroke-miterlimit="10" d="M -0.00122574 0.000628334 L -0.00122574 114.377198 " transform="matrix(0.996195, 0, 0, -0.996195, 54.134034, 190.55922)"/>
<path fill-rule="nonzero" fill="rgb(75%, 75%, 75%)" fill-opacity="1" stroke-width="0.79701" stroke-linecap="butt" stroke-linejoin="miter" stroke="rgb(75%, 75%, 75%)" stroke-opacity="1" stroke-miterlimit="10" d="M 5.439685 0.00122574 L 1.287167 1.569693 L 2.663497 0.00122574 L 1.287167 -1.571163 Z M 5.439685 0.00122574 " transform="matrix(0, -0.996195, -0.996195, 0, 54.134034, 79.071332)"/>
<g fill="rgb(75%, 75%, 75%)" fill-opacity="1">
<use xlink:href="#glyph-1-9" x="46.435436" y="68.817175"/>
<use xlink:href="#glyph-1-10" x="49.536696" y="68.817175"/>
<use xlink:href="#glyph-1-11" x="51.783442" y="68.817175"/>
<use xlink:href="#glyph-1-8" x="58.303452" y="68.817175"/>
</g>
<path fill="none" stroke-width="0.79701" stroke-linecap="butt" stroke-linejoin="miter" stroke="rgb(71.311951%, 52.764893%, 56.43158%)" stroke-opacity="1" stroke-miterlimit="10" d="M 26.929361 0.000628334 L 94.251906 107.719053 " transform="matrix(0.996195, 0, 0, -0.996195, 54.134034, 190.55922)"/>
<path fill="none" stroke-width="0.79701" stroke-linecap="butt" stroke-linejoin="miter" stroke="rgb(71.311951%, 52.764893%, 56.43158%)" stroke-opacity="1" stroke-miterlimit="10" d="M 43.088497 0.000628334 L 123.876335 107.719053 " transform="matrix(0.996195, 0, 0, -0.996195, 54.134034, 190.55922)"/>
<path fill="none" stroke-width="0.79701" stroke-linecap="butt" stroke-linejoin="miter" stroke="rgb(71.311951%, 52.764893%, 56.43158%)" stroke-opacity="1" stroke-miterlimit="10" d="M 59.243712 0.000628334 L 153.496843 107.719053 " transform="matrix(0.996195, 0, 0, -0.996195, 54.134034, 190.55922)"/>
<path fill="none" stroke-width="0.79701" stroke-linecap="butt" stroke-linejoin="miter" stroke="rgb(71.311951%, 52.764893%, 56.43158%)" stroke-opacity="1" stroke-miterlimit="10" d="M 75.402848 0.000628334 L 175.039744 107.719053 " transform="matrix(0.996195, 0, 0, -0.996195, 54.134034, 190.55922)"/>
<path fill="none" stroke-width="0.79701" stroke-linecap="butt" stroke-linejoin="miter" stroke="rgb(71.311951%, 52.764893%, 56.43158%)" stroke-opacity="1" stroke-miterlimit="10" d="M 91.558063 0.000628334 L 196.582645 107.719053 " transform="matrix(0.996195, 0, 0, -0.996195, 54.134034, 190.55922)"/>
<path fill-rule="nonzero" fill="rgb(47.840881%, 14.118958%, 20.783997%)" fill-opacity="1" stroke-width="0.3985" stroke-linecap="butt" stroke-linejoin="miter" stroke="rgb(47.840881%, 14.118958%, 20.783997%)" stroke-opacity="1" stroke-miterlimit="10" d="M 28.823285 0.000628334 C 28.823285 1.043659 27.976313 1.894553 26.929361 1.894553 C 25.882409 1.894553 25.035436 1.043659 25.035436 0.000628334 C 25.035436 -1.046324 25.882409 -1.893296 26.929361 -1.893296 C 27.976313 -1.893296 28.823285 -1.046324 28.823285 0.000628334 Z M 28.823285 0.000628334 " transform="matrix(0.996195, 0, 0, -0.996195, 54.134034, 190.55922)"/>
<path fill-rule="nonzero" fill="rgb(47.840881%, 14.118958%, 20.783997%)" fill-opacity="1" stroke-width="0.3985" stroke-linecap="butt" stroke-linejoin="miter" stroke="rgb(47.840881%, 14.118958%, 20.783997%)" stroke-opacity="1" stroke-miterlimit="10" d="M 44.9785 0.000628334 C 44.9785 1.043659 44.131528 1.894553 43.088497 1.894553 C 42.041545 1.894553 41.194572 1.043659 41.194572 0.000628334 C 41.194572 -1.046324 42.041545 -1.893296 43.088497 -1.893296 C 44.131528 -1.893296 44.9785 -1.046324 44.9785 0.000628334 Z M 44.9785 0.000628334 " transform="matrix(0.996195, 0, 0, -0.996195, 54.134034, 190.55922)"/>
<path fill-rule="nonzero" fill="rgb(47.840881%, 14.118958%, 20.783997%)" fill-opacity="1" stroke-width="0.3985" stroke-linecap="butt" stroke-linejoin="miter" stroke="rgb(47.840881%, 14.118958%, 20.783997%)" stroke-opacity="1" stroke-miterlimit="10" d="M 61.137636 0.000628334 C 61.137636 1.043659 60.290664 1.894553 59.243712 1.894553 C 58.200681 1.894553 57.349787 1.043659 57.349787 0.000628334 C 57.349787 -1.046324 58.200681 -1.893296 59.243712 -1.893296 C 60.290664 -1.893296 61.137636 -1.046324 61.137636 0.000628334 Z M 61.137636 0.000628334 " transform="matrix(0.996195, 0, 0, -0.996195, 54.134034, 190.55922)"/>
<path fill-rule="nonzero" fill="rgb(47.840881%, 14.118958%, 20.783997%)" fill-opacity="1" stroke-width="0.3985" stroke-linecap="butt" stroke-linejoin="miter" stroke="rgb(47.840881%, 14.118958%, 20.783997%)" stroke-opacity="1" stroke-miterlimit="10" d="M 77.296772 0.000628334 C 77.296772 1.043659 76.445879 1.894553 75.402848 1.894553 C 74.355896 1.894553 73.508923 1.043659 73.508923 0.000628334 C 73.508923 -1.046324 74.355896 -1.893296 75.402848 -1.893296 C 76.445879 -1.893296 77.296772 -1.046324 77.296772 0.000628334 Z M 77.296772 0.000628334 " transform="matrix(0.996195, 0, 0, -0.996195, 54.134034, 190.55922)"/>
<path fill-rule="nonzero" fill="rgb(47.840881%, 14.118958%, 20.783997%)" fill-opacity="1" stroke-width="0.3985" stroke-linecap="butt" stroke-linejoin="miter" stroke="rgb(47.840881%, 14.118958%, 20.783997%)" stroke-opacity="1" stroke-miterlimit="10" d="M 93.451987 0.000628334 C 93.451987 1.043659 92.605015 1.894553 91.558063 1.894553 C 90.515032 1.894553 89.66806 1.043659 89.66806 0.000628334 C 89.66806 -1.046324 90.515032 -1.893296 91.558063 -1.893296 C 92.605015 -1.893296 93.451987 -1.046324 93.451987 0.000628334 Z M 93.451987 0.000628334 " transform="matrix(0.996195, 0, 0, -0.996195, 54.134034, 190.55922)"/>
<path fill-rule="nonzero" fill="rgb(34.039307%, 26.078796%, 24.157715%)" fill-opacity="1" stroke-width="0.3985" stroke-linecap="butt" stroke-linejoin="miter" stroke="rgb(34.039307%, 26.078796%, 24.157715%)" stroke-opacity="1" stroke-miterlimit="10" d="M 96.14583 107.719053 C 96.14583 108.762084 95.298858 109.609056 94.251906 109.609056 C 93.208875 109.609056 92.357981 108.762084 92.357981 107.719053 C 92.357981 106.672101 93.208875 105.825129 94.251906 105.825129 C 95.298858 105.825129 96.14583 106.672101 96.14583 107.719053 Z M 96.14583 107.719053 " transform="matrix(0.996195, 0, 0, -0.996195, 54.134034, 190.55922)"/>
<path fill-rule="nonzero" fill="rgb(34.039307%, 26.078796%, 24.157715%)" fill-opacity="1" stroke-width="0.3985" stroke-linecap="butt" stroke-linejoin="miter" stroke="rgb(34.039307%, 26.078796%, 24.157715%)" stroke-opacity="1" stroke-miterlimit="10" d="M 125.766338 107.719053 C 125.766338 108.762084 124.919366 109.609056 123.876335 109.609056 C 122.829383 109.609056 121.982411 108.762084 121.982411 107.719053 C 121.982411 106.672101 122.829383 105.825129 123.876335 105.825129 C 124.919366 105.825129 125.766338 106.672101 125.766338 107.719053 Z M 125.766338 107.719053 " transform="matrix(0.996195, 0, 0, -0.996195, 54.134034, 190.55922)"/>
<path fill-rule="nonzero" fill="rgb(34.039307%, 26.078796%, 24.157715%)" fill-opacity="1" stroke-width="0.3985" stroke-linecap="butt" stroke-linejoin="miter" stroke="rgb(34.039307%, 26.078796%, 24.157715%)" stroke-opacity="1" stroke-miterlimit="10" d="M 155.390768 107.719053 C 155.390768 108.762084 154.543795 109.609056 153.496843 109.609056 C 152.453813 109.609056 151.602919 108.762084 151.602919 107.719053 C 151.602919 106.672101 152.453813 105.825129 153.496843 105.825129 C 154.543795 105.825129 155.390768 106.672101 155.390768 107.719053 Z M 155.390768 107.719053 " transform="matrix(0.996195, 0, 0, -0.996195, 54.134034, 190.55922)"/>
<path fill-rule="nonzero" fill="rgb(34.039307%, 26.078796%, 24.157715%)" fill-opacity="1" stroke-width="0.3985" stroke-linecap="butt" stroke-linejoin="miter" stroke="rgb(34.039307%, 26.078796%, 24.157715%)" stroke-opacity="1" stroke-miterlimit="10" d="M 176.933669 107.719053 C 176.933669 108.762084 176.086696 109.609056 175.039744 109.609056 C 173.996713 109.609056 173.149741 108.762084 173.149741 107.719053 C 173.149741 106.672101 173.996713 105.825129 175.039744 105.825129 C 176.086696 105.825129 176.933669 106.672101 176.933669 107.719053 Z M 176.933669 107.719053 " transform="matrix(0.996195, 0, 0, -0.996195, 54.134034, 190.55922)"/>
<path fill-rule="nonzero" fill="rgb(34.039307%, 26.078796%, 24.157715%)" fill-opacity="1" stroke-width="0.3985" stroke-linecap="butt" stroke-linejoin="miter" stroke="rgb(34.039307%, 26.078796%, 24.157715%)" stroke-opacity="1" stroke-miterlimit="10" d="M 198.476569 107.719053 C 198.476569 108.762084 197.629597 109.609056 196.582645 109.609056 C 195.539614 109.609056 194.692642 108.762084 194.692642 107.719053 C 194.692642 106.672101 195.539614 105.825129 196.582645 105.825129 C 197.629597 105.825129 198.476569 106.672101 198.476569 107.719053 Z M 198.476569 107.719053 " transform="matrix(0.996195, 0, 0, -0.996195, 54.134034, 190.55922)"/>
<g fill="rgb(47.840881%, 14.118958%, 20.783997%)" fill-opacity="1">
<use xlink:href="#glyph-0-2" x="78.547793" y="200.76823"/>
</g>
<g fill="rgb(34.039307%, 26.078796%, 24.157715%)" fill-opacity="1">
<use xlink:href="#glyph-0-3" x="247.746592" y="75.35919"/>
</g>
<path fill="none" stroke-width="0.79701" stroke-linecap="butt" stroke-linejoin="miter" stroke="rgb(60.392761%, 41.569519%, 12.156677%)" stroke-opacity="1" stroke-dasharray="2.98883 2.98883" stroke-miterlimit="10" d="M -0.00122574 53.85788 L 242.36621 53.85788 " transform="matrix(0.996195, 0, 0, -0.996195, 54.134034, 190.55922)"/>
<g fill="rgb(48.313904%, 33.253479%, 9.725952%)" fill-opacity="1">
<use xlink:href="#glyph-0-4" x="118.45239" y="128.646675"/>
</g>
<g fill="rgb(48.313904%, 33.253479%, 9.725952%)" fill-opacity="1">
<use xlink:href="#glyph-3-0" x="122.569665" y="129.9756"/>
</g>
<g fill="rgb(48.313904%, 33.253479%, 9.725952%)" fill-opacity="1">
<use xlink:href="#glyph-4-0" x="125.947039" y="129.9756"/>
</g>
<g fill="rgb(48.313904%, 33.253479%, 9.725952%)" fill-opacity="1">
<use xlink:href="#glyph-3-1" x="129.599824" y="129.9756"/>
</g>
<g fill="rgb(48.313904%, 33.253479%, 9.725952%)" fill-opacity="1">
<use xlink:href="#glyph-1-12" x="133.473024" y="128.646675"/>
</g>
<g fill="rgb(48.313904%, 33.253479%, 9.725952%)" fill-opacity="1">
<use xlink:href="#glyph-1-13" x="139.248981" y="128.646675"/>
<use xlink:href="#glyph-1-10" x="143.632707" y="128.646675"/>
<use xlink:href="#glyph-1-4" x="145.879453" y="128.646675"/>
<use xlink:href="#glyph-1-5" x="149.023786" y="128.646675"/>
<use xlink:href="#glyph-1-14" x="153.407512" y="128.646675"/>
<use xlink:href="#glyph-1-6" x="155.654258" y="128.646675"/>
<use xlink:href="#glyph-1-7" x="159.610727" y="128.646675"/>
<use xlink:href="#glyph-1-8" x="163.139244" y="128.646675"/>
<use xlink:href="#glyph-1-11" x="166.667761" y="128.646675"/>
<use xlink:href="#glyph-1-8" x="173.187771" y="128.646675"/>
<use xlink:href="#glyph-1-15" x="176.716288" y="128.646675"/>
</g>
<g fill="rgb(48.313904%, 33.253479%, 9.725952%)" fill-opacity="1">
<use xlink:href="#glyph-1-9" x="180.884648" y="128.646675"/>
</g>
<g fill="rgb(48.313904%, 33.253479%, 9.725952%)" fill-opacity="1">
<use xlink:href="#glyph-1-10" x="186.660606" y="128.646675"/>
<use xlink:href="#glyph-1-15" x="188.907352" y="128.646675"/>
</g>
<g fill="rgb(48.313904%, 33.253479%, 9.725952%)" fill-opacity="1">
<use xlink:href="#glyph-1-9" x="193.075712" y="128.646675"/>
<use xlink:href="#glyph-1-8" x="196.176972" y="128.646675"/>
<use xlink:href="#glyph-1-16" x="199.705489" y="128.646675"/>
</g>
<g fill="rgb(48.313904%, 33.253479%, 9.725952%)" fill-opacity="1">
<use xlink:href="#glyph-1-5" x="202.813697" y="128.646675"/>
</g>
<g fill="rgb(48.313904%, 33.253479%, 9.725952%)" fill-opacity="1">
<use xlink:href="#glyph-1-17" x="207.40584" y="128.646675"/>
<use xlink:href="#glyph-1-14" x="211.362309" y="128.646675"/>
<use xlink:href="#glyph-1-6" x="213.609055" y="128.646675"/>
<use xlink:href="#glyph-1-9" x="217.565524" y="128.646675"/>
<use xlink:href="#glyph-1-10" x="220.666784" y="128.646675"/>
<use xlink:href="#glyph-1-17" x="222.91353" y="128.646675"/>
<use xlink:href="#glyph-1-15" x="226.869999" y="128.646675"/>
</g>
<path fill-rule="nonzero" fill="rgb(100%, 100%, 100%)" fill-opacity="1" stroke-width="0.3985" stroke-linecap="butt" stroke-linejoin="miter" stroke="rgb(86.959839%, 78.529358%, 80.195618%)" stroke-opacity="1" stroke-miterlimit="10" d="M 250.561453 40.016155 L 180.309795 40.016155 C 179.207946 40.016155 178.317841 39.122128 178.317841 38.02028 L 178.317841 15.838229 C 178.317841 14.73638 179.207946 13.846275 180.309795 13.846275 L 250.561453 13.846275 C 251.65938 13.846275 252.553407 14.73638 252.553407 15.838229 L 252.553407 38.02028 C 252.553407 39.122128 251.65938 40.016155 250.561453 40.016155 Z M 250.561453 40.016155 " transform="matrix(0.996195, 0, 0, -0.996195, 54.134034, 190.55922)"/>
<g fill="rgb(63.48877%, 39.881897%, 44.549561%)" fill-opacity="1">
<use xlink:href="#glyph-0-5" x="252.951713" y="160.860644"/>
</g>
<g fill="rgb(63.48877%, 39.881897%, 44.549561%)" fill-opacity="1">
<use xlink:href="#glyph-3-1" x="261.484126" y="157.865085"/>
</g>
<g fill="rgb(63.48877%, 39.881897%, 44.549561%)" fill-opacity="1">
<use xlink:href="#glyph-3-1" x="260.416204" y="162.845065"/>
</g>
<g fill="rgb(63.48877%, 39.881897%, 44.549561%)" fill-opacity="1">
<use xlink:href="#glyph-1-18" x="265.357333" y="160.860644"/>
</g>
<g fill="rgb(63.48877%, 39.881897%, 44.549561%)" fill-opacity="1">
<use xlink:href="#glyph-0-2" x="268.458593" y="160.860644"/>
<use xlink:href="#glyph-0-6" x="273.284165" y="160.860644"/>
</g>
<g fill="rgb(63.48877%, 39.881897%, 44.549561%)" fill-opacity="1">
<use xlink:href="#glyph-0-3" x="276.99609" y="160.860644"/>
</g>
<g fill="rgb(63.48877%, 39.881897%, 44.549561%)" fill-opacity="1">
<use xlink:href="#glyph-1-19" x="281.440952" y="160.860644"/>
</g>
<g fill="rgb(63.48877%, 39.881897%, 44.549561%)" fill-opacity="1">
<use xlink:href="#glyph-1-0" x="235.740446" y="170.178059"/>
</g>
<g fill="rgb(63.48877%, 39.881897%, 44.549561%)" fill-opacity="1">
<use xlink:href="#glyph-5-0" x="244.092547" y="164.58243"/>
</g>
<g fill="rgb(63.48877%, 39.881897%, 44.549561%)" fill-opacity="1">
<use xlink:href="#glyph-3-0" x="249.440124" y="167.036059"/>
</g>
<g fill="rgb(63.48877%, 39.881897%, 44.549561%)" fill-opacity="1">
<use xlink:href="#glyph-3-2" x="247.944835" y="172.798053"/>
</g>
<g fill="rgb(63.48877%, 39.881897%, 44.549561%)" fill-opacity="1">
<use xlink:href="#glyph-5-0" x="253.314328" y="164.58243"/>
</g>
<g fill="rgb(63.48877%, 39.881897%, 44.549561%)" fill-opacity="1">
<use xlink:href="#glyph-6-0" x="260.017726" y="170.178059"/>
</g>
<g fill="rgb(63.48877%, 39.881897%, 44.549561%)" fill-opacity="1">
<use xlink:href="#glyph-0-7" x="262.374934" y="170.178059"/>
</g>
<g fill="rgb(63.48877%, 39.881897%, 44.549561%)" fill-opacity="1">
<use xlink:href="#glyph-4-1" x="266.344563" y="171.171266"/>
</g>
<g fill="rgb(63.48877%, 39.881897%, 44.549561%)" fill-opacity="1">
<use xlink:href="#glyph-6-0" x="269.637985" y="170.178059"/>
</g>
<g fill="rgb(63.48877%, 39.881897%, 44.549561%)" fill-opacity="1">
<use xlink:href="#glyph-3-1" x="271.994983" y="167.183496"/>
</g>
<g fill="rgb(63.48877%, 39.881897%, 44.549561%)" fill-opacity="1">
<use xlink:href="#glyph-0-4" x="275.868191" y="170.178059"/>
</g>
<g fill="rgb(63.48877%, 39.881897%, 44.549561%)" fill-opacity="1">
<use xlink:href="#glyph-4-1" x="279.986462" y="171.171266"/>
</g>
<g fill="rgb(63.48877%, 39.881897%, 44.549561%)" fill-opacity="1">
<use xlink:href="#glyph-0-8" x="284.635706" y="170.178059"/>
<use xlink:href="#glyph-0-9" x="288.767246" y="170.178059"/>
</g>
<g fill="rgb(63.48877%, 39.881897%, 44.549561%)" fill-opacity="1">
<use xlink:href="#glyph-0-8" x="294.622402" y="170.178059"/>
<use xlink:href="#glyph-0-0" x="298.753942" y="170.178059"/>
</g>
</svg>
