<?xml version="1.0" encoding="UTF-8"?>
<svg xmlns="http://www.w3.org/2000/svg" xmlns:xlink="http://www.w3.org/1999/xlink" width="339.487pt" height="228.021pt" viewBox="0 0 339.487 228.021">
<defs>
<g>
<g id="glyph-0-0">
<path d="M 1.703125 -2.734375 L 2.421875 -2.734375 C 2.546875 -2.734375 2.640625 -2.734375 2.640625 -2.890625 C 2.640625 -2.984375 2.546875 -2.984375 2.421875 -2.984375 L 1.765625 -2.984375 L 2.03125 -4.015625 C 2.03125 -4.046875 2.046875 -4.09375 2.046875 -4.109375 C 2.046875 -4.234375 1.953125 -4.34375 1.8125 -4.34375 C 1.640625 -4.34375 1.53125 -4.21875 1.484375 -4.03125 C 1.4375 -3.859375 1.53125 -4.203125 1.21875 -2.984375 L 0.515625 -2.984375 C 0.375 -2.984375 0.296875 -2.984375 0.296875 -2.84375 C 0.296875 -2.734375 0.375 -2.734375 0.5 -2.734375 L 1.15625 -2.734375 L 0.75 -1.109375 C 0.703125 -0.921875 0.640625 -0.6875 0.640625 -0.59375 C 0.640625 -0.1875 0.984375 0.0625 1.390625 0.0625 C 2.15625 0.0625 2.59375 -0.90625 2.59375 -0.984375 C 2.59375 -1.078125 2.5 -1.078125 2.484375 -1.078125 C 2.40625 -1.078125 2.390625 -1.0625 2.34375 -0.953125 C 2.140625 -0.515625 1.796875 -0.125 1.40625 -0.125 C 1.265625 -0.125 1.171875 -0.21875 1.171875 -0.46875 C 1.171875 -0.53125 1.1875 -0.6875 1.203125 -0.75 Z M 1.703125 -2.734375 "/>
</g>
<g id="glyph-0-1">
<path d="M 1.578125 -0.390625 C 1.578125 -0.640625 1.359375 -0.796875 1.171875 -0.796875 C 0.953125 -0.796875 0.78125 -0.609375 0.78125 -0.40625 C 0.78125 -0.15625 0.984375 0 1.171875 0 C 1.40625 0 1.578125 -0.1875 1.578125 -0.390625 Z M 1.578125 -0.390625 "/>
</g>
<g id="glyph-0-2">
<path d="M 0.375 1.109375 C 0.34375 1.21875 0.34375 1.25 0.34375 1.265625 C 0.34375 1.421875 0.46875 1.484375 0.578125 1.484375 C 0.828125 1.484375 0.890625 1.25 0.921875 1.140625 C 0.921875 1.109375 1.0625 0.546875 1.234375 -0.125 C 1.453125 0.015625 1.734375 0.0625 1.984375 0.0625 C 2.578125 0.0625 2.96875 -0.421875 2.96875 -0.4375 C 3.109375 0.046875 3.59375 0.0625 3.6875 0.0625 C 3.9375 0.0625 4.109375 -0.078125 4.234375 -0.296875 C 4.390625 -0.5625 4.484375 -0.96875 4.484375 -0.984375 C 4.484375 -1.078125 4.390625 -1.078125 4.375 -1.078125 C 4.28125 -1.078125 4.265625 -1.046875 4.21875 -0.875 C 4.140625 -0.53125 4 -0.125 3.71875 -0.125 C 3.53125 -0.125 3.484375 -0.28125 3.484375 -0.46875 C 3.484375 -0.578125 3.53125 -0.828125 3.59375 -1.015625 C 3.640625 -1.203125 3.703125 -1.484375 3.734375 -1.640625 L 3.90625 -2.25 C 3.9375 -2.421875 4.015625 -2.734375 4.015625 -2.765625 C 4.015625 -2.90625 3.90625 -2.984375 3.78125 -2.984375 C 3.71875 -2.984375 3.578125 -2.953125 3.5 -2.828125 C 3.484375 -2.78125 3.421875 -2.5625 3.390625 -2.421875 L 3.25 -1.84375 L 3.03125 -0.984375 C 2.984375 -0.8125 2.984375 -0.796875 2.921875 -0.703125 C 2.703125 -0.390625 2.40625 -0.125 2 -0.125 C 1.4375 -0.125 1.4375 -0.625 1.4375 -0.75 C 1.4375 -0.921875 1.453125 -1.015625 1.546875 -1.390625 C 1.625 -1.6875 1.640625 -1.734375 1.703125 -2.015625 L 1.796875 -2.40625 C 1.84375 -2.546875 1.90625 -2.8125 1.90625 -2.84375 C 1.90625 -2.96875 1.8125 -3.0625 1.671875 -3.0625 C 1.421875 -3.0625 1.359375 -2.8125 1.34375 -2.734375 Z M 0.375 1.109375 "/>
</g>
<g id="glyph-0-3">
<path d="M 1.734375 -2.859375 C 1.75 -2.890625 1.75 -2.921875 1.75 -2.96875 C 1.75 -2.96875 1.75 -3.0625 1.640625 -3.0625 C 1.640625 -3.0625 1.234375 -3.03125 1.1875 -3.03125 C 1.0625 -3.015625 0.9375 -3 0.8125 -2.984375 C 0.6875 -2.984375 0.609375 -2.96875 0.609375 -2.828125 C 0.609375 -2.734375 0.703125 -2.734375 0.796875 -2.734375 C 1.125 -2.734375 1.125 -2.6875 1.125 -2.625 C 1.125 -2.59375 1.09375 -2.453125 1.0625 -2.359375 L 0.71875 -0.953125 C 0.546875 -0.265625 0.5 -0.125 0.5 -0.09375 C 0.5 0 0.609375 0 0.640625 0 L 0.75 0 C 1.359375 -0.09375 2.25 -0.421875 2.984375 -1.078125 C 3.9375 -1.921875 4.078125 -2.828125 4.078125 -2.84375 C 4.078125 -2.96875 3.96875 -3.0625 3.84375 -3.0625 C 3.59375 -3.0625 3.546875 -2.859375 3.484375 -2.671875 C 3.203125 -1.6875 2.28125 -0.625 1.09375 -0.28125 Z M 1.734375 -2.859375 "/>
</g>
<g id="glyph-0-4">
<path d="M 0.375 1.109375 C 0.34375 1.21875 0.34375 1.25 0.34375 1.265625 C 0.34375 1.421875 0.46875 1.484375 0.578125 1.484375 C 0.828125 1.484375 0.890625 1.28125 0.9375 1.046875 C 1.03125 0.6875 1.234375 -0.09375 1.296875 -0.359375 C 1.359375 -0.25 1.578125 0.0625 2.0625 0.0625 C 2.953125 0.0625 3.890625 -0.875 3.890625 -1.890625 C 3.890625 -2.625 3.40625 -3.0625 2.78125 -3.0625 C 2.109375 -3.0625 1.265625 -2.46875 1.03125 -1.484375 Z M 2.046875 -0.125 C 1.546875 -0.125 1.390625 -0.640625 1.390625 -0.734375 C 1.390625 -0.75 1.421875 -0.890625 1.453125 -0.984375 C 1.65625 -1.828125 1.703125 -1.984375 1.90625 -2.296875 C 2.15625 -2.65625 2.5 -2.859375 2.78125 -2.859375 C 3.0625 -2.859375 3.328125 -2.65625 3.328125 -2.171875 C 3.328125 -1.84375 3.15625 -1.078125 2.9375 -0.734375 C 2.609375 -0.234375 2.265625 -0.125 2.046875 -0.125 Z M 2.046875 -0.125 "/>
</g>
<g id="glyph-0-5">
<path d="M 7.1875 -3.921875 L 7.3125 -4.09375 C 7.453125 -4.28125 7.625 -4.453125 7.96875 -4.484375 C 8.046875 -4.5 8.125 -4.5 8.125 -4.640625 C 8.125 -4.6875 8.078125 -4.734375 8.03125 -4.734375 C 7.859375 -4.734375 7.671875 -4.703125 7.5 -4.703125 C 7.25 -4.703125 6.953125 -4.734375 6.734375 -4.734375 C 6.6875 -4.734375 6.578125 -4.734375 6.578125 -4.578125 C 6.578125 -4.5 6.6875 -4.484375 6.703125 -4.484375 C 6.859375 -4.484375 7.09375 -4.4375 7.09375 -4.25 C 7.09375 -4.171875 7.015625 -4.046875 6.984375 -4 L 5.03125 -0.78125 L 4.640625 -4.28125 C 4.640625 -4.484375 5.046875 -4.484375 5.140625 -4.484375 C 5.21875 -4.484375 5.328125 -4.484375 5.328125 -4.640625 C 5.328125 -4.640625 5.3125 -4.734375 5.203125 -4.734375 C 5.078125 -4.734375 4.90625 -4.71875 4.765625 -4.71875 C 4.640625 -4.703125 4.453125 -4.703125 4.3125 -4.703125 C 4.15625 -4.703125 3.75 -4.734375 3.59375 -4.734375 C 3.546875 -4.734375 3.453125 -4.734375 3.453125 -4.578125 C 3.453125 -4.484375 3.53125 -4.484375 3.625 -4.484375 C 3.921875 -4.484375 3.96875 -4.4375 3.984375 -4.375 C 3.984375 -4.328125 4 -4.140625 4.03125 -3.921875 L 2.125 -0.78125 L 1.75 -4.1875 C 1.75 -4.21875 1.734375 -4.28125 1.734375 -4.28125 C 1.734375 -4.484375 2.171875 -4.484375 2.234375 -4.484375 C 2.3125 -4.484375 2.421875 -4.484375 2.421875 -4.640625 C 2.421875 -4.671875 2.390625 -4.734375 2.296875 -4.734375 C 2.109375 -4.734375 1.609375 -4.703125 1.40625 -4.703125 C 1.171875 -4.703125 0.890625 -4.734375 0.6875 -4.734375 C 0.609375 -4.734375 0.546875 -4.703125 0.546875 -4.59375 C 0.546875 -4.484375 0.625 -4.484375 0.734375 -4.484375 C 1.0625 -4.484375 1.0625 -4.453125 1.078125 -4.28125 L 1.546875 -0.046875 C 1.5625 0.09375 1.5625 0.140625 1.6875 0.140625 C 1.8125 0.140625 1.859375 0.078125 1.90625 0 L 4.0625 -3.5625 L 4.453125 -0.046875 C 4.453125 0.109375 4.5 0.140625 4.59375 0.140625 C 4.71875 0.140625 4.765625 0.078125 4.8125 0 Z M 7.1875 -3.921875 "/>
</g>
<g id="glyph-0-6">
<path d="M 1.46875 -0.109375 C 1.46875 0.265625 1.390625 0.71875 0.921875 1.15625 C 0.890625 1.1875 0.875 1.203125 0.875 1.234375 C 0.875 1.296875 0.921875 1.34375 0.96875 1.34375 C 1.0625 1.34375 1.65625 0.78125 1.65625 -0.046875 C 1.65625 -0.46875 1.484375 -0.796875 1.171875 -0.796875 C 0.9375 -0.796875 0.78125 -0.625 0.78125 -0.40625 C 0.78125 -0.1875 0.9375 0 1.171875 0 C 1.34375 0 1.453125 -0.109375 1.46875 -0.109375 Z M 1.46875 -0.109375 "/>
</g>
<g id="glyph-0-7">
<path d="M 3.703125 -2.515625 C 3.703125 -3.0625 3.375 -3.0625 3.359375 -3.0625 C 3.171875 -3.0625 2.984375 -2.875 2.984375 -2.703125 C 2.984375 -2.578125 3.046875 -2.53125 3.09375 -2.484375 C 3.21875 -2.390625 3.359375 -2.203125 3.359375 -1.921875 C 3.359375 -1.609375 2.90625 -0.125 2.078125 -0.125 C 1.515625 -0.125 1.515625 -0.625 1.515625 -0.75 C 1.515625 -1.0625 1.640625 -1.453125 1.890625 -2.09375 C 1.953125 -2.234375 1.984375 -2.34375 1.984375 -2.46875 C 1.984375 -2.828125 1.6875 -3.0625 1.328125 -3.0625 C 0.640625 -3.0625 0.328125 -2.109375 0.328125 -2 C 0.328125 -1.90625 0.421875 -1.90625 0.4375 -1.90625 C 0.546875 -1.90625 0.546875 -1.9375 0.5625 -2.015625 C 0.734375 -2.59375 1.03125 -2.859375 1.3125 -2.859375 C 1.421875 -2.859375 1.484375 -2.78125 1.484375 -2.625 C 1.484375 -2.46875 1.421875 -2.3125 1.359375 -2.15625 C 1.0625 -1.390625 0.984375 -1.09375 0.984375 -0.84375 C 0.984375 -0.15625 1.53125 0.0625 2.046875 0.0625 C 3.21875 0.0625 3.703125 -1.953125 3.703125 -2.515625 Z M 3.703125 -2.515625 "/>
</g>
<g id="glyph-0-8">
<path d="M 3.96875 -4.609375 C 3.96875 -4.625 3.984375 -4.703125 3.984375 -4.71875 C 3.984375 -4.75 3.96875 -4.8125 3.875 -4.8125 C 3.734375 -4.8125 3.15625 -4.765625 2.984375 -4.75 C 2.9375 -4.734375 2.84375 -4.734375 2.84375 -4.578125 C 2.84375 -4.484375 2.9375 -4.484375 3.015625 -4.484375 C 3.34375 -4.484375 3.34375 -4.4375 3.34375 -4.390625 C 3.34375 -4.34375 3.34375 -4.296875 3.328125 -4.234375 L 2.921875 -2.65625 C 2.78125 -2.875 2.546875 -3.0625 2.21875 -3.0625 C 1.328125 -3.0625 0.421875 -2.078125 0.421875 -1.078125 C 0.421875 -0.40625 0.875 0.0625 1.46875 0.0625 C 1.84375 0.0625 2.171875 -0.140625 2.453125 -0.421875 C 2.59375 0 2.984375 0.0625 3.171875 0.0625 C 3.421875 0.0625 3.59375 -0.078125 3.71875 -0.296875 C 3.875 -0.5625 3.96875 -0.96875 3.96875 -0.984375 C 3.96875 -1.078125 3.875 -1.078125 3.84375 -1.078125 C 3.75 -1.078125 3.75 -1.046875 3.703125 -0.875 C 3.609375 -0.53125 3.484375 -0.125 3.1875 -0.125 C 3.015625 -0.125 2.96875 -0.28125 2.96875 -0.46875 C 2.96875 -0.59375 2.96875 -0.65625 3 -0.75 Z M 2.484375 -0.875 C 2.4375 -0.671875 2.28125 -0.53125 2.125 -0.40625 C 2.0625 -0.34375 1.796875 -0.125 1.484375 -0.125 C 1.234375 -0.125 0.984375 -0.3125 0.984375 -0.796875 C 0.984375 -1.171875 1.1875 -1.921875 1.34375 -2.203125 C 1.671875 -2.765625 2.015625 -2.859375 2.21875 -2.859375 C 2.703125 -2.859375 2.828125 -2.34375 2.828125 -2.265625 C 2.828125 -2.234375 2.8125 -2.1875 2.8125 -2.171875 Z M 2.484375 -0.875 "/>
</g>
<g id="glyph-0-9">
<path d="M 1.734375 -0.734375 C 1.65625 -0.5 1.421875 -0.125 1.078125 -0.125 C 1.046875 -0.125 0.84375 -0.125 0.703125 -0.21875 C 0.984375 -0.3125 1 -0.5625 1 -0.609375 C 1 -0.75 0.890625 -0.859375 0.734375 -0.859375 C 0.53125 -0.859375 0.328125 -0.6875 0.328125 -0.4375 C 0.328125 -0.09375 0.71875 0.0625 1.0625 0.0625 C 1.375 0.0625 1.671875 -0.125 1.84375 -0.421875 C 2 -0.0625 2.390625 0.0625 2.65625 0.0625 C 3.46875 0.0625 3.890625 -0.796875 3.890625 -0.984375 C 3.890625 -1.078125 3.796875 -1.078125 3.78125 -1.078125 C 3.671875 -1.078125 3.671875 -1.046875 3.640625 -0.96875 C 3.5 -0.484375 3.078125 -0.125 2.6875 -0.125 C 2.421875 -0.125 2.265625 -0.3125 2.265625 -0.578125 C 2.265625 -0.75 2.4375 -1.390625 2.625 -2.15625 C 2.765625 -2.6875 3.078125 -2.859375 3.3125 -2.859375 C 3.328125 -2.859375 3.53125 -2.859375 3.6875 -2.765625 C 3.46875 -2.703125 3.375 -2.515625 3.375 -2.390625 C 3.375 -2.234375 3.5 -2.125 3.65625 -2.125 C 3.8125 -2.125 4.046875 -2.265625 4.046875 -2.546875 C 4.046875 -2.9375 3.59375 -3.0625 3.328125 -3.0625 C 2.96875 -3.0625 2.703125 -2.828125 2.546875 -2.5625 C 2.421875 -2.84375 2.109375 -3.0625 1.71875 -3.0625 C 0.9375 -3.0625 0.5 -2.203125 0.5 -2 C 0.5 -1.90625 0.59375 -1.90625 0.609375 -1.90625 C 0.703125 -1.90625 0.703125 -1.9375 0.75 -2.03125 C 0.921875 -2.5625 1.359375 -2.859375 1.6875 -2.859375 C 1.921875 -2.859375 2.109375 -2.734375 2.109375 -2.40625 C 2.109375 -2.265625 2.03125 -1.921875 1.96875 -1.6875 Z M 1.734375 -0.734375 "/>
</g>
<g id="glyph-1-0">
<path d="M 5.328125 -2.328125 C 5.4375 -2.328125 5.59375 -2.328125 5.59375 -2.5 C 5.59375 -2.671875 5.421875 -2.671875 5.328125 -2.671875 L 0.75 -2.671875 C 0.65625 -2.671875 0.484375 -2.671875 0.484375 -2.5 C 0.484375 -2.328125 0.640625 -2.328125 0.75 -2.328125 Z M 5.328125 -0.8125 C 5.421875 -0.8125 5.59375 -0.8125 5.59375 -0.96875 C 5.59375 -1.140625 5.4375 -1.140625 5.328125 -1.140625 L 0.75 -1.140625 C 0.640625 -1.140625 0.484375 -1.140625 0.484375 -0.96875 C 0.484375 -0.8125 0.65625 -0.8125 0.75 -0.8125 Z M 5.328125 -0.8125 "/>
</g>
<g id="glyph-1-1">
<path d="M 3.578125 -2.21875 C 3.578125 -2.96875 3.484375 -3.53125 3.171875 -4.015625 C 2.953125 -4.328125 2.53125 -4.609375 1.96875 -4.609375 C 0.359375 -4.609375 0.359375 -2.71875 0.359375 -2.21875 C 0.359375 -1.71875 0.359375 0.140625 1.96875 0.140625 C 3.578125 0.140625 3.578125 -1.71875 3.578125 -2.21875 Z M 1.96875 -0.0625 C 1.65625 -0.0625 1.234375 -0.25 1.09375 -0.8125 C 0.984375 -1.21875 0.984375 -1.796875 0.984375 -2.296875 C 0.984375 -2.8125 0.984375 -3.34375 1.09375 -3.71875 C 1.234375 -4.265625 1.6875 -4.40625 1.96875 -4.40625 C 2.34375 -4.40625 2.703125 -4.1875 2.828125 -3.78125 C 2.9375 -3.40625 2.953125 -2.90625 2.953125 -2.296875 C 2.953125 -1.796875 2.953125 -1.28125 2.859375 -0.84375 C 2.71875 -0.203125 2.25 -0.0625 1.96875 -0.0625 Z M 1.96875 -0.0625 "/>
</g>
<g id="glyph-1-2">
<path d="M 1.078125 -3.875 C 1.421875 -3.78125 1.640625 -3.78125 1.75 -3.78125 C 2.65625 -3.78125 3.203125 -4.40625 3.203125 -4.515625 C 3.203125 -4.578125 3.15625 -4.609375 3.125 -4.609375 C 3.109375 -4.609375 3.09375 -4.609375 3.0625 -4.578125 C 2.90625 -4.515625 2.53125 -4.390625 2.015625 -4.390625 C 1.828125 -4.390625 1.453125 -4.390625 1 -4.578125 C 0.9375 -4.609375 0.921875 -4.609375 0.921875 -4.609375 C 0.828125 -4.609375 0.828125 -4.53125 0.828125 -4.421875 L 0.828125 -2.375 C 0.828125 -2.25 0.828125 -2.171875 0.9375 -2.171875 C 1 -2.171875 1 -2.1875 1.078125 -2.265625 C 1.375 -2.65625 1.796875 -2.703125 2.046875 -2.703125 C 2.453125 -2.703125 2.640625 -2.375 2.671875 -2.3125 C 2.796875 -2.09375 2.84375 -1.828125 2.84375 -1.421875 C 2.84375 -1.21875 2.84375 -0.8125 2.640625 -0.5 C 2.46875 -0.25 2.171875 -0.078125 1.828125 -0.078125 C 1.375 -0.078125 0.90625 -0.328125 0.734375 -0.796875 C 1 -0.765625 1.125 -0.9375 1.125 -1.125 C 1.125 -1.421875 0.875 -1.484375 0.78125 -1.484375 C 0.765625 -1.484375 0.4375 -1.484375 0.4375 -1.109375 C 0.4375 -0.484375 1 0.140625 1.84375 0.140625 C 2.71875 0.140625 3.5 -0.515625 3.5 -1.390625 C 3.5 -2.171875 2.90625 -2.90625 2.046875 -2.90625 C 1.734375 -2.90625 1.375 -2.828125 1.078125 -2.5625 Z M 1.078125 -3.875 "/>
</g>
<g id="glyph-1-3">
<path d="M 2.328125 -4.40625 C 2.328125 -4.59375 2.3125 -4.609375 2.109375 -4.609375 C 1.671875 -4.171875 1.046875 -4.15625 0.75 -4.15625 L 0.75 -3.90625 C 0.921875 -3.90625 1.375 -3.90625 1.765625 -4.109375 L 1.765625 -0.5625 C 1.765625 -0.34375 1.765625 -0.25 1.0625 -0.25 L 0.8125 -0.25 L 0.8125 0 C 0.921875 0 1.78125 -0.03125 2.046875 -0.03125 C 2.25 -0.03125 3.125 0 3.28125 0 L 3.28125 -0.25 L 3.015625 -0.25 C 2.328125 -0.25 2.328125 -0.34375 2.328125 -0.5625 Z M 2.328125 -4.40625 "/>
</g>
<g id="glyph-1-4">
<path d="M 2.625 -2.90625 C 2.625 -3.03125 2.625 -3.09375 2.53125 -3.09375 C 2.5 -3.09375 2.484375 -3.09375 2.390625 -3.015625 C 2.375 -3 2.3125 -2.9375 2.265625 -2.90625 C 2.0625 -3.046875 1.796875 -3.09375 1.546875 -3.09375 C 0.546875 -3.09375 0.3125 -2.578125 0.3125 -2.234375 C 0.3125 -2 0.40625 -1.828125 0.578125 -1.6875 C 0.84375 -1.453125 1.109375 -1.40625 1.53125 -1.34375 C 1.875 -1.28125 2.4375 -1.171875 2.4375 -0.71875 C 2.4375 -0.4375 2.25 -0.125 1.59375 -0.125 C 0.921875 -0.125 0.6875 -0.5625 0.5625 -1.03125 C 0.53125 -1.125 0.53125 -1.15625 0.4375 -1.15625 C 0.3125 -1.15625 0.3125 -1.109375 0.3125 -0.96875 L 0.3125 -0.109375 C 0.3125 0 0.3125 0.0625 0.40625 0.0625 C 0.46875 0.0625 0.609375 -0.078125 0.75 -0.234375 C 1.046875 0.0625 1.421875 0.0625 1.59375 0.0625 C 2.484375 0.0625 2.828125 -0.421875 2.828125 -0.90625 C 2.828125 -1.171875 2.703125 -1.375 2.53125 -1.546875 C 2.265625 -1.796875 1.9375 -1.84375 1.703125 -1.890625 C 1.140625 -1.984375 0.6875 -2.0625 0.6875 -2.4375 C 0.6875 -2.65625 0.875 -2.921875 1.546875 -2.921875 C 2.34375 -2.921875 2.375 -2.359375 2.390625 -2.171875 C 2.40625 -2.09375 2.484375 -2.09375 2.515625 -2.09375 C 2.625 -2.09375 2.625 -2.140625 2.625 -2.265625 Z M 2.625 -2.90625 "/>
</g>
<g id="glyph-1-5">
<path d="M 1.921875 1.09375 C 1.484375 1.09375 1.40625 1.09375 1.40625 0.796875 L 1.40625 -0.328125 C 1.4375 -0.296875 1.765625 0.0625 2.359375 0.0625 C 3.265625 0.0625 4.046875 -0.625 4.046875 -1.5 C 4.046875 -2.359375 3.34375 -3.0625 2.46875 -3.0625 C 2.0625 -3.0625 1.671875 -2.90625 1.375 -2.640625 L 1.375 -3.0625 L 0.34375 -2.984375 L 0.34375 -2.734375 C 0.828125 -2.734375 0.859375 -2.703125 0.859375 -2.40625 L 0.859375 0.796875 C 0.859375 1.09375 0.796875 1.09375 0.34375 1.09375 L 0.34375 1.34375 C 0.359375 1.34375 0.84375 1.3125 1.125 1.3125 C 1.390625 1.3125 1.859375 1.34375 1.921875 1.34375 Z M 1.40625 -2.3125 C 1.609375 -2.65625 2.015625 -2.84375 2.390625 -2.84375 C 2.96875 -2.84375 3.421875 -2.234375 3.421875 -1.5 C 3.421875 -0.703125 2.90625 -0.125 2.3125 -0.125 C 1.703125 -0.125 1.421875 -0.65625 1.40625 -0.703125 Z M 1.40625 -2.3125 "/>
</g>
<g id="glyph-1-6">
<path d="M 3.09375 -1.859375 C 3.09375 -2.234375 3.09375 -2.484375 2.78125 -2.75 C 2.484375 -2.984375 2.15625 -3.09375 1.75 -3.09375 C 1.09375 -3.09375 0.625 -2.84375 0.625 -2.421875 C 0.625 -2.203125 0.78125 -2.078125 0.953125 -2.078125 C 1.140625 -2.078125 1.28125 -2.21875 1.28125 -2.40625 C 1.28125 -2.53125 1.234375 -2.671875 1.046875 -2.71875 C 1.296875 -2.90625 1.6875 -2.90625 1.734375 -2.90625 C 2.125 -2.90625 2.546875 -2.640625 2.546875 -2.0625 L 2.546875 -1.84375 C 2.171875 -1.828125 1.703125 -1.8125 1.203125 -1.625 C 0.578125 -1.390625 0.375 -1.015625 0.375 -0.703125 C 0.375 -0.109375 1.109375 0.0625 1.59375 0.0625 C 2.15625 0.0625 2.484375 -0.25 2.625 -0.515625 C 2.65625 -0.234375 2.84375 0.03125 3.15625 0.03125 C 3.171875 0.03125 3.84375 0.03125 3.84375 -0.625 L 3.84375 -1 L 3.609375 -1 L 3.609375 -0.625 C 3.609375 -0.5625 3.609375 -0.234375 3.34375 -0.234375 C 3.09375 -0.234375 3.09375 -0.5625 3.09375 -0.640625 Z M 2.546875 -0.984375 C 2.546875 -0.3125 1.96875 -0.125 1.65625 -0.125 C 1.296875 -0.125 0.96875 -0.359375 0.96875 -0.703125 C 0.96875 -1.078125 1.296875 -1.609375 2.546875 -1.671875 Z M 2.546875 -0.984375 "/>
</g>
<g id="glyph-1-7">
<path d="M 2.703125 -2.765625 C 2.578125 -2.71875 2.5 -2.609375 2.5 -2.46875 C 2.5 -2.28125 2.640625 -2.140625 2.828125 -2.140625 C 3.015625 -2.140625 3.15625 -2.25 3.15625 -2.484375 C 3.15625 -3.09375 2.203125 -3.09375 2 -3.09375 C 0.96875 -3.09375 0.3125 -2.296875 0.3125 -1.5 C 0.3125 -0.625 1.0625 0.0625 1.96875 0.0625 C 3 0.0625 3.25 -0.75 3.25 -0.828125 C 3.25 -0.921875 3.15625 -0.921875 3.125 -0.921875 C 3.03125 -0.921875 3.03125 -0.890625 3 -0.796875 C 2.84375 -0.375 2.484375 -0.15625 2.046875 -0.15625 C 1.578125 -0.15625 0.953125 -0.5 0.953125 -1.5 C 0.953125 -2.390625 1.375 -2.875 2.03125 -2.875 C 2.109375 -2.875 2.453125 -2.875 2.703125 -2.765625 Z M 2.703125 -2.765625 "/>
</g>
<g id="glyph-1-8">
<path d="M 3.046875 -1.578125 C 3.203125 -1.578125 3.25 -1.578125 3.25 -1.734375 C 3.25 -2.34375 2.90625 -3.09375 1.875 -3.09375 C 0.96875 -3.09375 0.265625 -2.375 0.265625 -1.515625 C 0.265625 -0.640625 1.046875 0.0625 1.96875 0.0625 C 2.90625 0.0625 3.25 -0.6875 3.25 -0.828125 C 3.25 -0.859375 3.234375 -0.921875 3.125 -0.921875 C 3.03125 -0.921875 3.03125 -0.890625 3 -0.8125 C 2.78125 -0.25 2.265625 -0.15625 2.015625 -0.15625 C 1.6875 -0.15625 1.375 -0.296875 1.171875 -0.5625 C 0.90625 -0.890625 0.90625 -1.3125 0.90625 -1.578125 Z M 0.90625 -1.765625 C 0.984375 -2.734375 1.609375 -2.90625 1.875 -2.90625 C 2.71875 -2.90625 2.75 -1.9375 2.765625 -1.765625 Z M 0.90625 -1.765625 "/>
</g>
<g id="glyph-1-9">
<path d="M 1.390625 -2.734375 L 2.484375 -2.734375 L 2.484375 -2.984375 L 1.390625 -2.984375 L 1.390625 -4.265625 L 1.15625 -4.265625 C 1.15625 -3.640625 0.875 -2.953125 0.203125 -2.9375 L 0.203125 -2.734375 L 0.84375 -2.734375 L 0.84375 -0.875 C 0.84375 -0.09375 1.421875 0.0625 1.8125 0.0625 C 2.28125 0.0625 2.609375 -0.328125 2.609375 -0.875 L 2.609375 -1.25 L 2.359375 -1.25 L 2.359375 -0.875 C 2.359375 -0.40625 2.140625 -0.15625 1.875 -0.15625 C 1.390625 -0.15625 1.390625 -0.734375 1.390625 -0.859375 Z M 1.390625 -2.734375 "/>
</g>
<g id="glyph-1-10">
<path d="M 1.46875 -4.28125 C 1.46875 -4.484375 1.296875 -4.671875 1.0625 -4.671875 C 0.859375 -4.671875 0.671875 -4.515625 0.671875 -4.28125 C 0.671875 -4.03125 0.875 -3.875 1.0625 -3.875 C 1.28125 -3.875 1.46875 -4.046875 1.46875 -4.28125 Z M 0.40625 -2.984375 L 0.40625 -2.734375 C 0.84375 -2.734375 0.90625 -2.6875 0.90625 -2.359375 L 0.90625 -0.546875 C 0.90625 -0.25 0.84375 -0.25 0.390625 -0.25 L 0.390625 0 C 0.40625 0 0.890625 -0.03125 1.171875 -0.03125 C 1.40625 -0.03125 1.65625 -0.015625 1.90625 0 L 1.90625 -0.25 C 1.5 -0.25 1.421875 -0.25 1.421875 -0.546875 L 1.421875 -3.0625 Z M 0.40625 -2.984375 "/>
</g>
<g id="glyph-1-11">
<path d="M 5.703125 -2.109375 C 5.703125 -2.703125 5.40625 -3.0625 4.65625 -3.0625 C 4.109375 -3.0625 3.734375 -2.765625 3.546875 -2.421875 C 3.40625 -2.90625 3.03125 -3.0625 2.53125 -3.0625 C 1.96875 -3.0625 1.59375 -2.75 1.40625 -2.390625 L 1.390625 -2.390625 L 1.390625 -3.0625 L 0.375 -2.984375 L 0.375 -2.734375 C 0.84375 -2.734375 0.890625 -2.6875 0.890625 -2.34375 L 0.890625 -0.546875 C 0.890625 -0.25 0.828125 -0.25 0.375 -0.25 L 0.375 0 C 0.390625 0 0.875 -0.03125 1.171875 -0.03125 C 1.421875 -0.03125 1.90625 0 1.96875 0 L 1.96875 -0.25 C 1.515625 -0.25 1.4375 -0.25 1.4375 -0.546875 L 1.4375 -1.796875 C 1.4375 -2.53125 2.015625 -2.859375 2.484375 -2.859375 C 2.96875 -2.859375 3.03125 -2.484375 3.03125 -2.125 L 3.03125 -0.546875 C 3.03125 -0.25 2.953125 -0.25 2.5 -0.25 L 2.5 0 C 2.515625 0 3 -0.03125 3.296875 -0.03125 C 3.546875 -0.03125 4.03125 0 4.09375 0 L 4.09375 -0.25 C 3.640625 -0.25 3.578125 -0.25 3.578125 -0.546875 L 3.578125 -1.796875 C 3.578125 -2.53125 4.15625 -2.859375 4.609375 -2.859375 C 5.09375 -2.859375 5.15625 -2.484375 5.15625 -2.125 L 5.15625 -0.546875 C 5.15625 -0.25 5.078125 -0.25 4.640625 -0.25 L 4.640625 0 C 4.640625 0 5.140625 -0.03125 5.421875 -0.03125 C 5.6875 -0.03125 6.15625 0 6.21875 0 L 6.21875 -0.25 C 5.765625 -0.25 5.703125 -0.25 5.703125 -0.546875 Z M 5.703125 -2.109375 "/>
</g>
<g id="glyph-1-12">
<path d="M 1.515625 -2.59375 C 1.515625 -2.828125 1.328125 -2.984375 1.125 -2.984375 C 0.875 -2.984375 0.71875 -2.796875 0.71875 -2.59375 C 0.71875 -2.359375 0.921875 -2.1875 1.109375 -2.1875 C 1.359375 -2.1875 1.515625 -2.390625 1.515625 -2.59375 Z M 1.515625 -0.390625 C 1.515625 -0.640625 1.328125 -0.796875 1.125 -0.796875 C 0.875 -0.796875 0.71875 -0.609375 0.71875 -0.40625 C 0.71875 -0.15625 0.921875 0 1.109375 0 C 1.359375 0 1.515625 -0.1875 1.515625 -0.390625 Z M 1.515625 -0.390625 "/>
</g>
<g id="glyph-1-13">
<path d="M 2.46875 -4.734375 L 2.46875 -4.484375 C 2.9375 -4.484375 2.984375 -4.4375 2.984375 -4.09375 L 2.984375 -2.65625 C 2.734375 -2.90625 2.40625 -3.0625 2.015625 -3.0625 C 1.09375 -3.0625 0.3125 -2.359375 0.3125 -1.484375 C 0.3125 -0.625 1.046875 0.0625 1.9375 0.0625 C 2.5 0.0625 2.84375 -0.234375 2.96875 -0.359375 L 2.96875 0.0625 L 4.03125 0 L 4.03125 -0.25 C 3.5625 -0.25 3.515625 -0.296875 3.515625 -0.640625 L 3.515625 -4.8125 Z M 2.96875 -0.734375 C 2.78125 -0.40625 2.421875 -0.125 1.984375 -0.125 C 1.59375 -0.125 1.3125 -0.359375 1.171875 -0.5625 C 1.03125 -0.765625 0.953125 -1.046875 0.953125 -1.484375 C 0.953125 -1.640625 0.953125 -2.171875 1.234375 -2.484375 C 1.515625 -2.796875 1.859375 -2.859375 2.046875 -2.859375 C 2.390625 -2.859375 2.6875 -2.71875 2.875 -2.46875 C 2.96875 -2.359375 2.96875 -2.34375 2.96875 -2.21875 Z M 2.96875 -0.734375 "/>
</g>
<g id="glyph-1-14">
<path d="M 1.421875 -4.8125 L 0.390625 -4.734375 L 0.390625 -4.484375 C 0.859375 -4.484375 0.90625 -4.4375 0.90625 -4.09375 L 0.90625 -0.546875 C 0.90625 -0.25 0.84375 -0.25 0.390625 -0.25 L 0.390625 0 C 0.40625 0 0.890625 -0.03125 1.171875 -0.03125 C 1.421875 -0.03125 1.6875 -0.015625 1.953125 0 L 1.953125 -0.25 C 1.5 -0.25 1.421875 -0.25 1.421875 -0.546875 Z M 1.421875 -4.8125 "/>
</g>
<g id="glyph-1-15">
<path d="M 3.578125 -2.109375 C 3.578125 -2.703125 3.28125 -3.0625 2.53125 -3.0625 C 1.96875 -3.0625 1.59375 -2.75 1.40625 -2.390625 L 1.390625 -2.390625 L 1.390625 -3.0625 L 0.375 -2.984375 L 0.375 -2.734375 C 0.84375 -2.734375 0.890625 -2.6875 0.890625 -2.34375 L 0.890625 -0.546875 C 0.890625 -0.25 0.828125 -0.25 0.375 -0.25 L 0.375 0 C 0.390625 0 0.875 -0.03125 1.171875 -0.03125 C 1.421875 -0.03125 1.90625 0 1.96875 0 L 1.96875 -0.25 C 1.515625 -0.25 1.4375 -0.25 1.4375 -0.546875 L 1.4375 -1.796875 C 1.4375 -2.53125 2.015625 -2.859375 2.484375 -2.859375 C 2.96875 -2.859375 3.03125 -2.484375 3.03125 -2.125 L 3.03125 -0.546875 C 3.03125 -0.25 2.953125 -0.25 2.5 -0.25 L 2.5 0 C 2.515625 0 3 -0.03125 3.296875 -0.03125 C 3.546875 -0.03125 4.03125 0 4.09375 0 L 4.09375 -0.25 C 3.640625 -0.25 3.578125 -0.25 3.578125 -0.546875 Z M 3.578125 -2.109375 "/>
</g>
<g id="glyph-1-16">
<path d="M 1.375 -1.578125 C 1.375 -2.171875 1.65625 -2.859375 2.3125 -2.859375 C 2.25 -2.8125 2.1875 -2.71875 2.1875 -2.609375 C 2.1875 -2.390625 2.375 -2.296875 2.5 -2.296875 C 2.671875 -2.296875 2.828125 -2.40625 2.828125 -2.609375 C 2.828125 -2.84375 2.609375 -3.0625 2.28125 -3.0625 C 1.921875 -3.0625 1.546875 -2.84375 1.34375 -2.3125 L 1.328125 -2.3125 L 1.328125 -3.0625 L 0.34375 -2.984375 L 0.34375 -2.734375 C 0.8125 -2.734375 0.859375 -2.6875 0.859375 -2.34375 L 0.859375 -0.546875 C 0.859375 -0.25 0.796875 -0.25 0.34375 -0.25 L 0.34375 0 C 0.375 0 0.84375 -0.03125 1.125 -0.03125 C 1.421875 -0.03125 1.734375 -0.015625 2.03125 0 L 2.03125 -0.25 L 1.890625 -0.25 C 1.375 -0.25 1.375 -0.328125 1.375 -0.5625 Z M 1.375 -1.578125 "/>
</g>
<g id="glyph-1-17">
<path d="M 3.671875 -1.484375 C 3.671875 -2.34375 2.921875 -3.09375 1.96875 -3.09375 C 1.015625 -3.09375 0.265625 -2.34375 0.265625 -1.484375 C 0.265625 -0.625 1.03125 0.0625 1.96875 0.0625 C 2.90625 0.0625 3.671875 -0.625 3.671875 -1.484375 Z M 1.96875 -0.15625 C 1.71875 -0.15625 1.34375 -0.234375 1.109375 -0.578125 C 0.921875 -0.859375 0.90625 -1.21875 0.90625 -1.546875 C 0.90625 -1.84375 0.90625 -2.25 1.15625 -2.546875 C 1.328125 -2.75 1.609375 -2.90625 1.96875 -2.90625 C 2.375 -2.90625 2.671875 -2.703125 2.828125 -2.484375 C 3.015625 -2.21875 3.03125 -1.875 3.03125 -1.546875 C 3.03125 -1.203125 3.015625 -0.84375 2.8125 -0.5625 C 2.625 -0.296875 2.3125 -0.15625 1.96875 -0.15625 Z M 1.96875 -0.15625 "/>
</g>
<g id="glyph-1-18">
<path d="M 2.46875 -5.203125 C 1.140625 -4.28125 0.796875 -2.796875 0.796875 -1.734375 C 0.796875 -0.765625 1.09375 0.75 2.46875 1.734375 C 2.515625 1.734375 2.609375 1.734375 2.609375 1.640625 C 2.609375 1.609375 2.578125 1.59375 2.53125 1.546875 C 1.609375 0.703125 1.265625 -0.46875 1.265625 -1.734375 C 1.265625 -3.609375 1.984375 -4.515625 2.546875 -5.03125 C 2.578125 -5.0625 2.609375 -5.078125 2.609375 -5.125 C 2.609375 -5.203125 2.515625 -5.203125 2.46875 -5.203125 Z M 2.46875 -5.203125 "/>
</g>
<g id="glyph-1-19">
<path d="M 0.625 -5.203125 C 0.578125 -5.203125 0.5 -5.203125 0.5 -5.125 C 0.5 -5.078125 0.515625 -5.0625 0.5625 -5.015625 C 1.15625 -4.46875 1.8125 -3.53125 1.8125 -1.734375 C 1.8125 -0.296875 1.359375 0.8125 0.625 1.484375 C 0.5 1.609375 0.5 1.609375 0.5 1.640625 C 0.5 1.671875 0.515625 1.734375 0.578125 1.734375 C 0.671875 1.734375 1.328125 1.265625 1.78125 0.40625 C 2.09375 -0.171875 2.296875 -0.921875 2.296875 -1.734375 C 2.296875 -2.71875 2 -4.234375 0.625 -5.203125 Z M 0.625 -5.203125 "/>
</g>
<g id="glyph-2-0">
<path d="M 5 -1.171875 L 2.8125 -5.890625 C 2.71875 -6.125 2.59375 -6.125 2.40625 -6.125 L 0.40625 -6.125 L 0.40625 -5.6875 L 1.359375 -5.6875 L 1.359375 -0.703125 C 1.359375 -0.5 1.359375 -0.484375 1.109375 -0.46875 C 0.890625 -0.4375 0.875 -0.4375 0.640625 -0.4375 L 0.40625 -0.4375 L 0.40625 0 C 0.984375 -0.03125 1.234375 -0.03125 1.609375 -0.03125 C 2 -0.03125 2.25 -0.03125 2.84375 0 L 2.84375 -0.4375 L 2.609375 -0.4375 C 2.359375 -0.4375 2.34375 -0.4375 2.125 -0.46875 C 1.875 -0.484375 1.875 -0.5 1.875 -0.703125 L 1.875 -5.5625 L 4.359375 -0.234375 C 4.390625 -0.15625 4.453125 0 4.65625 0 C 4.859375 0 4.921875 -0.140625 4.96875 -0.234375 L 7.5 -5.671875 L 7.5 -0.4375 L 6.546875 -0.4375 L 6.546875 0 C 6.859375 -0.03125 7.703125 -0.03125 8.0625 -0.03125 C 8.421875 -0.03125 9.28125 -0.03125 9.59375 0 L 9.59375 -0.4375 L 8.640625 -0.4375 L 8.640625 -5.6875 L 9.59375 -5.6875 L 9.59375 -6.125 L 7.609375 -6.125 C 7.421875 -6.125 7.3125 -6.125 7.203125 -5.890625 Z M 5 -1.171875 "/>
</g>
<g id="glyph-2-1">
<path d="M 4.3125 -2.65625 C 4.3125 -3.4375 3.671875 -4.046875 2.296875 -4.046875 C 1.796875 -4.046875 0.65625 -4.03125 0.65625 -3.203125 C 0.65625 -2.796875 0.953125 -2.609375 1.234375 -2.609375 C 1.53125 -2.609375 1.8125 -2.828125 1.8125 -3.1875 C 1.8125 -3.453125 1.65625 -3.609375 1.625 -3.625 C 1.71875 -3.65625 1.9375 -3.6875 2.265625 -3.6875 C 2.90625 -3.6875 3.28125 -3.359375 3.28125 -2.65625 L 3.28125 -2.375 C 1.796875 -2.375 0.296875 -1.984375 0.296875 -1 C 0.296875 -0.109375 1.40625 0.046875 2.046875 0.046875 C 2.734375 0.046875 3.1875 -0.234375 3.4375 -0.65625 C 3.4375 -0.421875 3.4375 0 4.390625 0 L 4.828125 0 C 5 0 5.125 0 5.125 -0.21875 C 5.125 -0.4375 4.984375 -0.4375 4.890625 -0.4375 C 4.3125 -0.453125 4.3125 -0.53125 4.3125 -0.75 Z M 3.28125 -1.234375 C 3.28125 -0.296875 2.234375 -0.296875 2.203125 -0.296875 C 1.75 -0.296875 1.375 -0.59375 1.375 -1 C 1.375 -1.296875 1.53125 -1.984375 3.28125 -2.0625 Z M 3.28125 -1.234375 "/>
</g>
<g id="glyph-2-2">
<path d="M 3.546875 -3.78125 C 3.546875 -3.9375 3.546875 -4.046875 3.359375 -4.046875 C 3.28125 -4.046875 3.125 -3.96875 2.96875 -3.875 C 2.6875 -4 2.34375 -4.046875 2.046875 -4.046875 C 1.765625 -4.046875 0.34375 -4.046875 0.34375 -2.859375 C 0.34375 -1.921875 1.515625 -1.734375 1.828125 -1.671875 C 2.5625 -1.546875 3.15625 -1.453125 3.15625 -0.953125 C 3.15625 -0.296875 2.3125 -0.296875 2.109375 -0.296875 C 1.65625 -0.296875 1.078125 -0.421875 0.828125 -1.234375 C 0.78125 -1.390625 0.765625 -1.421875 0.578125 -1.421875 C 0.34375 -1.421875 0.34375 -1.359375 0.34375 -1.15625 L 0.34375 -0.203125 C 0.34375 -0.046875 0.34375 0.046875 0.53125 0.046875 C 0.59375 0.046875 0.609375 0.046875 0.796875 -0.078125 L 1.046875 -0.21875 C 1.46875 0.046875 1.9375 0.046875 2.109375 0.046875 C 2.375 0.046875 3.8125 0.046875 3.8125 -1.25 C 3.8125 -1.703125 3.546875 -1.984375 3.390625 -2.125 C 2.984375 -2.46875 2.703125 -2.5 2 -2.625 C 1.5625 -2.6875 1.015625 -2.78125 1.015625 -3.1875 C 1.015625 -3.71875 1.84375 -3.71875 2.03125 -3.71875 C 3.03125 -3.71875 3.0625 -3.1875 3.09375 -2.953125 C 3.09375 -2.828125 3.21875 -2.828125 3.3125 -2.828125 C 3.53125 -2.828125 3.546875 -2.875 3.546875 -3.09375 Z M 3.546875 -3.78125 "/>
</g>
<g id="glyph-2-3">
<path d="M 7.953125 -2.71875 C 7.953125 -3.78125 7.3125 -4.015625 6.53125 -4.015625 C 5.609375 -4.015625 5.140625 -3.453125 4.984375 -3.171875 C 4.78125 -3.984375 4 -4.015625 3.609375 -4.015625 C 2.5 -4.015625 2.0625 -3.21875 2 -3.078125 L 1.984375 -3.078125 L 1.984375 -4.015625 L 0.453125 -3.9375 L 0.453125 -3.5 C 0.984375 -3.5 1.046875 -3.5 1.046875 -3.15625 L 1.046875 -0.4375 L 0.453125 -0.4375 L 0.453125 0 C 1.109375 -0.03125 1.21875 -0.03125 1.5625 -0.03125 C 1.9375 -0.03125 2.03125 -0.03125 2.703125 0 L 2.703125 -0.4375 L 2.09375 -0.4375 L 2.09375 -2.265625 C 2.09375 -3.25 2.921875 -3.65625 3.453125 -3.65625 C 3.796875 -3.65625 3.984375 -3.484375 3.984375 -2.796875 L 3.984375 -0.4375 L 3.375 -0.4375 L 3.375 0 C 4.03125 -0.03125 4.140625 -0.03125 4.5 -0.03125 C 4.859375 -0.03125 4.953125 -0.03125 5.625 0 L 5.625 -0.4375 L 5.015625 -0.4375 L 5.015625 -2.265625 C 5.015625 -3.25 5.84375 -3.65625 6.375 -3.65625 C 6.71875 -3.65625 6.90625 -3.484375 6.90625 -2.796875 L 6.90625 -0.4375 L 6.296875 -0.4375 L 6.296875 0 C 6.953125 -0.03125 7.0625 -0.03125 7.421875 -0.03125 C 7.78125 -0.03125 7.875 -0.03125 8.5625 0 L 8.5625 -0.4375 L 7.953125 -0.4375 Z M 7.953125 -2.71875 "/>
</g>
<g id="glyph-2-4">
<path d="M 4.984375 -1.9375 C 4.984375 -3.109375 4.15625 -4.046875 2.640625 -4.046875 C 1.078125 -4.046875 0.296875 -3.0625 0.296875 -1.9375 C 0.296875 -0.84375 1.09375 0.046875 2.625 0.046875 C 4.234375 0.046875 4.984375 -0.890625 4.984375 -1.9375 Z M 2.640625 -0.328125 C 1.484375 -0.328125 1.484375 -1.265625 1.484375 -2.046875 C 1.484375 -2.796875 1.484375 -3.6875 2.625 -3.6875 C 3.796875 -3.6875 3.796875 -2.796875 3.796875 -2.046875 C 3.796875 -1.28125 3.796875 -0.328125 2.640625 -0.328125 Z M 2.640625 -0.328125 "/>
</g>
<g id="glyph-2-5">
<path d="M 4.671875 -3.34375 C 4.734375 -3.46875 4.75 -3.53125 5.3125 -3.53125 L 5.3125 -3.96875 C 5.0625 -3.9375 4.84375 -3.9375 4.59375 -3.9375 C 4.34375 -3.9375 4.046875 -3.9375 3.796875 -3.96875 L 3.796875 -3.53125 C 4.046875 -3.53125 4.125 -3.484375 4.203125 -3.4375 C 4.1875 -3.40625 4.1875 -3.390625 4.15625 -3.3125 L 3.078125 -1.09375 L 1.90625 -3.53125 L 2.375 -3.53125 L 2.375 -3.96875 C 1.78125 -3.9375 1.609375 -3.9375 1.28125 -3.9375 C 0.953125 -3.9375 0.78125 -3.9375 0.25 -3.96875 L 0.25 -3.53125 L 0.8125 -3.53125 L 2.40625 -0.203125 C 2.484375 -0.03125 2.5625 0.046875 2.78125 0.046875 C 3 0.046875 3.078125 -0.03125 3.15625 -0.203125 Z M 4.671875 -3.34375 "/>
</g>
<g id="glyph-2-6">
<path d="M 4.25 -1.921875 C 4.4375 -1.921875 4.546875 -1.921875 4.546875 -2.171875 C 4.546875 -2.359375 4.515625 -3.15625 3.9375 -3.625 C 3.546875 -3.96875 3 -4.046875 2.5625 -4.046875 C 1.046875 -4.046875 0.296875 -3.078125 0.296875 -2 C 0.296875 -0.84375 1.171875 0.046875 2.6875 0.046875 C 4.171875 0.046875 4.546875 -0.890625 4.546875 -1.03125 C 4.546875 -1.21875 4.359375 -1.21875 4.3125 -1.21875 C 4.15625 -1.21875 4.125 -1.15625 4.078125 -1.03125 C 3.875 -0.578125 3.328125 -0.328125 2.765625 -0.328125 C 1.5 -0.328125 1.484375 -1.484375 1.484375 -1.921875 Z M 1.484375 -2.234375 C 1.5 -2.65625 1.546875 -3.6875 2.5625 -3.6875 C 3.609375 -3.6875 3.65625 -2.59375 3.671875 -2.234375 Z M 1.484375 -2.234375 "/>
</g>
<g id="glyph-2-7">
<path d="M 1.921875 -0.15625 C 1.875 0.5625 1.53125 1.0625 1.09375 1.40625 C 1.046875 1.4375 1.015625 1.46875 1.015625 1.53125 C 1.015625 1.625 1.109375 1.734375 1.203125 1.734375 C 1.34375 1.734375 2.28125 0.96875 2.28125 -0.28125 C 2.28125 -0.890625 1.96875 -1.40625 1.46875 -1.40625 C 1.015625 -1.40625 0.765625 -1.046875 0.765625 -0.703125 C 0.765625 -0.34375 1.015625 0 1.46875 0 C 1.65625 0 1.8125 -0.078125 1.921875 -0.15625 Z M 1.921875 -0.15625 "/>
</g>
<g id="glyph-2-8">
<path d="M 2.140625 -5.5 C 2.140625 -5.953125 1.765625 -6.203125 1.453125 -6.203125 C 1.03125 -6.203125 0.734375 -5.859375 0.734375 -5.5 C 0.734375 -5.125 1.046875 -4.796875 1.453125 -4.796875 C 1.78125 -4.796875 2.140625 -5.0625 2.140625 -5.5 Z M 0.484375 -3.9375 L 0.484375 -3.5 C 1.015625 -3.5 1.078125 -3.5 1.078125 -3.15625 L 1.078125 -0.4375 L 0.46875 -0.4375 L 0.46875 0 C 1.0625 -0.015625 1.171875 -0.03125 1.546875 -0.03125 C 1.984375 -0.03125 2.109375 -0.015625 2.609375 0 L 2.609375 -0.4375 L 2.0625 -0.4375 L 2.0625 -4.015625 Z M 0.484375 -3.9375 "/>
</g>
<g id="glyph-2-9">
<path d="M 1.984375 -3.53125 L 3.34375 -3.53125 L 3.34375 -3.96875 L 1.984375 -3.96875 L 1.984375 -5.671875 L 1.53125 -5.671875 C 1.53125 -4.828125 1.109375 -3.90625 0.203125 -3.875 L 0.203125 -3.53125 L 0.953125 -3.53125 L 0.953125 -1.09375 C 0.953125 -0.078125 1.828125 0.046875 2.375 0.046875 C 3.078125 0.046875 3.5 -0.453125 3.5 -1.09375 L 3.5 -1.5625 L 3.046875 -1.5625 L 3.046875 -1.125 C 3.046875 -0.484375 2.734375 -0.328125 2.5 -0.328125 C 1.984375 -0.328125 1.984375 -0.859375 1.984375 -1.078125 Z M 1.984375 -3.53125 "/>
</g>
<g id="glyph-2-10">
<path d="M 3.28125 -6.125 L 3.28125 -5.6875 C 3.8125 -5.6875 3.890625 -5.6875 3.890625 -5.328125 L 3.890625 -3.609375 C 3.5 -3.90625 3.078125 -4.015625 2.65625 -4.015625 C 1.203125 -4.015625 0.34375 -3.125 0.34375 -1.984375 C 0.34375 -0.796875 1.1875 0.046875 2.546875 0.046875 C 3.109375 0.046875 3.546875 -0.15625 3.84375 -0.390625 L 3.84375 0.046875 L 5.484375 0 L 5.484375 -0.4375 C 4.953125 -0.4375 4.875 -0.4375 4.875 -0.78125 L 4.875 -6.1875 Z M 3.84375 -0.96875 C 3.640625 -0.65625 3.21875 -0.296875 2.640625 -0.296875 C 1.53125 -0.296875 1.53125 -1.375 1.53125 -1.96875 C 1.53125 -2.484375 1.546875 -2.859375 1.78125 -3.1875 C 2 -3.546875 2.4375 -3.65625 2.75 -3.65625 C 3.1875 -3.65625 3.5625 -3.46875 3.84375 -3.109375 Z M 3.84375 -0.96875 "/>
</g>
<g id="glyph-2-11">
<path d="M 5.015625 -2.71875 C 5.015625 -3.78125 4.375 -4.015625 3.59375 -4.015625 C 2.5 -4.015625 2.0625 -3.21875 2 -3.078125 L 1.984375 -3.078125 L 1.984375 -4.015625 L 0.453125 -3.9375 L 0.453125 -3.5 C 0.984375 -3.5 1.046875 -3.5 1.046875 -3.15625 L 1.046875 -0.4375 L 0.453125 -0.4375 L 0.453125 0 C 1.109375 -0.03125 1.21875 -0.03125 1.5625 -0.03125 C 1.9375 -0.03125 2.03125 -0.03125 2.703125 0 L 2.703125 -0.4375 L 2.09375 -0.4375 L 2.09375 -2.265625 C 2.09375 -3.265625 2.921875 -3.65625 3.453125 -3.65625 C 3.796875 -3.65625 3.96875 -3.46875 3.96875 -2.796875 L 3.96875 -0.4375 L 3.359375 -0.4375 L 3.359375 0 C 4.03125 -0.03125 4.125 -0.03125 4.484375 -0.03125 C 4.859375 -0.03125 4.9375 -0.03125 5.625 0 L 5.625 -0.4375 L 5.015625 -0.4375 Z M 5.015625 -2.71875 "/>
</g>
<g id="glyph-2-12">
<path d="M 2.0625 -3.53125 L 3.125 -3.53125 L 3.125 -3.96875 L 2.015625 -3.96875 L 2.015625 -4.84375 C 2.015625 -5.8125 2.71875 -5.890625 2.9375 -5.890625 C 2.96875 -5.890625 3.046875 -5.890625 3.046875 -5.875 C 3.046875 -5.859375 3.046875 -5.859375 3.03125 -5.828125 C 2.9375 -5.71875 2.890625 -5.59375 2.890625 -5.453125 C 2.890625 -5.078125 3.1875 -4.875 3.453125 -4.875 C 3.75 -4.875 4.03125 -5.09375 4.03125 -5.453125 C 4.03125 -5.859375 3.671875 -6.25 2.984375 -6.25 C 2.046875 -6.25 1.078125 -5.84375 1.078125 -4.84375 L 1.078125 -3.96875 L 0.390625 -3.96875 L 0.390625 -3.53125 L 1.078125 -3.53125 L 1.078125 -0.4375 L 0.46875 -0.4375 L 0.46875 0 C 1.140625 -0.03125 1.1875 -0.03125 1.609375 -0.03125 C 1.84375 -0.03125 2.359375 -0.03125 2.828125 0 L 2.828125 -0.4375 L 2.0625 -0.4375 Z M 2.0625 -3.53125 "/>
</g>
<g id="glyph-3-0">
<path d="M 1.96875 -3.15625 C 1.96875 -3.296875 1.953125 -3.296875 1.796875 -3.296875 C 1.4375 -2.984375 0.890625 -2.984375 0.796875 -2.984375 L 0.703125 -2.984375 L 0.703125 -2.765625 L 0.796875 -2.765625 C 0.90625 -2.765625 1.234375 -2.78125 1.515625 -2.90625 L 1.515625 -0.421875 C 1.515625 -0.265625 1.515625 -0.21875 0.984375 -0.21875 L 0.75 -0.21875 L 0.75 0 C 1.015625 -0.015625 1.453125 -0.015625 1.75 -0.015625 C 2.03125 -0.015625 2.46875 -0.015625 2.75 0 L 2.75 -0.21875 L 2.5 -0.21875 C 1.96875 -0.21875 1.96875 -0.265625 1.96875 -0.421875 Z M 1.96875 -3.15625 "/>
</g>
<g id="glyph-3-1">
<path d="M 2.921875 -0.953125 L 2.703125 -0.953125 C 2.6875 -0.859375 2.640625 -0.5625 2.5625 -0.5 C 2.53125 -0.46875 2.109375 -0.46875 2.03125 -0.46875 L 1.0625 -0.46875 C 1.390625 -0.71875 1.765625 -1 2.0625 -1.1875 C 2.5 -1.5 2.921875 -1.78125 2.921875 -2.3125 C 2.921875 -2.953125 2.3125 -3.296875 1.609375 -3.296875 C 0.9375 -3.296875 0.453125 -2.90625 0.453125 -2.421875 C 0.453125 -2.171875 0.671875 -2.125 0.734375 -2.125 C 0.875 -2.125 1.03125 -2.21875 1.03125 -2.421875 C 1.03125 -2.59375 0.90625 -2.6875 0.75 -2.703125 C 0.890625 -2.9375 1.171875 -3.078125 1.5 -3.078125 C 1.984375 -3.078125 2.390625 -2.796875 2.390625 -2.3125 C 2.390625 -1.890625 2.09375 -1.578125 1.71875 -1.25 L 0.515625 -0.234375 C 0.453125 -0.1875 0.453125 -0.1875 0.453125 -0.15625 L 0.453125 0 L 2.75 0 Z M 2.921875 -0.953125 "/>
</g>
<g id="glyph-3-2">
<path d="M 2.984375 -1.578125 C 2.984375 -1.9375 2.984375 -3.296875 1.6875 -3.296875 C 0.390625 -3.296875 0.390625 -1.9375 0.390625 -1.578125 C 0.390625 -1.21875 0.390625 0.109375 1.6875 0.109375 C 2.984375 0.109375 2.984375 -1.21875 2.984375 -1.578125 Z M 1.6875 -0.046875 C 1.5 -0.046875 1.078125 -0.125 0.953125 -0.625 C 0.890625 -0.890625 0.890625 -1.234375 0.890625 -1.640625 C 0.890625 -2.015625 0.890625 -2.359375 0.96875 -2.640625 C 1.09375 -3.046875 1.46875 -3.140625 1.6875 -3.140625 C 2.046875 -3.140625 2.3125 -2.953125 2.40625 -2.59375 C 2.484375 -2.34375 2.484375 -1.9375 2.484375 -1.640625 C 2.484375 -1.3125 2.484375 -0.90625 2.40625 -0.609375 C 2.28125 -0.125 1.875 -0.046875 1.6875 -0.046875 Z M 1.6875 -0.046875 "/>
</g>
<g id="glyph-4-0">
<path d="M 2.984375 -3.46875 C 3.03125 -3.546875 3.03125 -3.5625 3.03125 -3.578125 C 3.03125 -3.65625 2.96875 -3.71875 2.890625 -3.71875 C 2.8125 -3.71875 2.765625 -3.65625 2.734375 -3.59375 L 0.65625 0.984375 C 0.625 1.0625 0.625 1.078125 0.625 1.09375 C 0.625 1.171875 0.6875 1.234375 0.765625 1.234375 C 0.84375 1.234375 0.875 1.1875 0.90625 1.109375 Z M 2.984375 -3.46875 "/>
</g>
<g id="glyph-4-1">
<path d="M 1.5625 -1.90625 L 2.140625 -1.90625 C 2.25 -1.90625 2.25 -1.921875 2.28125 -1.9375 C 2.296875 -1.953125 2.3125 -2.015625 2.3125 -2.046875 C 2.3125 -2.140625 2.234375 -2.140625 2.15625 -2.140625 L 1.609375 -2.140625 L 1.71875 -2.546875 C 1.75 -2.671875 1.796875 -2.890625 1.796875 -2.921875 C 1.796875 -3.015625 1.734375 -3.09375 1.625 -3.09375 C 1.53125 -3.09375 1.421875 -3.046875 1.375 -2.90625 C 1.359375 -2.828125 1.40625 -3.0625 1.171875 -2.140625 L 0.59375 -2.140625 C 0.484375 -2.140625 0.421875 -2.140625 0.421875 -2 C 0.421875 -1.90625 0.484375 -1.90625 0.578125 -1.90625 L 1.125 -1.90625 L 0.828125 -0.75 C 0.8125 -0.640625 0.765625 -0.484375 0.765625 -0.421875 C 0.765625 -0.140625 1.03125 0.046875 1.375 0.046875 C 1.96875 0.046875 2.34375 -0.609375 2.34375 -0.71875 C 2.34375 -0.78125 2.265625 -0.78125 2.234375 -0.78125 C 2.15625 -0.78125 2.15625 -0.765625 2.125 -0.703125 C 1.96875 -0.34375 1.65625 -0.109375 1.390625 -0.109375 C 1.234375 -0.109375 1.1875 -0.234375 1.1875 -0.375 C 1.1875 -0.453125 1.1875 -0.46875 1.203125 -0.515625 Z M 1.5625 -1.90625 "/>
</g>
<g id="glyph-5-0">
<path d="M 4.421875 0.359375 C 4.375 0.375 4.171875 0.4375 4.171875 0.671875 C 4.171875 0.890625 4.34375 0.984375 4.484375 0.984375 C 4.625 0.984375 4.796875 0.890625 4.796875 0.65625 C 4.796875 0.28125 4.40625 0 3.953125 0 C 3.40625 0 2.921875 0.40625 2.703125 1.28125 C 2.625 1.5625 2.359375 3.609375 2.21875 5.1875 C 2.203125 5.359375 2.171875 5.796875 2.125 6.171875 C 2.046875 6.9375 1.890625 7.515625 1.375 7.515625 C 1.25 7.515625 1.0625 7.46875 0.921875 7.359375 C 0.953125 7.34375 1.171875 7.265625 1.171875 7.046875 C 1.171875 6.8125 0.984375 6.71875 0.859375 6.71875 C 0.703125 6.71875 0.53125 6.8125 0.53125 7.046875 C 0.53125 7.421875 0.921875 7.703125 1.390625 7.703125 C 1.9375 7.703125 2.40625 7.296875 2.625 6.421875 C 2.703125 6.140625 2.984375 4.09375 3.109375 2.53125 C 3.125 2.359375 3.15625 1.921875 3.203125 1.546875 C 3.296875 0.765625 3.4375 0.1875 3.953125 0.1875 C 4.09375 0.1875 4.28125 0.234375 4.421875 0.359375 Z M 4.421875 0.359375 "/>
</g>
<g id="glyph-6-0">
<path d="M 1.34375 -4.9375 C 1.34375 -5.03125 1.34375 -5.203125 1.171875 -5.203125 C 1 -5.203125 1 -5.046875 1 -4.9375 L 1 1.46875 C 1 1.5625 1 1.734375 1.171875 1.734375 C 1.34375 1.734375 1.34375 1.578125 1.34375 1.46875 Z M 1.34375 -4.9375 "/>
</g>
</g>
</defs>
<path fill="none" stroke-width="0.3985" stroke-linecap="butt" stroke-linejoin="miter" stroke="rgb(84.999084%, 84.999084%, 84.999084%)" stroke-opacity="1" stroke-miterlimit="10" d="M -45.778872 140.031307 L -45.778872 183.121773 L 45.780524 183.121773 L 45.780524 140.031307 Z M -45.778872 140.031307 " transform="matrix(0.995725, 0, 0, -0.995725, 54.188631, 204.249064)"/>
<path fill-rule="nonzero" fill="rgb(71.311951%, 52.764893%, 56.43158%)" fill-opacity="0.85" d="M 11.285156 59.742188 L 13.035156 59.207031 L 14.789062 58.460938 L 16.539062 57.453125 L 18.289062 56.132812 L 20.039062 54.445312 L 21.789062 52.375 L 23.542969 49.910156 L 25.292969 47.078125 L 27.042969 43.945312 L 28.792969 40.621094 L 30.542969 37.25 L 32.292969 34.007812 L 34.046875 31.09375 L 35.796875 28.691406 L 37.546875 26.96875 L 39.296875 26.058594 L 41.046875 26.019531 L 42.800781 26.863281 L 44.550781 28.519531 L 46.300781 30.875 L 48.050781 33.753906 L 49.800781 36.976562 L 51.554688 40.34375 L 53.304688 43.675781 L 55.054688 46.832031 L 56.804688 49.691406 L 58.554688 52.1875 L 60.308594 54.289062 L 62.058594 56.003906 L 63.808594 57.355469 L 65.558594 58.390625 L 67.308594 59.15625 L 69.0625 59.707031 L 70.8125 60.089844 L 72.5625 60.347656 L 74.3125 60.519531 L 76.0625 60.628906 L 77.816406 60.695312 L 79.566406 60.738281 L 81.316406 60.761719 L 83.066406 60.777344 L 84.816406 60.785156 L 86.570312 60.789062 L 88.320312 60.792969 L 97.089844 60.792969 L 11.285156 60.792969 Z M 11.285156 59.742188 "/>
<g fill="rgb(69.999695%, 69.999695%, 69.999695%)" fill-opacity="1">
<use xlink:href="#glyph-0-0" x="45.409324" y="75.097571"/>
</g>
<g fill="rgb(69.999695%, 69.999695%, 69.999695%)" fill-opacity="1">
<use xlink:href="#glyph-1-0" x="50.663144" y="75.097571"/>
</g>
<g fill="rgb(69.999695%, 69.999695%, 69.999695%)" fill-opacity="1">
<use xlink:href="#glyph-1-1" x="59.009816" y="75.097571"/>
</g>
<path fill="none" stroke-width="0.3985" stroke-linecap="butt" stroke-linejoin="miter" stroke="rgb(84.999084%, 84.999084%, 84.999084%)" stroke-opacity="1" stroke-miterlimit="10" d="M 70.016949 140.031307 L 70.016949 183.121773 L 161.576345 183.121773 L 161.576345 140.031307 Z M 70.016949 140.031307 " transform="matrix(0.995725, 0, 0, -0.995725, 54.188631, 204.249064)"/>
<path fill-rule="nonzero" fill="rgb(71.311951%, 52.764893%, 56.43158%)" fill-opacity="0.85" d="M 126.585938 60.792969 L 128.335938 60.785156 L 130.089844 60.78125 L 131.839844 60.769531 L 133.589844 60.75 L 135.339844 60.71875 L 137.089844 60.660156 L 138.84375 60.570312 L 140.59375 60.429688 L 142.34375 60.210938 L 144.09375 59.882812 L 145.84375 59.410156 L 147.597656 58.738281 L 149.347656 57.824219 L 151.097656 56.617188 L 152.847656 55.058594 L 154.597656 53.117188 L 156.351562 50.785156 L 158.101562 48.074219 L 159.851562 45.035156 L 161.601562 41.757812 L 163.351562 38.382812 L 165.105469 35.078125 L 166.855469 32.03125 L 168.605469 29.433594 L 170.355469 27.46875 L 172.105469 26.273438 L 173.859375 25.933594 L 175.609375 26.484375 L 177.359375 27.875 L 179.109375 30.007812 L 180.859375 32.730469 L 182.613281 35.859375 L 184.363281 39.199219 L 186.113281 42.566406 L 187.863281 45.792969 L 189.613281 48.761719 L 191.367188 51.386719 L 193.117188 53.625 L 194.867188 55.46875 L 196.617188 56.9375 L 198.367188 58.074219 L 200.121094 58.921875 L 201.871094 59.539062 L 203.621094 59.972656 L 205.371094 60.269531 L 207.121094 60.46875 L 208.871094 60.597656 L 210.625 60.675781 L 212.375 60.726562 L 212.394531 60.792969 Z M 126.585938 60.792969 "/>
<g fill="rgb(69.999695%, 69.999695%, 69.999695%)" fill-opacity="1">
<use xlink:href="#glyph-0-0" x="157.554832" y="75.097571"/>
</g>
<g fill="rgb(69.999695%, 69.999695%, 69.999695%)" fill-opacity="1">
<use xlink:href="#glyph-1-0" x="162.808652" y="75.097571"/>
</g>
<g fill="rgb(69.999695%, 69.999695%, 69.999695%)" fill-opacity="1">
<use xlink:href="#glyph-1-1" x="171.155323" y="75.097571"/>
</g>
<g fill="rgb(69.999695%, 69.999695%, 69.999695%)" fill-opacity="1">
<use xlink:href="#glyph-0-1" x="175.109923" y="75.097571"/>
</g>
<g fill="rgb(69.999695%, 69.999695%, 69.999695%)" fill-opacity="1">
<use xlink:href="#glyph-1-2" x="177.466018" y="75.097571"/>
</g>
<path fill="none" stroke-width="0.3985" stroke-linecap="butt" stroke-linejoin="miter" stroke="rgb(84.999084%, 84.999084%, 84.999084%)" stroke-opacity="1" stroke-miterlimit="10" d="M 185.81277 140.031307 L 185.81277 183.121773 L 277.372166 183.121773 L 277.372166 140.031307 Z M 185.81277 140.031307 " transform="matrix(0.995725, 0, 0, -0.995725, 54.188631, 204.249064)"/>
<path fill-rule="nonzero" fill="rgb(71.311951%, 52.764893%, 56.43158%)" fill-opacity="0.85" d="M 241.886719 60.792969 L 259.394531 60.792969 L 261.148438 60.789062 L 264.648438 60.773438 L 266.398438 60.757812 L 268.148438 60.730469 L 269.902344 60.683594 L 271.652344 60.605469 L 273.402344 60.484375 L 275.152344 60.292969 L 276.902344 60.007812 L 278.65625 59.585938 L 280.40625 58.992188 L 282.15625 58.167969 L 283.90625 57.0625 L 285.65625 55.625 L 287.410156 53.820312 L 289.160156 51.621094 L 290.910156 49.03125 L 292.660156 46.09375 L 294.410156 42.886719 L 296.164062 39.527344 L 297.914062 36.175781 L 299.664062 33.019531 L 301.414062 30.25 L 303.164062 28.050781 L 304.914062 26.582031 L 306.667969 25.945312 L 308.417969 26.199219 L 310.167969 27.316406 L 311.917969 29.214844 L 313.667969 31.757812 L 315.421875 34.769531 L 317.171875 38.058594 L 318.921875 41.433594 L 320.671875 44.726562 L 322.421875 47.792969 L 324.175781 50.542969 L 325.925781 52.914062 L 327.675781 54.890625 L 327.695312 60.792969 Z M 241.886719 60.792969 "/>
<g fill="rgb(69.999695%, 69.999695%, 69.999695%)" fill-opacity="1">
<use xlink:href="#glyph-0-0" x="276.009252" y="75.097571"/>
</g>
<g fill="rgb(69.999695%, 69.999695%, 69.999695%)" fill-opacity="1">
<use xlink:href="#glyph-1-0" x="281.263072" y="75.097571"/>
</g>
<g fill="rgb(69.999695%, 69.999695%, 69.999695%)" fill-opacity="1">
<use xlink:href="#glyph-1-3" x="289.609743" y="75.097571"/>
</g>
<path fill="none" stroke-width="0.89664" stroke-linecap="butt" stroke-linejoin="miter" stroke="rgb(48.313904%, 33.253479%, 9.725952%)" stroke-opacity="1" stroke-miterlimit="10" d="M 52.512428 162.922136 L 72.378608 162.922136 " transform="matrix(0.995725, 0, 0, -0.995725, 54.188631, 204.249064)"/>
<path fill-rule="nonzero" fill="rgb(48.313904%, 33.253479%, 9.725952%)" fill-opacity="1" stroke-width="0.89664" stroke-linecap="butt" stroke-linejoin="miter" stroke="rgb(48.313904%, 33.253479%, 9.725952%)" stroke-opacity="1" stroke-miterlimit="10" d="M 5.748712 -0.000683624 L 1.449081 1.62737 L 2.87706 -0.000683624 L 1.449081 -1.628737 Z M 5.748712 -0.000683624 " transform="matrix(0.995725, 0, 0, -0.995725, 123.615708, 42.022757)"/>
<path fill="none" stroke-width="0.89664" stroke-linecap="butt" stroke-linejoin="miter" stroke="rgb(48.313904%, 33.253479%, 9.725952%)" stroke-opacity="1" stroke-miterlimit="10" d="M 168.308249 162.922136 L 188.174429 162.922136 " transform="matrix(0.995725, 0, 0, -0.995725, 54.188631, 204.249064)"/>
<path fill-rule="nonzero" fill="rgb(48.313904%, 33.253479%, 9.725952%)" fill-opacity="1" stroke-width="0.89664" stroke-linecap="butt" stroke-linejoin="miter" stroke="rgb(48.313904%, 33.253479%, 9.725952%)" stroke-opacity="1" stroke-miterlimit="10" d="M 5.748513 -0.000683624 L 1.448882 1.62737 L 2.876862 -0.000683624 L 1.448882 -1.628737 Z M 5.748513 -0.000683624 " transform="matrix(0.995725, 0, 0, -0.995725, 238.916687, 42.022757)"/>
<g fill="rgb(47.840881%, 14.118958%, 20.783997%)" fill-opacity="1">
<use xlink:href="#glyph-2-0" x="102.508172" y="17.443109"/>
<use xlink:href="#glyph-2-1" x="112.521893" y="17.443109"/>
<use xlink:href="#glyph-2-2" x="117.657318" y="17.443109"/>
<use xlink:href="#glyph-2-2" x="121.82494" y="17.443109"/>
</g>
<g fill="rgb(47.840881%, 14.118958%, 20.783997%)" fill-opacity="1">
<use xlink:href="#glyph-2-3" x="129.51022" y="17.443109"/>
<use xlink:href="#glyph-2-4" x="138.314188" y="17.443109"/>
</g>
<g fill="rgb(47.840881%, 14.118958%, 20.783997%)" fill-opacity="1">
<use xlink:href="#glyph-2-5" x="143.302299" y="17.443109"/>
</g>
<g fill="rgb(47.840881%, 14.118958%, 20.783997%)" fill-opacity="1">
<use xlink:href="#glyph-2-6" x="148.592179" y="17.443109"/>
<use xlink:href="#glyph-2-2" x="153.44012" y="17.443109"/>
<use xlink:href="#glyph-2-7" x="157.607742" y="17.443109"/>
</g>
<g fill="rgb(47.840881%, 14.118958%, 20.783997%)" fill-opacity="1">
<use xlink:href="#glyph-2-8" x="164.060057" y="17.443109"/>
<use xlink:href="#glyph-2-9" x="166.994712" y="17.443109"/>
</g>
<g fill="rgb(47.840881%, 14.118958%, 20.783997%)" fill-opacity="1">
<use xlink:href="#glyph-2-10" x="174.621068" y="17.443109"/>
<use xlink:href="#glyph-2-4" x="180.490379" y="17.443109"/>
</g>
<g fill="rgb(47.840881%, 14.118958%, 20.783997%)" fill-opacity="1">
<use xlink:href="#glyph-2-6" x="186.067743" y="17.443109"/>
<use xlink:href="#glyph-2-2" x="190.915684" y="17.443109"/>
</g>
<g fill="rgb(47.840881%, 14.118958%, 20.783997%)" fill-opacity="1">
<use xlink:href="#glyph-2-11" x="198.609893" y="17.443109"/>
<use xlink:href="#glyph-2-4" x="204.479204" y="17.443109"/>
<use xlink:href="#glyph-2-9" x="209.761942" y="17.443109"/>
</g>
<g fill="rgb(47.840881%, 14.118958%, 20.783997%)" fill-opacity="1">
<use xlink:href="#glyph-2-12" x="217.388297" y="17.443109"/>
<use xlink:href="#glyph-2-1" x="220.616687" y="17.443109"/>
<use xlink:href="#glyph-2-10" x="225.752111" y="17.443109"/>
<use xlink:href="#glyph-2-6" x="231.621423" y="17.443109"/>
</g>
<path fill="none" stroke-width="0.79701" stroke-linecap="butt" stroke-linejoin="miter" stroke="rgb(75%, 75%, 75%)" stroke-opacity="1" stroke-miterlimit="10" d="M -0.00113555 -0.000940063 L 238.25572 -0.000940063 " transform="matrix(0.995725, 0, 0, -0.995725, 54.188631, 204.249064)"/>
<path fill-rule="nonzero" fill="rgb(75%, 75%, 75%)" fill-opacity="1" stroke-width="0.79701" stroke-linecap="butt" stroke-linejoin="miter" stroke="rgb(75%, 75%, 75%)" stroke-opacity="1" stroke-miterlimit="10" d="M 5.44037 -0.000940063 L 1.28589 1.572191 L 2.662871 -0.000940063 L 1.28589 -1.570149 Z M 5.44037 -0.000940063 " transform="matrix(0.995725, 0, 0, -0.995725, 288.969607, 204.249064)"/>
<g fill="rgb(75%, 75%, 75%)" fill-opacity="1">
<use xlink:href="#glyph-1-4" x="299.216612" y="205.068546"/>
<use xlink:href="#glyph-1-5" x="302.35946" y="205.068546"/>
<use xlink:href="#glyph-1-6" x="306.741115" y="205.068546"/>
<use xlink:href="#glyph-1-7" x="310.695715" y="205.068546"/>
<use xlink:href="#glyph-1-8" x="314.222566" y="205.068546"/>
</g>
<path fill="none" stroke-width="0.79701" stroke-linecap="butt" stroke-linejoin="miter" stroke="rgb(75%, 75%, 75%)" stroke-opacity="1" stroke-miterlimit="10" d="M -0.00113555 -0.000940063 L -0.00113555 114.37867 " transform="matrix(0.995725, 0, 0, -0.995725, 54.188631, 204.249064)"/>
<path fill-rule="nonzero" fill="rgb(75%, 75%, 75%)" fill-opacity="1" stroke-width="0.79701" stroke-linecap="butt" stroke-linejoin="miter" stroke="rgb(75%, 75%, 75%)" stroke-opacity="1" stroke-miterlimit="10" d="M 5.43864 0.00113555 L 1.288084 1.570344 L 2.665064 0.00113555 L 1.288084 -1.571996 Z M 5.43864 0.00113555 " transform="matrix(0, -0.995725, -0.995725, 0, 54.188631, 92.813827)"/>
<g fill="rgb(75%, 75%, 75%)" fill-opacity="1">
<use xlink:href="#glyph-1-9" x="46.493669" y="82.564512"/>
<use xlink:href="#glyph-1-10" x="49.593464" y="82.564512"/>
<use xlink:href="#glyph-1-11" x="51.839149" y="82.564512"/>
<use xlink:href="#glyph-1-8" x="58.35608" y="82.564512"/>
</g>
<path fill="none" stroke-width="0.79701" stroke-linecap="butt" stroke-linejoin="miter" stroke="rgb(71.311951%, 52.764893%, 56.43158%)" stroke-opacity="1" stroke-miterlimit="10" d="M 26.930406 -0.000940063 L 94.253375 107.71738 " transform="matrix(0.995725, 0, 0, -0.995725, 54.188631, 204.249064)"/>
<path fill="none" stroke-width="0.79701" stroke-linecap="butt" stroke-linejoin="miter" stroke="rgb(71.311951%, 52.764893%, 56.43158%)" stroke-opacity="1" stroke-miterlimit="10" d="M 43.085408 -0.000940063 L 123.876109 107.71738 " transform="matrix(0.995725, 0, 0, -0.995725, 54.188631, 204.249064)"/>
<path fill="none" stroke-width="0.79701" stroke-linecap="butt" stroke-linejoin="miter" stroke="rgb(71.311951%, 52.764893%, 56.43158%)" stroke-opacity="1" stroke-miterlimit="10" d="M 59.244333 -0.000940063 L 153.498844 107.71738 " transform="matrix(0.995725, 0, 0, -0.995725, 54.188631, 204.249064)"/>
<path fill="none" stroke-width="0.79701" stroke-linecap="butt" stroke-linejoin="miter" stroke="rgb(71.311951%, 52.764893%, 56.43158%)" stroke-opacity="1" stroke-miterlimit="10" d="M 75.403258 -0.000940063 L 175.040154 107.71738 " transform="matrix(0.995725, 0, 0, -0.995725, 54.188631, 204.249064)"/>
<path fill="none" stroke-width="0.79701" stroke-linecap="butt" stroke-linejoin="miter" stroke="rgb(71.311951%, 52.764893%, 56.43158%)" stroke-opacity="1" stroke-miterlimit="10" d="M 91.55826 -0.000940063 L 196.585387 107.71738 " transform="matrix(0.995725, 0, 0, -0.995725, 54.188631, 204.249064)"/>
<path fill-rule="nonzero" fill="rgb(47.840881%, 14.118958%, 20.783997%)" fill-opacity="1" stroke-width="0.3985" stroke-linecap="butt" stroke-linejoin="miter" stroke="rgb(47.840881%, 14.118958%, 20.783997%)" stroke-opacity="1" stroke-miterlimit="10" d="M 28.821302 -0.000940063 C 28.821302 1.046507 27.97393 1.893879 26.930406 1.893879 C 25.882959 1.893879 25.035587 1.046507 25.035587 -0.000940063 C 25.035587 -1.044464 25.882959 -1.891836 26.930406 -1.891836 C 27.97393 -1.891836 28.821302 -1.044464 28.821302 -0.000940063 Z M 28.821302 -0.000940063 " transform="matrix(0.995725, 0, 0, -0.995725, 54.188631, 204.249064)"/>
<path fill-rule="nonzero" fill="rgb(47.840881%, 14.118958%, 20.783997%)" fill-opacity="1" stroke-width="0.3985" stroke-linecap="butt" stroke-linejoin="miter" stroke="rgb(47.840881%, 14.118958%, 20.783997%)" stroke-opacity="1" stroke-miterlimit="10" d="M 44.980227 -0.000940063 C 44.980227 1.046507 44.132855 1.893879 43.085408 1.893879 C 42.041884 1.893879 41.194512 1.046507 41.194512 -0.000940063 C 41.194512 -1.044464 42.041884 -1.891836 43.085408 -1.891836 C 44.132855 -1.891836 44.980227 -1.044464 44.980227 -0.000940063 Z M 44.980227 -0.000940063 " transform="matrix(0.995725, 0, 0, -0.995725, 54.188631, 204.249064)"/>
<path fill-rule="nonzero" fill="rgb(47.840881%, 14.118958%, 20.783997%)" fill-opacity="1" stroke-width="0.3985" stroke-linecap="butt" stroke-linejoin="miter" stroke="rgb(47.840881%, 14.118958%, 20.783997%)" stroke-opacity="1" stroke-miterlimit="10" d="M 61.139152 -0.000940063 C 61.139152 1.046507 60.291779 1.893879 59.244333 1.893879 C 58.200809 1.893879 57.353437 1.046507 57.353437 -0.000940063 C 57.353437 -1.044464 58.200809 -1.891836 59.244333 -1.891836 C 60.291779 -1.891836 61.139152 -1.044464 61.139152 -0.000940063 Z M 61.139152 -0.000940063 " transform="matrix(0.995725, 0, 0, -0.995725, 54.188631, 204.249064)"/>
<path fill-rule="nonzero" fill="rgb(47.840881%, 14.118958%, 20.783997%)" fill-opacity="1" stroke-width="0.3985" stroke-linecap="butt" stroke-linejoin="miter" stroke="rgb(47.840881%, 14.118958%, 20.783997%)" stroke-opacity="1" stroke-miterlimit="10" d="M 77.294154 -0.000940063 C 77.294154 1.046507 76.446781 1.893879 75.403258 1.893879 C 74.355811 1.893879 73.508438 1.046507 73.508438 -0.000940063 C 73.508438 -1.044464 74.355811 -1.891836 75.403258 -1.891836 C 76.446781 -1.891836 77.294154 -1.044464 77.294154 -0.000940063 Z M 77.294154 -0.000940063 " transform="matrix(0.995725, 0, 0, -0.995725, 54.188631, 204.249064)"/>
<path fill-rule="nonzero" fill="rgb(47.840881%, 14.118958%, 20.783997%)" fill-opacity="1" stroke-width="0.3985" stroke-linecap="butt" stroke-linejoin="miter" stroke="rgb(47.840881%, 14.118958%, 20.783997%)" stroke-opacity="1" stroke-miterlimit="10" d="M 93.453079 -0.000940063 C 93.453079 1.046507 92.605706 1.893879 91.55826 1.893879 C 90.514736 1.893879 89.667363 1.046507 89.667363 -0.000940063 C 89.667363 -1.044464 90.514736 -1.891836 91.55826 -1.891836 C 92.605706 -1.891836 93.453079 -1.044464 93.453079 -0.000940063 Z M 93.453079 -0.000940063 " transform="matrix(0.995725, 0, 0, -0.995725, 54.188631, 204.249064)"/>
<path fill-rule="nonzero" fill="rgb(34.039307%, 26.078796%, 24.157715%)" fill-opacity="1" stroke-width="0.3985" stroke-linecap="butt" stroke-linejoin="miter" stroke="rgb(34.039307%, 26.078796%, 24.157715%)" stroke-opacity="1" stroke-miterlimit="10" d="M 96.144272 107.71738 C 96.144272 108.764827 95.296899 109.612199 94.253375 109.612199 C 93.205929 109.612199 92.358556 108.764827 92.358556 107.71738 C 92.358556 106.673856 93.205929 105.826484 94.253375 105.826484 C 95.296899 105.826484 96.144272 106.673856 96.144272 107.71738 Z M 96.144272 107.71738 " transform="matrix(0.995725, 0, 0, -0.995725, 54.188631, 204.249064)"/>
<path fill-rule="nonzero" fill="rgb(34.039307%, 26.078796%, 24.157715%)" fill-opacity="1" stroke-width="0.3985" stroke-linecap="butt" stroke-linejoin="miter" stroke="rgb(34.039307%, 26.078796%, 24.157715%)" stroke-opacity="1" stroke-miterlimit="10" d="M 125.767006 107.71738 C 125.767006 108.764827 124.919633 109.612199 123.876109 109.612199 C 122.828663 109.612199 121.98129 108.764827 121.98129 107.71738 C 121.98129 106.673856 122.828663 105.826484 123.876109 105.826484 C 124.919633 105.826484 125.767006 106.673856 125.767006 107.71738 Z M 125.767006 107.71738 " transform="matrix(0.995725, 0, 0, -0.995725, 54.188631, 204.249064)"/>
<path fill-rule="nonzero" fill="rgb(34.039307%, 26.078796%, 24.157715%)" fill-opacity="1" stroke-width="0.3985" stroke-linecap="butt" stroke-linejoin="miter" stroke="rgb(34.039307%, 26.078796%, 24.157715%)" stroke-opacity="1" stroke-miterlimit="10" d="M 155.38974 107.71738 C 155.38974 108.764827 154.542367 109.612199 153.498844 109.612199 C 152.451397 109.612199 151.604024 108.764827 151.604024 107.71738 C 151.604024 106.673856 152.451397 105.826484 153.498844 105.826484 C 154.542367 105.826484 155.38974 106.673856 155.38974 107.71738 Z M 155.38974 107.71738 " transform="matrix(0.995725, 0, 0, -0.995725, 54.188631, 204.249064)"/>
<path fill-rule="nonzero" fill="rgb(34.039307%, 26.078796%, 24.157715%)" fill-opacity="1" stroke-width="0.3985" stroke-linecap="butt" stroke-linejoin="miter" stroke="rgb(34.039307%, 26.078796%, 24.157715%)" stroke-opacity="1" stroke-miterlimit="10" d="M 176.934973 107.71738 C 176.934973 108.764827 176.087601 109.612199 175.040154 109.612199 C 173.99663 109.612199 173.149258 108.764827 173.149258 107.71738 C 173.149258 106.673856 173.99663 105.826484 175.040154 105.826484 C 176.087601 105.826484 176.934973 106.673856 176.934973 107.71738 Z M 176.934973 107.71738 " transform="matrix(0.995725, 0, 0, -0.995725, 54.188631, 204.249064)"/>
<path fill-rule="nonzero" fill="rgb(34.039307%, 26.078796%, 24.157715%)" fill-opacity="1" stroke-width="0.3985" stroke-linecap="butt" stroke-linejoin="miter" stroke="rgb(34.039307%, 26.078796%, 24.157715%)" stroke-opacity="1" stroke-miterlimit="10" d="M 198.476283 107.71738 C 198.476283 108.764827 197.628911 109.612199 196.585387 109.612199 C 195.53794 109.612199 194.690568 108.764827 194.690568 107.71738 C 194.690568 106.673856 195.53794 105.826484 196.585387 105.826484 C 197.628911 105.826484 198.476283 106.673856 198.476283 107.71738 Z M 198.476283 107.71738 " transform="matrix(0.995725, 0, 0, -0.995725, 54.188631, 204.249064)"/>
<g fill="rgb(47.840881%, 14.118958%, 20.783997%)" fill-opacity="1">
<use xlink:href="#glyph-0-2" x="78.590861" y="214.453253"/>
</g>
<g fill="rgb(34.039307%, 26.078796%, 24.157715%)" fill-opacity="1">
<use xlink:href="#glyph-0-3" x="247.709755" y="89.103438"/>
</g>
<path fill="none" stroke-width="0.79701" stroke-linecap="butt" stroke-linejoin="miter" stroke="rgb(60.392761%, 41.569519%, 12.156677%)" stroke-opacity="1" stroke-dasharray="2.98883 2.98883" stroke-miterlimit="10" d="M -0.00113555 53.85822 L 242.363123 53.85822 " transform="matrix(0.995725, 0, 0, -0.995725, 54.188631, 204.249064)"/>
<g fill="rgb(48.313904%, 33.253479%, 9.725952%)" fill-opacity="1">
<use xlink:href="#glyph-0-4" x="118.476613" y="142.365758"/>
</g>
<g fill="rgb(48.313904%, 33.253479%, 9.725952%)" fill-opacity="1">
<use xlink:href="#glyph-3-0" x="122.591944" y="143.694055"/>
</g>
<g fill="rgb(48.313904%, 33.253479%, 9.725952%)" fill-opacity="1">
<use xlink:href="#glyph-4-0" x="125.967723" y="143.694055"/>
</g>
<g fill="rgb(48.313904%, 33.253479%, 9.725952%)" fill-opacity="1">
<use xlink:href="#glyph-3-1" x="129.618782" y="143.694055"/>
</g>
<g fill="rgb(48.313904%, 33.253479%, 9.725952%)" fill-opacity="1">
<use xlink:href="#glyph-1-12" x="133.490152" y="142.365758"/>
</g>
<g fill="rgb(48.313904%, 33.253479%, 9.725952%)" fill-opacity="1">
<use xlink:href="#glyph-1-13" x="139.263383" y="142.365758"/>
<use xlink:href="#glyph-1-10" x="143.645038" y="142.365758"/>
<use xlink:href="#glyph-1-4" x="145.890723" y="142.365758"/>
<use xlink:href="#glyph-1-5" x="149.033571" y="142.365758"/>
<use xlink:href="#glyph-1-14" x="153.415227" y="142.365758"/>
<use xlink:href="#glyph-1-6" x="155.660912" y="142.365758"/>
<use xlink:href="#glyph-1-7" x="159.615512" y="142.365758"/>
<use xlink:href="#glyph-1-8" x="163.142363" y="142.365758"/>
<use xlink:href="#glyph-1-11" x="166.669213" y="142.365758"/>
<use xlink:href="#glyph-1-8" x="173.186144" y="142.365758"/>
<use xlink:href="#glyph-1-15" x="176.712995" y="142.365758"/>
</g>
<g fill="rgb(48.313904%, 33.253479%, 9.725952%)" fill-opacity="1">
<use xlink:href="#glyph-1-9" x="180.879387" y="142.365758"/>
</g>
<g fill="rgb(48.313904%, 33.253479%, 9.725952%)" fill-opacity="1">
<use xlink:href="#glyph-1-10" x="186.652617" y="142.365758"/>
<use xlink:href="#glyph-1-15" x="188.898302" y="142.365758"/>
</g>
<g fill="rgb(48.313904%, 33.253479%, 9.725952%)" fill-opacity="1">
<use xlink:href="#glyph-1-9" x="193.064694" y="142.365758"/>
<use xlink:href="#glyph-1-8" x="196.164489" y="142.365758"/>
<use xlink:href="#glyph-1-16" x="199.69134" y="142.365758"/>
</g>
<g fill="rgb(48.313904%, 33.253479%, 9.725952%)" fill-opacity="1">
<use xlink:href="#glyph-1-5" x="202.798079" y="142.365758"/>
</g>
<g fill="rgb(48.313904%, 33.253479%, 9.725952%)" fill-opacity="1">
<use xlink:href="#glyph-1-17" x="207.388054" y="142.365758"/>
<use xlink:href="#glyph-1-14" x="211.342654" y="142.365758"/>
<use xlink:href="#glyph-1-6" x="213.588339" y="142.365758"/>
<use xlink:href="#glyph-1-9" x="217.54294" y="142.365758"/>
<use xlink:href="#glyph-1-10" x="220.642735" y="142.365758"/>
<use xlink:href="#glyph-1-17" x="222.88842" y="142.365758"/>
<use xlink:href="#glyph-1-15" x="226.84302" y="142.365758"/>
</g>
<path fill="none" stroke-width="0.3985" stroke-linecap="butt" stroke-linejoin="miter" stroke="rgb(86.959839%, 78.529358%, 80.195618%)" stroke-opacity="1" stroke-miterlimit="10" d="M 250.558315 40.013878 L 180.308771 40.013878 C 179.210326 40.013878 178.315877 39.123352 178.315877 38.020983 L 178.315877 15.836297 C 178.315877 14.737851 179.210326 13.843402 180.308771 13.843402 L 250.558315 13.843402 C 251.660684 13.843402 252.55121 14.737851 252.55121 15.836297 L 252.55121 38.020983 C 252.55121 39.123352 251.660684 40.013878 250.558315 40.013878 Z M 250.558315 40.013878 " transform="matrix(0.995725, 0, 0, -0.995725, 54.188631, 204.249064)"/>
<g fill="rgb(63.48877%, 39.881897%, 44.549561%)" fill-opacity="1">
<use xlink:href="#glyph-0-5" x="252.912417" y="174.564514"/>
</g>
<g fill="rgb(63.48877%, 39.881897%, 44.549561%)" fill-opacity="1">
<use xlink:href="#glyph-3-1" x="261.440801" y="171.570369"/>
</g>
<g fill="rgb(63.48877%, 39.881897%, 44.549561%)" fill-opacity="1">
<use xlink:href="#glyph-3-1" x="260.373384" y="176.547997"/>
</g>
<g fill="rgb(63.48877%, 39.881897%, 44.549561%)" fill-opacity="1">
<use xlink:href="#glyph-1-18" x="265.312179" y="174.564514"/>
</g>
<g fill="rgb(63.48877%, 39.881897%, 44.549561%)" fill-opacity="1">
<use xlink:href="#glyph-0-2" x="268.411975" y="174.564514"/>
<use xlink:href="#glyph-0-6" x="273.235268" y="174.564514"/>
</g>
<g fill="rgb(63.48877%, 39.881897%, 44.549561%)" fill-opacity="1">
<use xlink:href="#glyph-0-3" x="276.945439" y="174.564514"/>
</g>
<g fill="rgb(63.48877%, 39.881897%, 44.549561%)" fill-opacity="1">
<use xlink:href="#glyph-1-19" x="281.388202" y="174.564514"/>
</g>
<g fill="rgb(63.48877%, 39.881897%, 44.549561%)" fill-opacity="1">
<use xlink:href="#glyph-1-0" x="235.709278" y="183.877528"/>
</g>
<g fill="rgb(63.48877%, 39.881897%, 44.549561%)" fill-opacity="1">
<use xlink:href="#glyph-5-0" x="244.057436" y="178.284542"/>
</g>
<g fill="rgb(63.48877%, 39.881897%, 44.549561%)" fill-opacity="1">
<use xlink:href="#glyph-3-0" x="249.402487" y="180.737012"/>
</g>
<g fill="rgb(63.48877%, 39.881897%, 44.549561%)" fill-opacity="1">
<use xlink:href="#glyph-3-2" x="247.907904" y="186.496285"/>
</g>
<g fill="rgb(63.48877%, 39.881897%, 44.549561%)" fill-opacity="1">
<use xlink:href="#glyph-5-0" x="253.274861" y="178.284542"/>
</g>
<g fill="rgb(63.48877%, 39.881897%, 44.549561%)" fill-opacity="1">
<use xlink:href="#glyph-6-0" x="259.975094" y="183.877528"/>
</g>
<g fill="rgb(63.48877%, 39.881897%, 44.549561%)" fill-opacity="1">
<use xlink:href="#glyph-0-7" x="262.331188" y="183.877528"/>
</g>
<g fill="rgb(63.48877%, 39.881897%, 44.549561%)" fill-opacity="1">
<use xlink:href="#glyph-4-1" x="266.298943" y="184.870266"/>
</g>
<g fill="rgb(63.48877%, 39.881897%, 44.549561%)" fill-opacity="1">
<use xlink:href="#glyph-6-0" x="269.590809" y="183.877528"/>
</g>
<g fill="rgb(63.48877%, 39.881897%, 44.549561%)" fill-opacity="1">
<use xlink:href="#glyph-3-1" x="271.946694" y="180.884379"/>
</g>
<g fill="rgb(63.48877%, 39.881897%, 44.549561%)" fill-opacity="1">
<use xlink:href="#glyph-0-4" x="275.818073" y="183.877528"/>
</g>
<g fill="rgb(63.48877%, 39.881897%, 44.549561%)" fill-opacity="1">
<use xlink:href="#glyph-4-1" x="279.934399" y="184.870266"/>
</g>
<g fill="rgb(63.48877%, 39.881897%, 44.549561%)" fill-opacity="1">
<use xlink:href="#glyph-0-8" x="284.581447" y="183.877528"/>
<use xlink:href="#glyph-0-9" x="288.711036" y="183.877528"/>
</g>
<g fill="rgb(63.48877%, 39.881897%, 44.549561%)" fill-opacity="1">
<use xlink:href="#glyph-0-8" x="294.563428" y="183.877528"/>
<use xlink:href="#glyph-0-0" x="298.693016" y="183.877528"/>
</g>
</svg>
