<?xml version="1.0" encoding="UTF-8"?>
<svg xmlns="http://www.w3.org/2000/svg" xmlns:xlink="http://www.w3.org/1999/xlink" width="287.161pt" height="167.568pt" viewBox="0 0 287.161 167.568">
<defs>
<g>
<g id="glyph-0-0">
<path d="M 3.5 -5.015625 C 4.140625 -2.1875 4.375 -1.421875 4.9375 -0.453125 C 5.015625 -0.34375 5.046875 -0.296875 5.109375 -0.296875 C 5.140625 -0.296875 5.15625 -0.3125 5.3125 -0.46875 C 5.859375 -0.96875 6.65625 -1.71875 9.125 -4.625 C 8.96875 -3.640625 8.90625 -3.234375 8.796875 -2.265625 C 8.703125 -1.34375 8.703125 -1.015625 8.703125 -0.859375 C 8.703125 -0.78125 8.703125 -0.453125 8.734375 -0.109375 C 8.75 -0.03125 8.78125 0.265625 9.171875 0.265625 C 9.546875 0.265625 10.25 -0.140625 10.25 -0.3125 C 10.25 -0.34375 10.25 -0.390625 10.15625 -0.390625 C 10.0625 -0.390625 9.875 -0.296875 9.78125 -0.234375 C 9.53125 -0.265625 9.53125 -0.421875 9.5 -0.640625 C 9.46875 -0.9375 9.46875 -1.25 9.46875 -1.265625 C 9.46875 -2.4375 9.953125 -5.375 10.0625 -5.875 C 10.125 -6.09375 10.125 -6.109375 10.125 -6.171875 C 10.125 -6.171875 10.125 -6.296875 10.0625 -6.296875 C 10.015625 -6.296875 9.96875 -6.234375 9.921875 -6.1875 L 7.703125 -3.609375 C 7.140625 -2.96875 5.984375 -1.6875 5.421875 -1.203125 C 5.109375 -1.828125 4.953125 -2.21875 4.625 -3.5 C 4.375 -4.453125 4.203125 -5.28125 4.046875 -6.1875 C 4.03125 -6.25 4.015625 -6.296875 3.921875 -6.296875 C 3.78125 -6.296875 3.375 -6.109375 3.328125 -5.875 C 3.203125 -5.03125 3.015625 -3.6875 2.140625 -1.59375 C 1.9375 -1.078125 1.65625 -0.390625 1.328125 -0.390625 C 1.21875 -0.390625 0.828125 -0.453125 0.59375 -0.703125 C 0.296875 -0.53125 0.25 -0.0625 0.25 0 C 0.25 0.078125 0.25 0.171875 0.546875 0.328125 C 0.796875 0.453125 1.03125 0.453125 1.046875 0.453125 C 1.640625 0.453125 2.203125 -0.984375 2.421875 -1.515625 C 2.765625 -2.390625 3.25 -3.6875 3.5 -5.015625 Z M 3.5 -5.015625 "/>
</g>
<g id="glyph-1-0">
<path d="M 3.8125 -3.90625 C 3.8125 -4.90625 3.421875 -5.59375 2.765625 -5.59375 C 1.578125 -5.59375 0.34375 -3.390625 0.34375 -1.609375 C 0.34375 -0.84375 0.609375 0.078125 1.40625 0.078125 C 2.5625 0.078125 3.8125 -2.078125 3.8125 -3.90625 Z M 1.234375 -2.890625 C 1.609375 -4.5 2.265625 -5.375 2.765625 -5.375 C 3.234375 -5.375 3.234375 -4.53125 3.234375 -4.375 C 3.234375 -3.921875 3.09375 -3.28125 3 -2.890625 Z M 2.921875 -2.625 C 2.546875 -1.03125 1.90625 -0.140625 1.40625 -0.140625 C 0.984375 -0.140625 0.9375 -0.78125 0.9375 -1.140625 C 0.9375 -1.640625 1.078125 -2.296875 1.171875 -2.625 Z M 2.921875 -2.625 "/>
</g>
<g id="glyph-1-1">
<path d="M 4.28125 -5.28125 C 4.28125 -5.296875 4.3125 -5.40625 4.3125 -5.40625 C 4.3125 -5.453125 4.28125 -5.515625 4.1875 -5.515625 C 4.15625 -5.515625 3.90625 -5.5 3.71875 -5.484375 L 3.28125 -5.453125 C 3.109375 -5.4375 3.015625 -5.421875 3.015625 -5.28125 C 3.015625 -5.171875 3.140625 -5.171875 3.234375 -5.171875 C 3.609375 -5.171875 3.609375 -5.125 3.609375 -5.046875 C 3.609375 -5 3.546875 -4.734375 3.5 -4.578125 L 3.125 -3.03125 C 3.046875 -3.171875 2.8125 -3.5 2.328125 -3.5 C 1.390625 -3.5 0.34375 -2.40625 0.34375 -1.21875 C 0.34375 -0.390625 0.875 0.078125 1.484375 0.078125 C 2 0.078125 2.4375 -0.328125 2.578125 -0.484375 C 2.71875 0.0625 3.265625 0.078125 3.359375 0.078125 C 3.71875 0.078125 3.90625 -0.21875 3.96875 -0.359375 C 4.125 -0.640625 4.234375 -1.109375 4.234375 -1.140625 C 4.234375 -1.1875 4.203125 -1.234375 4.109375 -1.234375 C 4.015625 -1.234375 4 -1.1875 3.953125 -1 C 3.84375 -0.5625 3.6875 -0.140625 3.375 -0.140625 C 3.203125 -0.140625 3.125 -0.296875 3.125 -0.515625 C 3.125 -0.671875 3.15625 -0.75 3.171875 -0.859375 Z M 2.578125 -0.859375 C 2.171875 -0.3125 1.765625 -0.140625 1.515625 -0.140625 C 1.140625 -0.140625 0.96875 -0.484375 0.96875 -0.890625 C 0.96875 -1.265625 1.171875 -2.109375 1.359375 -2.46875 C 1.578125 -2.953125 1.96875 -3.28125 2.34375 -3.28125 C 2.859375 -3.28125 3 -2.703125 3 -2.609375 C 3 -2.578125 2.8125 -1.796875 2.765625 -1.59375 C 2.65625 -1.21875 2.65625 -1.203125 2.578125 -0.859375 Z M 2.578125 -0.859375 "/>
</g>
<g id="glyph-1-2">
<path d="M 2.515625 -2.578125 L 3.34375 -2.578125 C 4 -2.578125 4.03125 -2.453125 4.03125 -2.21875 C 4.03125 -2.15625 4.03125 -2.078125 3.96875 -1.875 C 3.953125 -1.84375 3.953125 -1.78125 3.953125 -1.75 C 3.953125 -1.75 3.953125 -1.640625 4.078125 -1.640625 C 4.171875 -1.640625 4.1875 -1.71875 4.21875 -1.828125 L 4.640625 -3.53125 C 4.640625 -3.546875 4.671875 -3.65625 4.671875 -3.65625 C 4.671875 -3.6875 4.640625 -3.765625 4.546875 -3.765625 C 4.453125 -3.765625 4.4375 -3.703125 4.40625 -3.609375 C 4.25 -2.984375 4.0625 -2.84375 3.359375 -2.84375 L 2.578125 -2.84375 L 3.078125 -4.84375 C 3.15625 -5.125 3.171875 -5.140625 3.484375 -5.140625 L 4.65625 -5.140625 C 5.609375 -5.140625 5.875 -4.953125 5.875 -4.265625 C 5.875 -4.09375 5.84375 -3.890625 5.84375 -3.734375 C 5.84375 -3.640625 5.890625 -3.609375 5.953125 -3.609375 C 6.0625 -3.609375 6.078125 -3.671875 6.09375 -3.8125 L 6.234375 -5.15625 C 6.25 -5.203125 6.25 -5.25 6.25 -5.296875 C 6.25 -5.40625 6.140625 -5.40625 6 -5.40625 L 1.921875 -5.40625 C 1.78125 -5.40625 1.671875 -5.40625 1.671875 -5.265625 C 1.671875 -5.140625 1.78125 -5.140625 1.90625 -5.140625 C 1.96875 -5.140625 2.078125 -5.140625 2.21875 -5.125 C 2.375 -5.109375 2.40625 -5.09375 2.40625 -5.015625 C 2.40625 -4.984375 2.390625 -4.953125 2.375 -4.859375 L 1.3125 -0.625 C 1.234375 -0.328125 1.21875 -0.265625 0.640625 -0.265625 C 0.484375 -0.265625 0.390625 -0.265625 0.390625 -0.109375 C 0.390625 -0.078125 0.40625 0 0.515625 0 C 0.6875 0 0.875 -0.03125 1.046875 -0.03125 L 2.140625 -0.03125 C 2.296875 -0.015625 2.578125 0 2.734375 0 C 2.796875 0 2.90625 0 2.90625 -0.15625 C 2.90625 -0.265625 2.8125 -0.265625 2.640625 -0.265625 C 2.46875 -0.265625 2.40625 -0.265625 2.234375 -0.28125 C 2.015625 -0.296875 1.984375 -0.328125 1.984375 -0.421875 C 1.984375 -0.421875 1.984375 -0.484375 2.015625 -0.59375 Z M 2.515625 -2.578125 "/>
</g>
<g id="glyph-2-0">
<path d="M 1.34375 -0.71875 C 1.125 -0.375 0.921875 -0.265625 0.578125 -0.234375 C 0.5 -0.234375 0.421875 -0.21875 0.421875 -0.09375 C 0.421875 -0.03125 0.46875 0 0.515625 0 C 0.6875 0 0.875 -0.03125 1.046875 -0.03125 C 1.203125 -0.03125 1.546875 0 1.6875 0 C 1.75 0 1.828125 -0.03125 1.828125 -0.15625 C 1.828125 -0.234375 1.734375 -0.234375 1.71875 -0.234375 C 1.578125 -0.25 1.453125 -0.28125 1.453125 -0.40625 C 1.453125 -0.484375 1.515625 -0.578125 1.53125 -0.625 L 2.015625 -1.34375 L 3.8125 -1.34375 L 3.96875 -0.390625 C 3.96875 -0.234375 3.625 -0.234375 3.5625 -0.234375 C 3.484375 -0.234375 3.390625 -0.234375 3.390625 -0.09375 C 3.390625 -0.0625 3.421875 0 3.484375 0 C 3.671875 0 4.109375 -0.03125 4.28125 -0.03125 C 4.40625 -0.03125 4.515625 -0.015625 4.625 -0.015625 C 4.75 -0.015625 4.875 0 5 0 C 5.03125 0 5.125 0 5.125 -0.15625 C 5.125 -0.234375 5.046875 -0.234375 4.953125 -0.234375 C 4.59375 -0.234375 4.578125 -0.28125 4.5625 -0.421875 L 3.96875 -4.09375 C 3.953125 -4.203125 3.9375 -4.25 3.8125 -4.25 C 3.6875 -4.25 3.65625 -4.203125 3.59375 -4.125 Z M 2.171875 -1.59375 L 3.453125 -3.53125 L 3.765625 -1.59375 Z M 2.171875 -1.59375 "/>
</g>
<g id="glyph-2-1">
<path d="M 1.25 -0.5 C 1.203125 -0.28125 1.1875 -0.234375 0.734375 -0.234375 C 0.609375 -0.234375 0.59375 -0.234375 0.578125 -0.21875 C 0.546875 -0.203125 0.515625 -0.125 0.515625 -0.078125 C 0.53125 0 0.59375 0 0.703125 0 L 3.125 0 C 4.15625 0 4.96875 -0.671875 4.96875 -1.265625 C 4.96875 -1.640625 4.65625 -2.03125 3.90625 -2.125 C 4.59375 -2.234375 5.265625 -2.671875 5.265625 -3.21875 C 5.265625 -3.640625 4.796875 -4.0625 3.953125 -4.0625 L 1.671875 -4.0625 C 1.5625 -4.0625 1.46875 -4.0625 1.46875 -3.921875 C 1.46875 -3.828125 1.5625 -3.828125 1.671875 -3.828125 C 1.78125 -3.828125 1.921875 -3.828125 2.046875 -3.78125 C 2.046875 -3.734375 2.046875 -3.6875 2.03125 -3.59375 Z M 2.21875 -2.21875 L 2.578125 -3.625 C 2.625 -3.8125 2.625 -3.828125 2.875 -3.828125 L 3.859375 -3.828125 C 4.484375 -3.828125 4.65625 -3.453125 4.65625 -3.203125 C 4.65625 -2.71875 4.046875 -2.21875 3.3125 -2.21875 Z M 1.9375 -0.234375 C 1.828125 -0.234375 1.8125 -0.234375 1.75 -0.25 L 2.171875 -2.015625 L 3.46875 -2.015625 C 4.21875 -2.015625 4.34375 -1.53125 4.34375 -1.296875 C 4.34375 -0.71875 3.71875 -0.234375 2.96875 -0.234375 Z M 1.9375 -0.234375 "/>
</g>
<g id="glyph-3-0">
<path d="M 2.703125 -2.78125 C 2.578125 -2.71875 2.515625 -2.609375 2.515625 -2.46875 C 2.515625 -2.28125 2.640625 -2.140625 2.84375 -2.140625 C 3.03125 -2.140625 3.171875 -2.265625 3.171875 -2.484375 C 3.171875 -3.09375 2.203125 -3.09375 2.015625 -3.09375 C 0.96875 -3.09375 0.3125 -2.296875 0.3125 -1.5 C 0.3125 -0.625 1.0625 0.0625 1.96875 0.0625 C 3.015625 0.0625 3.25 -0.75 3.25 -0.828125 C 3.25 -0.921875 3.15625 -0.921875 3.140625 -0.921875 C 3.046875 -0.921875 3.03125 -0.890625 3 -0.796875 C 2.84375 -0.375 2.484375 -0.15625 2.0625 -0.15625 C 1.578125 -0.15625 0.953125 -0.5 0.953125 -1.515625 C 0.953125 -2.390625 1.390625 -2.875 2.03125 -2.875 C 2.125 -2.875 2.453125 -2.875 2.703125 -2.78125 Z M 2.703125 -2.78125 "/>
</g>
<g id="glyph-3-1">
<path d="M 3.578125 -2.109375 C 3.578125 -2.71875 3.28125 -3.0625 2.53125 -3.0625 C 1.921875 -3.0625 1.578125 -2.703125 1.421875 -2.4375 L 1.421875 -4.828125 L 0.375 -4.75 L 0.375 -4.5 C 0.84375 -4.5 0.890625 -4.453125 0.890625 -4.109375 L 0.890625 -0.546875 C 0.890625 -0.25 0.828125 -0.25 0.375 -0.25 L 0.375 0 C 0.390625 0 0.875 -0.03125 1.171875 -0.03125 C 1.421875 -0.03125 1.90625 0 1.96875 0 L 1.96875 -0.25 C 1.515625 -0.25 1.453125 -0.25 1.453125 -0.546875 L 1.453125 -1.796875 C 1.453125 -2.53125 2.015625 -2.875 2.484375 -2.875 C 2.96875 -2.875 3.03125 -2.484375 3.03125 -2.140625 L 3.03125 -0.546875 C 3.03125 -0.25 2.96875 -0.25 2.515625 -0.25 L 2.515625 0 C 2.53125 0 3.015625 -0.03125 3.296875 -0.03125 C 3.5625 -0.03125 4.046875 0 4.109375 0 L 4.109375 -0.25 C 3.65625 -0.25 3.578125 -0.25 3.578125 -0.546875 Z M 3.578125 -2.109375 "/>
</g>
<g id="glyph-3-2">
<path d="M 3.0625 -1.578125 C 3.203125 -1.578125 3.25 -1.578125 3.25 -1.734375 C 3.25 -2.34375 2.90625 -3.09375 1.875 -3.09375 C 0.96875 -3.09375 0.265625 -2.375 0.265625 -1.515625 C 0.265625 -0.640625 1.046875 0.0625 1.96875 0.0625 C 2.90625 0.0625 3.25 -0.6875 3.25 -0.828125 C 3.25 -0.859375 3.234375 -0.9375 3.140625 -0.9375 C 3.046875 -0.9375 3.03125 -0.890625 3.015625 -0.828125 C 2.796875 -0.25 2.265625 -0.15625 2.015625 -0.15625 C 1.6875 -0.15625 1.375 -0.296875 1.171875 -0.5625 C 0.90625 -0.890625 0.90625 -1.3125 0.90625 -1.578125 Z M 0.90625 -1.765625 C 0.984375 -2.75 1.609375 -2.90625 1.875 -2.90625 C 2.734375 -2.90625 2.765625 -1.9375 2.765625 -1.765625 Z M 0.90625 -1.765625 "/>
</g>
<g id="glyph-3-3">
<path d="M 3.09375 -1.859375 C 3.09375 -2.234375 3.09375 -2.5 2.78125 -2.75 C 2.5 -2.984375 2.15625 -3.09375 1.75 -3.09375 C 1.09375 -3.09375 0.625 -2.84375 0.625 -2.421875 C 0.625 -2.203125 0.78125 -2.09375 0.953125 -2.09375 C 1.140625 -2.09375 1.28125 -2.21875 1.28125 -2.40625 C 1.28125 -2.53125 1.234375 -2.671875 1.046875 -2.734375 C 1.296875 -2.90625 1.703125 -2.90625 1.734375 -2.90625 C 2.125 -2.90625 2.546875 -2.65625 2.546875 -2.0625 L 2.546875 -1.84375 C 2.171875 -1.828125 1.703125 -1.8125 1.203125 -1.625 C 0.578125 -1.390625 0.375 -1.015625 0.375 -0.703125 C 0.375 -0.109375 1.109375 0.0625 1.59375 0.0625 C 2.15625 0.0625 2.484375 -0.25 2.625 -0.515625 C 2.65625 -0.234375 2.84375 0.03125 3.15625 0.03125 C 3.171875 0.03125 3.859375 0.03125 3.859375 -0.625 L 3.859375 -1.015625 L 3.609375 -1.015625 L 3.609375 -0.625 C 3.609375 -0.5625 3.609375 -0.234375 3.359375 -0.234375 C 3.09375 -0.234375 3.09375 -0.5625 3.09375 -0.640625 Z M 2.546875 -0.984375 C 2.546875 -0.3125 1.96875 -0.125 1.65625 -0.125 C 1.296875 -0.125 0.96875 -0.359375 0.96875 -0.703125 C 0.96875 -1.078125 1.296875 -1.625 2.546875 -1.671875 Z M 2.546875 -0.984375 "/>
</g>
<g id="glyph-3-4">
<path d="M 1.9375 1.09375 C 1.484375 1.09375 1.40625 1.09375 1.40625 0.796875 L 1.40625 -0.328125 C 1.453125 -0.296875 1.765625 0.0625 2.359375 0.0625 C 3.28125 0.0625 4.0625 -0.625 4.0625 -1.5 C 4.0625 -2.359375 3.34375 -3.0625 2.46875 -3.0625 C 2.078125 -3.0625 1.671875 -2.921875 1.390625 -2.640625 L 1.390625 -3.0625 L 0.34375 -2.984375 L 0.34375 -2.734375 C 0.828125 -2.734375 0.859375 -2.703125 0.859375 -2.40625 L 0.859375 0.796875 C 0.859375 1.09375 0.796875 1.09375 0.34375 1.09375 L 0.34375 1.34375 C 0.359375 1.34375 0.84375 1.328125 1.140625 1.328125 C 1.390625 1.328125 1.875 1.34375 1.9375 1.34375 Z M 1.40625 -2.3125 C 1.625 -2.65625 2.015625 -2.84375 2.390625 -2.84375 C 2.96875 -2.84375 3.421875 -2.234375 3.421875 -1.5 C 3.421875 -0.703125 2.90625 -0.125 2.3125 -0.125 C 1.703125 -0.125 1.4375 -0.65625 1.40625 -0.703125 Z M 1.40625 -2.3125 "/>
</g>
<g id="glyph-3-5">
<path d="M 2.359375 -1.5625 C 2.34375 -1.5625 2.296875 -1.625 2.296875 -1.625 C 2.296875 -1.640625 2.765625 -2.140625 2.828125 -2.203125 C 3.0625 -2.46875 3.3125 -2.734375 3.859375 -2.75 L 3.859375 -3 C 3.671875 -2.984375 3.46875 -2.96875 3.28125 -2.96875 C 3.0625 -2.96875 2.796875 -2.96875 2.59375 -3 L 2.59375 -2.75 C 2.703125 -2.71875 2.71875 -2.65625 2.71875 -2.59375 C 2.71875 -2.578125 2.71875 -2.46875 2.625 -2.34375 L 2.140625 -1.796875 L 1.5625 -2.46875 C 1.484375 -2.53125 1.484375 -2.578125 1.484375 -2.59375 C 1.484375 -2.703125 1.578125 -2.75 1.671875 -2.75 L 1.671875 -3 C 1.40625 -2.96875 1.140625 -2.96875 0.890625 -2.96875 C 0.6875 -2.96875 0.421875 -2.96875 0.21875 -3 L 0.21875 -2.75 C 0.53125 -2.75 0.71875 -2.75 0.890625 -2.53125 L 1.765625 -1.53125 C 1.765625 -1.53125 1.828125 -1.46875 1.828125 -1.46875 C 1.828125 -1.453125 1.296875 -0.875 1.234375 -0.796875 C 0.96875 -0.515625 0.734375 -0.265625 0.1875 -0.25 L 0.1875 0 C 0.390625 -0.015625 0.546875 -0.03125 0.765625 -0.03125 C 0.96875 -0.03125 1.25 -0.015625 1.453125 0 L 1.453125 -0.25 C 1.375 -0.265625 1.3125 -0.3125 1.3125 -0.40625 C 1.3125 -0.546875 1.390625 -0.625 1.5 -0.75 L 1.984375 -1.28125 L 2.59375 -0.59375 C 2.71875 -0.453125 2.71875 -0.4375 2.71875 -0.390625 C 2.71875 -0.25 2.5625 -0.25 2.53125 -0.25 L 2.53125 0 C 2.59375 0 3.09375 -0.03125 3.328125 -0.03125 C 3.546875 -0.03125 3.765625 -0.015625 3.984375 0 L 3.984375 -0.25 C 3.53125 -0.25 3.46875 -0.296875 3.3125 -0.46875 Z M 2.359375 -1.5625 "/>
</g>
<g id="glyph-3-6">
<path d="M 3.578125 -2.109375 C 3.578125 -2.71875 3.28125 -3.0625 2.53125 -3.0625 C 1.96875 -3.0625 1.59375 -2.75 1.40625 -2.390625 L 1.390625 -2.390625 L 1.390625 -3.0625 L 0.375 -2.984375 L 0.375 -2.734375 C 0.84375 -2.734375 0.890625 -2.6875 0.890625 -2.34375 L 0.890625 -0.546875 C 0.890625 -0.25 0.828125 -0.25 0.375 -0.25 L 0.375 0 C 0.390625 0 0.875 -0.03125 1.171875 -0.03125 C 1.421875 -0.03125 1.90625 0 1.96875 0 L 1.96875 -0.25 C 1.515625 -0.25 1.453125 -0.25 1.453125 -0.546875 L 1.453125 -1.796875 C 1.453125 -2.53125 2.015625 -2.875 2.484375 -2.875 C 2.96875 -2.875 3.03125 -2.484375 3.03125 -2.140625 L 3.03125 -0.546875 C 3.03125 -0.25 2.96875 -0.25 2.515625 -0.25 L 2.515625 0 C 2.53125 0 3.015625 -0.03125 3.296875 -0.03125 C 3.5625 -0.03125 4.046875 0 4.109375 0 L 4.109375 -0.25 C 3.65625 -0.25 3.578125 -0.25 3.578125 -0.546875 Z M 3.578125 -2.109375 "/>
</g>
<g id="glyph-3-7">
<path d="M 2.640625 -2.921875 C 2.640625 -3.03125 2.640625 -3.09375 2.53125 -3.09375 C 2.5 -3.09375 2.484375 -3.09375 2.40625 -3.015625 C 2.390625 -3.015625 2.3125 -2.953125 2.28125 -2.90625 C 2.0625 -3.0625 1.796875 -3.09375 1.546875 -3.09375 C 0.546875 -3.09375 0.3125 -2.578125 0.3125 -2.234375 C 0.3125 -2.015625 0.40625 -1.828125 0.578125 -1.6875 C 0.84375 -1.453125 1.109375 -1.40625 1.53125 -1.34375 C 1.890625 -1.28125 2.453125 -1.1875 2.453125 -0.71875 C 2.453125 -0.4375 2.265625 -0.125 1.59375 -0.125 C 0.921875 -0.125 0.6875 -0.5625 0.5625 -1.03125 C 0.53125 -1.125 0.53125 -1.15625 0.4375 -1.15625 C 0.3125 -1.15625 0.3125 -1.109375 0.3125 -0.96875 L 0.3125 -0.109375 C 0.3125 0 0.3125 0.0625 0.40625 0.0625 C 0.46875 0.0625 0.609375 -0.078125 0.75 -0.234375 C 1.046875 0.0625 1.421875 0.0625 1.59375 0.0625 C 2.5 0.0625 2.828125 -0.421875 2.828125 -0.90625 C 2.828125 -1.171875 2.71875 -1.390625 2.53125 -1.546875 C 2.265625 -1.796875 1.953125 -1.84375 1.703125 -1.890625 C 1.140625 -1.984375 0.703125 -2.078125 0.703125 -2.4375 C 0.703125 -2.65625 0.890625 -2.9375 1.546875 -2.9375 C 2.34375 -2.9375 2.390625 -2.375 2.40625 -2.171875 C 2.40625 -2.09375 2.484375 -2.09375 2.515625 -2.09375 C 2.640625 -2.09375 2.640625 -2.140625 2.640625 -2.28125 Z M 2.640625 -2.921875 "/>
</g>
<g id="glyph-3-8">
<path d="M 1.46875 -4.296875 C 1.46875 -4.484375 1.296875 -4.6875 1.0625 -4.6875 C 0.859375 -4.6875 0.671875 -4.515625 0.671875 -4.296875 C 0.671875 -4.046875 0.875 -3.890625 1.0625 -3.890625 C 1.28125 -3.890625 1.46875 -4.0625 1.46875 -4.296875 Z M 0.40625 -2.984375 L 0.40625 -2.734375 C 0.84375 -2.734375 0.90625 -2.703125 0.90625 -2.359375 L 0.90625 -0.546875 C 0.90625 -0.25 0.84375 -0.25 0.390625 -0.25 L 0.390625 0 C 0.40625 0 0.890625 -0.03125 1.171875 -0.03125 C 1.40625 -0.03125 1.65625 -0.015625 1.90625 0 L 1.90625 -0.25 C 1.5 -0.25 1.4375 -0.25 1.4375 -0.546875 L 1.4375 -3.0625 Z M 0.40625 -2.984375 "/>
</g>
<g id="glyph-3-9">
<path d="M 3.296875 -2.3125 C 3.484375 -2.734375 3.84375 -2.75 3.953125 -2.75 L 3.953125 -3 C 3.78125 -2.984375 3.59375 -2.96875 3.421875 -2.96875 C 3.234375 -2.96875 2.96875 -2.96875 2.78125 -3 L 2.78125 -2.75 C 3.078125 -2.734375 3.078125 -2.5 3.078125 -2.484375 C 3.078125 -2.453125 3.078125 -2.375 3.03125 -2.28125 L 2.234375 -0.5625 L 1.375 -2.453125 C 1.375 -2.46875 1.328125 -2.53125 1.328125 -2.59375 C 1.328125 -2.75 1.578125 -2.75 1.6875 -2.75 L 1.6875 -3 C 1.671875 -3 1.1875 -2.96875 0.890625 -2.96875 C 0.6875 -2.96875 0.421875 -2.96875 0.21875 -3 L 0.21875 -2.75 C 0.59375 -2.75 0.6875 -2.734375 0.78125 -2.5 L 1.890625 -0.078125 C 1.921875 0 1.953125 0.0625 2.078125 0.0625 C 2.21875 0.0625 2.234375 0 2.28125 -0.0625 Z M 3.296875 -2.3125 "/>
</g>
<g id="glyph-3-10">
<path d="M 5.171875 -4.703125 C 5.171875 -4.828125 5.171875 -4.890625 5.078125 -4.890625 C 5.046875 -4.890625 5.015625 -4.890625 4.953125 -4.8125 L 4.59375 -4.28125 C 4.296875 -4.5625 3.8125 -4.890625 3.15625 -4.890625 C 1.6875 -4.890625 0.484375 -3.765625 0.484375 -2.375 C 0.484375 -0.96875 1.703125 0.140625 3.15625 0.140625 C 4.375 0.140625 5.171875 -0.78125 5.171875 -1.625 C 5.171875 -1.703125 5.171875 -1.765625 5.0625 -1.765625 C 5.015625 -1.765625 4.9375 -1.765625 4.9375 -1.671875 C 4.875 -0.546875 3.9375 -0.109375 3.25 -0.109375 C 2.5 -0.109375 1.234375 -0.5625 1.234375 -2.375 C 1.234375 -4.25 2.578125 -4.640625 3.234375 -4.640625 C 3.921875 -4.640625 4.734375 -4.171875 4.921875 -2.984375 C 4.9375 -2.90625 5 -2.90625 5.046875 -2.90625 C 5.171875 -2.90625 5.171875 -2.9375 5.171875 -3.078125 Z M 5.171875 -4.703125 "/>
</g>
<g id="glyph-3-11">
<path d="M 3.671875 -1.484375 C 3.671875 -2.34375 2.9375 -3.09375 1.96875 -3.09375 C 1.015625 -3.09375 0.265625 -2.34375 0.265625 -1.484375 C 0.265625 -0.625 1.03125 0.0625 1.96875 0.0625 C 2.90625 0.0625 3.671875 -0.625 3.671875 -1.484375 Z M 1.96875 -0.15625 C 1.71875 -0.15625 1.34375 -0.234375 1.109375 -0.578125 C 0.921875 -0.859375 0.90625 -1.21875 0.90625 -1.546875 C 0.90625 -1.84375 0.90625 -2.25 1.15625 -2.546875 C 1.328125 -2.75 1.625 -2.90625 1.96875 -2.90625 C 2.390625 -2.90625 2.671875 -2.71875 2.828125 -2.5 C 3.03125 -2.21875 3.046875 -1.875 3.046875 -1.546875 C 3.046875 -1.203125 3.03125 -0.84375 2.828125 -0.5625 C 2.640625 -0.296875 2.3125 -0.15625 1.96875 -0.15625 Z M 1.96875 -0.15625 "/>
</g>
<g id="glyph-3-12">
<path d="M 1.96875 -4.828125 L 0.9375 -3.90625 L 1.09375 -3.71875 L 1.96875 -4.40625 L 2.859375 -3.71875 L 3.015625 -3.90625 Z M 1.96875 -4.828125 "/>
</g>
<g id="glyph-4-0">
<path d="M 3.65625 -2.109375 C 3.65625 -2.71875 3.34375 -3.0625 2.59375 -3.0625 C 2 -3.0625 1.625 -2.75 1.4375 -2.390625 L 1.421875 -2.390625 L 1.421875 -3.0625 L 0.390625 -2.984375 L 0.390625 -2.734375 C 0.859375 -2.734375 0.921875 -2.6875 0.921875 -2.34375 L 0.921875 -0.546875 C 0.921875 -0.25 0.84375 -0.25 0.390625 -0.25 L 0.390625 0 C 0.390625 0 0.890625 -0.03125 1.1875 -0.03125 C 1.453125 -0.03125 1.9375 0 2 0 L 2 -0.25 C 1.546875 -0.25 1.46875 -0.25 1.46875 -0.546875 L 1.46875 -1.796875 C 1.46875 -2.53125 2.0625 -2.875 2.53125 -2.875 C 3.03125 -2.875 3.09375 -2.484375 3.09375 -2.140625 L 3.09375 -0.546875 C 3.09375 -0.25 3.015625 -0.25 2.5625 -0.25 L 2.5625 0 C 2.578125 0 3.078125 -0.03125 3.375 -0.03125 C 3.625 -0.03125 4.125 0 4.1875 0 L 4.1875 -0.25 C 3.71875 -0.25 3.65625 -0.25 3.65625 -0.546875 Z M 3.65625 -2.109375 "/>
</g>
<g id="glyph-4-1">
<path d="M 3.15625 -1.859375 C 3.15625 -2.234375 3.15625 -2.5 2.84375 -2.75 C 2.546875 -2.984375 2.203125 -3.09375 1.78125 -3.09375 C 1.109375 -3.09375 0.640625 -2.84375 0.640625 -2.421875 C 0.640625 -2.203125 0.796875 -2.09375 0.984375 -2.09375 C 1.171875 -2.09375 1.3125 -2.21875 1.3125 -2.40625 C 1.3125 -2.53125 1.25 -2.671875 1.0625 -2.734375 C 1.3125 -2.90625 1.734375 -2.90625 1.765625 -2.90625 C 2.171875 -2.90625 2.609375 -2.65625 2.609375 -2.0625 L 2.609375 -1.84375 C 2.21875 -1.828125 1.75 -1.8125 1.234375 -1.625 C 0.59375 -1.390625 0.390625 -1.015625 0.390625 -0.703125 C 0.390625 -0.109375 1.125 0.0625 1.625 0.0625 C 2.203125 0.0625 2.53125 -0.25 2.6875 -0.515625 C 2.703125 -0.234375 2.90625 0.03125 3.234375 0.03125 C 3.234375 0.03125 3.9375 0.03125 3.9375 -0.625 L 3.9375 -1.015625 L 3.6875 -1.015625 L 3.6875 -0.625 C 3.6875 -0.5625 3.6875 -0.234375 3.421875 -0.234375 C 3.15625 -0.234375 3.15625 -0.5625 3.15625 -0.640625 Z M 2.609375 -0.984375 C 2.609375 -0.3125 2 -0.125 1.6875 -0.125 C 1.328125 -0.125 0.984375 -0.359375 0.984375 -0.703125 C 0.984375 -1.078125 1.328125 -1.625 2.609375 -1.671875 Z M 2.609375 -0.984375 "/>
</g>
<g id="glyph-4-2">
<path d="M 1.40625 -1.578125 C 1.40625 -2.171875 1.6875 -2.875 2.359375 -2.875 C 2.296875 -2.828125 2.234375 -2.734375 2.234375 -2.625 C 2.234375 -2.390625 2.421875 -2.296875 2.5625 -2.296875 C 2.734375 -2.296875 2.890625 -2.40625 2.890625 -2.625 C 2.890625 -2.859375 2.65625 -3.0625 2.328125 -3.0625 C 1.96875 -3.0625 1.578125 -2.84375 1.375 -2.328125 L 1.359375 -2.328125 L 1.359375 -3.0625 L 0.34375 -2.984375 L 0.34375 -2.734375 C 0.828125 -2.734375 0.875 -2.6875 0.875 -2.34375 L 0.875 -0.546875 C 0.875 -0.25 0.8125 -0.25 0.34375 -0.25 L 0.34375 0 C 0.390625 0 0.859375 -0.03125 1.15625 -0.03125 C 1.46875 -0.03125 1.765625 -0.015625 2.078125 0 L 2.078125 -0.25 L 1.9375 -0.25 C 1.40625 -0.25 1.40625 -0.328125 1.40625 -0.5625 Z M 1.40625 -1.578125 "/>
</g>
<g id="glyph-4-3">
<path d="M 3.75 -1.484375 C 3.75 -2.34375 3 -3.09375 2.015625 -3.09375 C 1.03125 -3.09375 0.28125 -2.34375 0.28125 -1.484375 C 0.28125 -0.625 1.0625 0.0625 2.015625 0.0625 C 2.96875 0.0625 3.75 -0.625 3.75 -1.484375 Z M 2.015625 -0.15625 C 1.75 -0.15625 1.375 -0.234375 1.140625 -0.578125 C 0.9375 -0.859375 0.921875 -1.21875 0.921875 -1.546875 C 0.921875 -1.84375 0.921875 -2.25 1.171875 -2.546875 C 1.359375 -2.75 1.65625 -2.90625 2.015625 -2.90625 C 2.4375 -2.90625 2.734375 -2.71875 2.890625 -2.5 C 3.078125 -2.21875 3.109375 -1.875 3.109375 -1.546875 C 3.109375 -1.203125 3.078125 -0.84375 2.875 -0.5625 C 2.6875 -0.296875 2.359375 -0.15625 2.015625 -0.15625 Z M 2.015625 -0.15625 "/>
</g>
<g id="glyph-4-4">
<path d="M 4.96875 -2.328125 C 5.109375 -2.671875 5.34375 -2.734375 5.5625 -2.75 L 5.5625 -3 C 5.375 -2.96875 5.25 -2.96875 5.046875 -2.96875 C 4.84375 -2.96875 4.5625 -2.96875 4.359375 -3 L 4.359375 -2.75 C 4.609375 -2.734375 4.71875 -2.609375 4.71875 -2.4375 C 4.71875 -2.390625 4.71875 -2.375 4.6875 -2.28125 L 4 -0.546875 L 3.234375 -2.4375 C 3.21875 -2.46875 3.1875 -2.53125 3.1875 -2.578125 C 3.1875 -2.71875 3.375 -2.75 3.578125 -2.75 L 3.578125 -3 C 3.3125 -2.96875 3.0625 -2.96875 2.8125 -2.96875 C 2.609375 -2.96875 2.390625 -2.984375 2.1875 -3 L 2.1875 -2.75 C 2.34375 -2.75 2.5 -2.75 2.59375 -2.6875 C 2.6875 -2.625 2.75 -2.390625 2.75 -2.390625 C 2.75 -2.375 2.734375 -2.328125 2.71875 -2.296875 L 2.0625 -0.640625 L 1.34375 -2.4375 C 1.296875 -2.53125 1.296875 -2.546875 1.296875 -2.578125 C 1.296875 -2.75 1.546875 -2.75 1.6875 -2.75 L 1.6875 -3 C 1.671875 -3 1.15625 -2.96875 0.875 -2.96875 C 0.65625 -2.96875 0.4375 -2.96875 0.21875 -3 L 0.21875 -2.75 C 0.484375 -2.75 0.640625 -2.75 0.71875 -2.546875 L 1.703125 -0.09375 C 1.75 0.015625 1.765625 0.0625 1.90625 0.0625 C 2.03125 0.0625 2.046875 0.015625 2.078125 -0.078125 L 2.890625 -2.0625 L 3.671875 -0.09375 C 3.71875 0 3.75 0.0625 3.875 0.0625 C 4 0.0625 4.015625 0.015625 4.0625 -0.09375 Z M 4.96875 -2.328125 "/>
</g>
<g id="glyph-4-5">
<path d="M 1.40625 -4.828125 L 0.34375 -4.75 L 0.34375 -4.5 C 0.828125 -4.5 0.875 -4.4375 0.875 -4.09375 L 0.875 0 L 1.125 0 L 1.375 -0.421875 C 1.640625 -0.078125 2.03125 0.0625 2.40625 0.0625 C 3.34375 0.0625 4.140625 -0.625 4.140625 -1.5 C 4.140625 -2.34375 3.40625 -3.0625 2.484375 -3.0625 C 2.0625 -3.0625 1.671875 -2.90625 1.40625 -2.65625 Z M 1.4375 -2.328125 C 1.640625 -2.65625 2.015625 -2.875 2.453125 -2.875 C 2.84375 -2.875 3.125 -2.65625 3.265625 -2.4375 C 3.40625 -2.234375 3.5 -1.96875 3.5 -1.515625 C 3.5 -1.34375 3.5 -0.828125 3.203125 -0.5 C 2.921875 -0.1875 2.578125 -0.125 2.375 -0.125 C 1.796875 -0.125 1.515625 -0.5625 1.4375 -0.703125 Z M 1.4375 -2.328125 "/>
</g>
<g id="glyph-4-6">
<path d="M 1.46875 -4.828125 L 0.390625 -4.75 L 0.390625 -4.5 C 0.875 -4.5 0.921875 -4.453125 0.921875 -4.109375 L 0.921875 -0.546875 C 0.921875 -0.25 0.859375 -0.25 0.390625 -0.25 L 0.390625 0 C 0.40625 0 0.90625 -0.03125 1.1875 -0.03125 C 1.46875 -0.03125 1.71875 -0.015625 2 0 L 2 -0.25 C 1.53125 -0.25 1.46875 -0.25 1.46875 -0.546875 Z M 1.46875 -4.828125 "/>
</g>
<g id="glyph-4-7">
<path d="M 1.546875 -2.59375 C 1.546875 -2.84375 1.359375 -3 1.15625 -3 C 0.90625 -3 0.734375 -2.796875 0.734375 -2.59375 C 0.734375 -2.359375 0.9375 -2.203125 1.140625 -2.203125 C 1.390625 -2.203125 1.546875 -2.390625 1.546875 -2.59375 Z M 1.546875 -0.390625 C 1.546875 -0.640625 1.359375 -0.796875 1.15625 -0.796875 C 0.90625 -0.796875 0.734375 -0.609375 0.734375 -0.40625 C 0.734375 -0.15625 0.9375 0 1.140625 0 C 1.390625 0 1.546875 -0.1875 1.546875 -0.390625 Z M 1.546875 -0.390625 "/>
</g>
<g id="glyph-4-8">
<path d="M 3.65625 -2.109375 C 3.65625 -2.71875 3.34375 -3.0625 2.59375 -3.0625 C 1.953125 -3.0625 1.609375 -2.703125 1.453125 -2.4375 L 1.453125 -4.828125 L 0.390625 -4.75 L 0.390625 -4.5 C 0.859375 -4.5 0.921875 -4.453125 0.921875 -4.109375 L 0.921875 -0.546875 C 0.921875 -0.25 0.84375 -0.25 0.390625 -0.25 L 0.390625 0 C 0.390625 0 0.890625 -0.03125 1.1875 -0.03125 C 1.453125 -0.03125 1.9375 0 2 0 L 2 -0.25 C 1.546875 -0.25 1.46875 -0.25 1.46875 -0.546875 L 1.46875 -1.796875 C 1.46875 -2.53125 2.0625 -2.875 2.53125 -2.875 C 3.03125 -2.875 3.09375 -2.484375 3.09375 -2.140625 L 3.09375 -0.546875 C 3.09375 -0.25 3.015625 -0.25 2.5625 -0.25 L 2.5625 0 C 2.578125 0 3.078125 -0.03125 3.375 -0.03125 C 3.625 -0.03125 4.125 0 4.1875 0 L 4.1875 -0.25 C 3.71875 -0.25 3.65625 -0.25 3.65625 -0.546875 Z M 3.65625 -2.109375 "/>
</g>
<g id="glyph-4-9">
<path d="M 1.5 -4.296875 C 1.5 -4.484375 1.328125 -4.6875 1.078125 -4.6875 C 0.875 -4.6875 0.6875 -4.515625 0.6875 -4.296875 C 0.6875 -4.046875 0.890625 -3.890625 1.078125 -3.890625 C 1.3125 -3.890625 1.5 -4.0625 1.5 -4.296875 Z M 0.421875 -2.984375 L 0.421875 -2.734375 C 0.859375 -2.734375 0.921875 -2.703125 0.921875 -2.359375 L 0.921875 -0.546875 C 0.921875 -0.25 0.859375 -0.25 0.390625 -0.25 L 0.390625 0 C 0.40625 0 0.90625 -0.03125 1.1875 -0.03125 C 1.4375 -0.03125 1.703125 -0.015625 1.9375 0 L 1.9375 -0.25 C 1.53125 -0.25 1.46875 -0.25 1.46875 -0.546875 L 1.46875 -3.0625 Z M 0.421875 -2.984375 "/>
</g>
<g id="glyph-4-10">
<path d="M 1.015625 -1.234375 C 1.125 -1.171875 1.390625 -1.015625 1.796875 -1.015625 C 2.53125 -1.015625 3.0625 -1.5 3.0625 -2.046875 C 3.0625 -2.3125 2.921875 -2.53125 2.765625 -2.71875 C 3.078125 -2.9375 3.359375 -2.9375 3.46875 -2.9375 C 3.453125 -2.90625 3.40625 -2.890625 3.40625 -2.78125 C 3.40625 -2.640625 3.515625 -2.546875 3.640625 -2.546875 C 3.734375 -2.546875 3.859375 -2.625 3.859375 -2.78125 C 3.859375 -2.9375 3.734375 -3.140625 3.453125 -3.140625 C 3.34375 -3.140625 2.953125 -3.109375 2.625 -2.8125 C 2.40625 -2.96875 2.109375 -3.0625 1.796875 -3.0625 C 1.078125 -3.0625 0.546875 -2.59375 0.546875 -2.046875 C 0.546875 -1.765625 0.6875 -1.515625 0.875 -1.34375 C 0.828125 -1.28125 0.671875 -1.046875 0.671875 -0.78125 C 0.671875 -0.6875 0.6875 -0.359375 0.96875 -0.15625 C 0.640625 -0.0625 0.28125 0.171875 0.28125 0.53125 C 0.28125 1.046875 1.0625 1.421875 2.015625 1.421875 C 2.921875 1.421875 3.75 1.078125 3.75 0.515625 C 3.75 0.3125 3.671875 -0.0625 3.28125 -0.265625 C 2.859375 -0.484375 2.4375 -0.484375 1.75 -0.484375 C 1.59375 -0.484375 1.34375 -0.484375 1.28125 -0.5 C 1.0625 -0.546875 0.921875 -0.75 0.921875 -0.953125 C 0.921875 -1.125 0.984375 -1.1875 1.015625 -1.234375 Z M 1.796875 -1.234375 C 1.109375 -1.234375 1.109375 -1.890625 1.109375 -2.046875 C 1.109375 -2.15625 1.109375 -2.4375 1.25 -2.609375 C 1.34375 -2.734375 1.546875 -2.859375 1.796875 -2.859375 C 2.484375 -2.859375 2.484375 -2.1875 2.484375 -2.046875 C 2.484375 -1.9375 2.484375 -1.65625 2.34375 -1.46875 C 2.25 -1.359375 2.0625 -1.234375 1.796875 -1.234375 Z M 1.796875 -0.015625 C 2.4375 -0.015625 3.3125 -0.015625 3.3125 0.53125 C 3.3125 0.890625 2.765625 1.21875 2.015625 1.21875 C 1.265625 1.21875 0.703125 0.890625 0.703125 0.53125 C 0.703125 0.28125 0.9375 -0.015625 1.390625 -0.015625 Z M 1.796875 -0.015625 "/>
</g>
<g id="glyph-4-11">
<path d="M 2.765625 -2.78125 C 2.625 -2.71875 2.5625 -2.609375 2.5625 -2.46875 C 2.5625 -2.28125 2.703125 -2.140625 2.890625 -2.140625 C 3.078125 -2.140625 3.234375 -2.265625 3.234375 -2.484375 C 3.234375 -3.09375 2.25 -3.09375 2.046875 -3.09375 C 0.984375 -3.09375 0.328125 -2.296875 0.328125 -1.5 C 0.328125 -0.625 1.078125 0.0625 2.015625 0.0625 C 3.078125 0.0625 3.3125 -0.75 3.3125 -0.828125 C 3.3125 -0.921875 3.234375 -0.921875 3.203125 -0.921875 C 3.109375 -0.921875 3.09375 -0.890625 3.0625 -0.796875 C 2.90625 -0.375 2.53125 -0.15625 2.09375 -0.15625 C 1.609375 -0.15625 0.96875 -0.5 0.96875 -1.515625 C 0.96875 -2.390625 1.40625 -2.875 2.078125 -2.875 C 2.15625 -2.875 2.5 -2.875 2.765625 -2.78125 Z M 2.765625 -2.78125 "/>
</g>
<g id="glyph-4-12">
<path d="M 2.53125 -4.75 L 2.53125 -4.5 C 3 -4.5 3.0625 -4.453125 3.0625 -4.109375 L 3.0625 -2.671875 C 2.796875 -2.921875 2.453125 -3.0625 2.0625 -3.0625 C 1.125 -3.0625 0.328125 -2.375 0.328125 -1.5 C 0.328125 -0.625 1.078125 0.0625 1.984375 0.0625 C 2.5625 0.0625 2.90625 -0.234375 3.03125 -0.359375 L 3.03125 0.0625 L 4.125 0 L 4.125 -0.25 C 3.640625 -0.25 3.59375 -0.296875 3.59375 -0.640625 L 3.59375 -4.828125 Z M 3.03125 -0.734375 C 2.84375 -0.40625 2.484375 -0.125 2.015625 -0.125 C 1.625 -0.125 1.34375 -0.359375 1.203125 -0.5625 C 1.0625 -0.765625 0.96875 -1.046875 0.96875 -1.484375 C 0.96875 -1.640625 0.96875 -2.171875 1.265625 -2.5 C 1.546875 -2.8125 1.890625 -2.875 2.09375 -2.875 C 2.4375 -2.875 2.75 -2.71875 2.9375 -2.46875 C 3.03125 -2.359375 3.03125 -2.34375 3.03125 -2.21875 Z M 3.03125 -0.734375 "/>
</g>
<g id="glyph-4-13">
<path d="M 2.6875 -2.921875 C 2.6875 -3.03125 2.6875 -3.09375 2.59375 -3.09375 C 2.546875 -3.09375 2.546875 -3.09375 2.453125 -3.015625 C 2.4375 -3.015625 2.359375 -2.953125 2.3125 -2.90625 C 2.109375 -3.0625 1.84375 -3.09375 1.578125 -3.09375 C 0.5625 -3.09375 0.3125 -2.578125 0.3125 -2.234375 C 0.3125 -2.015625 0.421875 -1.828125 0.59375 -1.6875 C 0.859375 -1.453125 1.125 -1.40625 1.5625 -1.34375 C 1.921875 -1.28125 2.5 -1.1875 2.5 -0.71875 C 2.5 -0.4375 2.3125 -0.125 1.625 -0.125 C 0.9375 -0.125 0.6875 -0.5625 0.5625 -1.03125 C 0.546875 -1.125 0.546875 -1.15625 0.4375 -1.15625 C 0.3125 -1.15625 0.3125 -1.109375 0.3125 -0.96875 L 0.3125 -0.109375 C 0.3125 0 0.3125 0.0625 0.421875 0.0625 C 0.484375 0.0625 0.609375 -0.078125 0.765625 -0.234375 C 1.078125 0.0625 1.453125 0.0625 1.625 0.0625 C 2.546875 0.0625 2.890625 -0.421875 2.890625 -0.90625 C 2.890625 -1.171875 2.765625 -1.390625 2.578125 -1.546875 C 2.3125 -1.796875 1.984375 -1.84375 1.734375 -1.890625 C 1.171875 -1.984375 0.703125 -2.078125 0.703125 -2.4375 C 0.703125 -2.65625 0.90625 -2.9375 1.578125 -2.9375 C 2.390625 -2.9375 2.4375 -2.375 2.453125 -2.171875 C 2.453125 -2.09375 2.546875 -2.09375 2.5625 -2.09375 C 2.6875 -2.09375 2.6875 -2.140625 2.6875 -2.28125 Z M 2.6875 -2.921875 "/>
</g>
<g id="glyph-4-14">
<path d="M 1.421875 -2.75 L 2.53125 -2.75 L 2.53125 -3 L 1.421875 -3 L 1.421875 -4.28125 L 1.1875 -4.28125 C 1.171875 -3.65625 0.890625 -2.96875 0.203125 -2.9375 L 0.203125 -2.75 L 0.859375 -2.75 L 0.859375 -0.875 C 0.859375 -0.09375 1.46875 0.0625 1.859375 0.0625 C 2.328125 0.0625 2.65625 -0.328125 2.65625 -0.875 L 2.65625 -1.265625 L 2.421875 -1.265625 L 2.421875 -0.890625 C 2.421875 -0.40625 2.1875 -0.15625 1.921875 -0.15625 C 1.421875 -0.15625 1.421875 -0.734375 1.421875 -0.859375 Z M 1.421875 -2.75 "/>
</g>
<g id="glyph-4-15">
<path d="M 2.5625 -2.984375 L 2.5625 -2.734375 C 3.03125 -2.734375 3.09375 -2.6875 3.09375 -2.34375 L 3.09375 -1.15625 C 3.09375 -0.546875 2.6875 -0.125 2.15625 -0.125 C 1.5 -0.125 1.46875 -0.421875 1.46875 -0.78125 L 1.46875 -3.0625 L 0.390625 -2.984375 L 0.390625 -2.734375 C 0.921875 -2.734375 0.921875 -2.71875 0.921875 -2.09375 L 0.921875 -1.0625 C 0.921875 -0.578125 0.921875 0.0625 2.09375 0.0625 C 2.25 0.0625 2.78125 0.0625 3.109375 -0.515625 L 3.125 -0.515625 L 3.125 0.0625 L 4.1875 0 L 4.1875 -0.25 C 3.703125 -0.25 3.65625 -0.296875 3.65625 -0.640625 L 3.65625 -3.0625 Z M 2.5625 -2.984375 "/>
</g>
<g id="glyph-4-16">
<path d="M 3.359375 -2.3125 C 3.546875 -2.734375 3.921875 -2.75 4.03125 -2.75 L 4.03125 -3 C 3.828125 -2.984375 3.703125 -2.96875 3.484375 -2.96875 C 3.296875 -2.96875 3.03125 -2.96875 2.84375 -3 L 2.84375 -2.75 C 3.078125 -2.734375 3.140625 -2.59375 3.140625 -2.484375 C 3.140625 -2.40625 3.09375 -2.34375 3.078125 -2.265625 L 2.28125 -0.625 L 1.40625 -2.453125 C 1.390625 -2.5 1.375 -2.53125 1.375 -2.59375 C 1.375 -2.75 1.609375 -2.75 1.734375 -2.75 L 1.734375 -3 C 1.625 -2.984375 1.109375 -2.96875 0.921875 -2.96875 C 0.703125 -2.96875 0.421875 -2.96875 0.21875 -3 L 0.21875 -2.75 C 0.609375 -2.75 0.6875 -2.71875 0.796875 -2.5 L 2 0 C 1.921875 0.140625 1.859375 0.265625 1.796875 0.40625 C 1.640625 0.75 1.40625 1.21875 0.921875 1.21875 C 0.75 1.21875 0.6875 1.1875 0.625 1.140625 C 0.625 1.140625 0.828125 1.078125 0.828125 0.84375 C 0.828125 0.671875 0.703125 0.546875 0.53125 0.546875 C 0.34375 0.546875 0.21875 0.671875 0.21875 0.84375 C 0.21875 1.171875 0.546875 1.421875 0.921875 1.421875 C 1.53125 1.421875 1.875 0.796875 1.984375 0.59375 Z M 3.359375 -2.3125 "/>
</g>
<g id="glyph-4-17">
<path d="M 3.125 -1.578125 C 3.265625 -1.578125 3.3125 -1.578125 3.3125 -1.734375 C 3.3125 -2.34375 2.96875 -3.09375 1.921875 -3.09375 C 0.984375 -3.09375 0.28125 -2.375 0.28125 -1.515625 C 0.28125 -0.640625 1.0625 0.0625 2 0.0625 C 2.96875 0.0625 3.3125 -0.6875 3.3125 -0.828125 C 3.3125 -0.859375 3.3125 -0.9375 3.203125 -0.9375 C 3.109375 -0.9375 3.09375 -0.890625 3.078125 -0.828125 C 2.859375 -0.25 2.3125 -0.15625 2.0625 -0.15625 C 1.71875 -0.15625 1.40625 -0.296875 1.1875 -0.5625 C 0.921875 -0.890625 0.921875 -1.3125 0.921875 -1.578125 Z M 0.921875 -1.765625 C 1 -2.75 1.640625 -2.90625 1.921875 -2.90625 C 2.78125 -2.90625 2.8125 -1.9375 2.828125 -1.765625 Z M 0.921875 -1.765625 "/>
</g>
<g id="glyph-4-18">
<path d="M 3.359375 -2.3125 C 3.5625 -2.734375 3.921875 -2.75 4.03125 -2.75 L 4.03125 -3 C 3.859375 -2.984375 3.671875 -2.96875 3.484375 -2.96875 C 3.296875 -2.96875 3.03125 -2.96875 2.84375 -3 L 2.84375 -2.75 C 3.140625 -2.734375 3.140625 -2.5 3.140625 -2.484375 C 3.140625 -2.453125 3.140625 -2.375 3.078125 -2.28125 L 2.28125 -0.5625 L 1.40625 -2.453125 C 1.40625 -2.46875 1.359375 -2.53125 1.359375 -2.59375 C 1.359375 -2.75 1.609375 -2.75 1.71875 -2.75 L 1.71875 -3 C 1.703125 -3 1.203125 -2.96875 0.921875 -2.96875 C 0.703125 -2.96875 0.421875 -2.96875 0.21875 -3 L 0.21875 -2.75 C 0.609375 -2.75 0.6875 -2.734375 0.796875 -2.5 L 1.921875 -0.078125 C 1.953125 0 2 0.0625 2.125 0.0625 C 2.25 0.0625 2.28125 0 2.3125 -0.0625 Z M 3.359375 -2.3125 "/>
</g>
<g id="glyph-4-19">
<path d="M 1.4375 -0.109375 C 1.4375 0.078125 1.4375 0.671875 0.890625 1.15625 C 0.859375 1.1875 0.84375 1.203125 0.84375 1.25 C 0.84375 1.28125 0.890625 1.34375 0.9375 1.34375 C 1.03125 1.34375 1.640625 0.796875 1.640625 -0.046875 C 1.640625 -0.453125 1.46875 -0.796875 1.140625 -0.796875 C 0.890625 -0.796875 0.734375 -0.609375 0.734375 -0.390625 C 0.734375 -0.234375 0.84375 0 1.15625 0 C 1.328125 0 1.4375 -0.109375 1.4375 -0.109375 Z M 1.4375 -0.109375 "/>
</g>
<g id="glyph-4-20">
<path d="M 5.828125 -2.109375 C 5.828125 -2.71875 5.53125 -3.0625 4.765625 -3.0625 C 4.203125 -3.0625 3.828125 -2.765625 3.625 -2.421875 C 3.484375 -2.90625 3.109375 -3.0625 2.59375 -3.0625 C 2 -3.0625 1.625 -2.75 1.4375 -2.390625 L 1.421875 -2.390625 L 1.421875 -3.0625 L 0.390625 -2.984375 L 0.390625 -2.734375 C 0.859375 -2.734375 0.921875 -2.6875 0.921875 -2.34375 L 0.921875 -0.546875 C 0.921875 -0.25 0.84375 -0.25 0.390625 -0.25 L 0.390625 0 C 0.390625 0 0.890625 -0.03125 1.1875 -0.03125 C 1.453125 -0.03125 1.9375 0 2 0 L 2 -0.25 C 1.546875 -0.25 1.46875 -0.25 1.46875 -0.546875 L 1.46875 -1.796875 C 1.46875 -2.53125 2.0625 -2.875 2.53125 -2.875 C 3.03125 -2.875 3.09375 -2.484375 3.09375 -2.140625 L 3.09375 -0.546875 C 3.09375 -0.25 3.015625 -0.25 2.5625 -0.25 L 2.5625 0 C 2.578125 0 3.078125 -0.03125 3.375 -0.03125 C 3.625 -0.03125 4.125 0 4.1875 0 L 4.1875 -0.25 C 3.71875 -0.25 3.65625 -0.25 3.65625 -0.546875 L 3.65625 -1.796875 C 3.65625 -2.53125 4.234375 -2.875 4.703125 -2.875 C 5.203125 -2.875 5.265625 -2.484375 5.265625 -2.140625 L 5.265625 -0.546875 C 5.265625 -0.25 5.203125 -0.25 4.734375 -0.25 L 4.734375 0 C 4.75 0 5.25 -0.03125 5.546875 -0.03125 C 5.8125 -0.03125 6.296875 0 6.359375 0 L 6.359375 -0.25 C 5.90625 -0.25 5.828125 -0.25 5.828125 -0.546875 Z M 5.828125 -2.109375 "/>
</g>
<g id="glyph-4-21">
<path d="M 2.515625 -5.21875 C 1.171875 -4.28125 0.8125 -2.8125 0.8125 -1.75 C 0.8125 -0.765625 1.109375 0.765625 2.515625 1.734375 C 2.578125 1.734375 2.65625 1.734375 2.65625 1.640625 C 2.65625 1.609375 2.640625 1.59375 2.59375 1.546875 C 1.640625 0.703125 1.296875 -0.46875 1.296875 -1.734375 C 1.296875 -3.609375 2.03125 -4.53125 2.609375 -5.046875 C 2.640625 -5.078125 2.65625 -5.09375 2.65625 -5.125 C 2.65625 -5.21875 2.578125 -5.21875 2.515625 -5.21875 Z M 2.515625 -5.21875 "/>
</g>
<g id="glyph-4-22">
<path d="M 0.640625 -5.21875 C 0.59375 -5.21875 0.5 -5.21875 0.5 -5.125 C 0.5 -5.09375 0.53125 -5.078125 0.5625 -5.03125 C 1.171875 -4.484375 1.859375 -3.546875 1.859375 -1.75 C 1.859375 -0.296875 1.390625 0.8125 0.625 1.484375 C 0.515625 1.609375 0.5 1.609375 0.5 1.640625 C 0.5 1.6875 0.53125 1.734375 0.59375 1.734375 C 0.6875 1.734375 1.359375 1.265625 1.828125 0.40625 C 2.140625 -0.171875 2.34375 -0.921875 2.34375 -1.734375 C 2.34375 -2.71875 2.046875 -4.234375 0.640625 -5.21875 Z M 0.640625 -5.21875 "/>
</g>
<g id="glyph-4-23">
<path d="M 1.796875 -4.171875 C 1.796875 -4.421875 1.796875 -4.5 2.390625 -4.5 L 2.5625 -4.5 L 2.5625 -4.75 C 2.515625 -4.75 1.75 -4.71875 1.46875 -4.71875 C 1.1875 -4.71875 0.40625 -4.75 0.359375 -4.75 L 0.359375 -4.5 L 0.546875 -4.5 C 1.125 -4.5 1.125 -4.421875 1.125 -4.171875 L 1.125 -0.5625 C 1.125 -0.328125 1.125 -0.25 0.546875 -0.25 L 0.359375 -0.25 L 0.359375 0 C 0.421875 0 1.1875 -0.03125 1.46875 -0.03125 C 1.75 -0.03125 2.53125 0 2.5625 0 L 2.5625 -0.25 L 2.390625 -0.25 C 1.796875 -0.25 1.796875 -0.328125 1.796875 -0.5625 Z M 1.796875 -4.171875 "/>
</g>
<g id="glyph-4-24">
<path d="M 1.546875 -0.390625 C 1.546875 -0.640625 1.359375 -0.796875 1.15625 -0.796875 C 0.90625 -0.796875 0.734375 -0.609375 0.734375 -0.40625 C 0.734375 -0.15625 0.9375 0 1.140625 0 C 1.390625 0 1.546875 -0.1875 1.546875 -0.390625 Z M 1.546875 -0.390625 "/>
</g>
<g id="glyph-5-0">
<path d="M 2.40625 -4.8125 C 2.40625 -5.015625 2.40625 -5.21875 2.6875 -5.46875 C 2.75 -5.515625 2.96875 -5.703125 3.46875 -5.734375 C 3.5625 -5.75 3.625 -5.75 3.625 -5.859375 C 3.625 -5.96875 3.546875 -5.96875 3.4375 -5.96875 C 2.578125 -5.96875 1.828125 -5.5625 1.8125 -4.96875 L 1.8125 -2.9375 C 1.796875 -2.515625 1.40625 -2.140625 0.75 -2.09375 C 0.65625 -2.09375 0.59375 -2.09375 0.59375 -1.984375 C 0.59375 -1.890625 0.65625 -1.890625 0.71875 -1.875 C 1.484375 -1.828125 1.734375 -1.421875 1.796875 -1.203125 C 1.8125 -1.109375 1.8125 -1.09375 1.8125 -0.796875 L 1.8125 0.828125 C 1.8125 1.078125 1.8125 1.4375 2.328125 1.71875 C 2.671875 1.921875 3.15625 1.984375 3.4375 1.984375 C 3.546875 1.984375 3.625 1.984375 3.625 1.875 C 3.625 1.78125 3.5625 1.78125 3.484375 1.765625 C 2.75 1.71875 2.484375 1.34375 2.4375 1.09375 C 2.40625 1.015625 2.40625 1 2.40625 0.71875 L 2.40625 -0.953125 C 2.40625 -1.15625 2.40625 -1.703125 1.484375 -1.984375 C 2.078125 -2.171875 2.3125 -2.453125 2.390625 -2.75 C 2.40625 -2.84375 2.40625 -2.90625 2.40625 -3.15625 Z M 2.40625 -4.8125 "/>
</g>
<g id="glyph-5-1">
<path d="M 2.40625 -4.796875 C 2.40625 -5.03125 2.40625 -5.375 1.984375 -5.65625 C 1.65625 -5.875 1.125 -5.96875 0.78125 -5.96875 C 0.671875 -5.96875 0.59375 -5.96875 0.59375 -5.859375 C 0.59375 -5.75 0.65625 -5.75 0.71875 -5.734375 C 1.453125 -5.6875 1.734375 -5.34375 1.796875 -5.046875 C 1.8125 -4.96875 1.8125 -4.921875 1.8125 -4.796875 L 1.8125 -3.140625 C 1.8125 -2.78125 1.8125 -2.265625 2.734375 -1.984375 C 2.296875 -1.859375 1.953125 -1.625 1.84375 -1.21875 C 1.8125 -1.125 1.8125 -1.078125 1.8125 -0.828125 L 1.8125 0.609375 C 1.8125 1.140625 1.8125 1.203125 1.546875 1.484375 C 1.53125 1.5 1.296875 1.71875 0.75 1.765625 C 0.640625 1.78125 0.59375 1.78125 0.59375 1.875 C 0.59375 1.984375 0.671875 1.984375 0.78125 1.984375 C 1.640625 1.984375 2.40625 1.59375 2.40625 0.984375 L 2.40625 -0.609375 C 2.40625 -1.15625 2.40625 -1.34375 2.640625 -1.5625 C 2.90625 -1.796875 3.203125 -1.859375 3.46875 -1.875 C 3.578125 -1.890625 3.625 -1.890625 3.625 -1.984375 C 3.625 -2.09375 3.5625 -2.09375 3.484375 -2.09375 C 2.609375 -2.15625 2.40625 -2.703125 2.40625 -2.9375 Z M 2.40625 -4.796875 "/>
</g>
<g id="glyph-6-0">
<path d="M 1.609375 -2.984375 C 1.609375 -3.25 1.40625 -3.421875 1.171875 -3.421875 C 0.90625 -3.421875 0.734375 -3.21875 0.734375 -2.984375 C 0.734375 -2.71875 0.953125 -2.546875 1.171875 -2.546875 C 1.4375 -2.546875 1.609375 -2.765625 1.609375 -2.984375 Z M 1.609375 -0.4375 C 1.609375 -0.703125 1.40625 -0.875 1.171875 -0.875 C 0.90625 -0.875 0.734375 -0.671875 0.734375 -0.453125 C 0.734375 -0.171875 0.953125 0 1.171875 0 C 1.4375 0 1.609375 -0.21875 1.609375 -0.4375 Z M 1.609375 -0.4375 "/>
</g>
<g id="glyph-6-1">
<path d="M 2.640625 1.984375 C 2.71875 1.984375 2.8125 1.984375 2.8125 1.890625 C 2.8125 1.859375 2.796875 1.859375 2.703125 1.75 C 1.609375 0.71875 1.34375 -0.75 1.34375 -1.984375 C 1.34375 -4.28125 2.28125 -5.359375 2.6875 -5.71875 C 2.796875 -5.828125 2.8125 -5.828125 2.8125 -5.875 C 2.8125 -5.90625 2.78125 -5.96875 2.703125 -5.96875 C 2.5625 -5.96875 2.171875 -5.5625 2.109375 -5.484375 C 1.046875 -4.375 0.8125 -2.9375 0.8125 -1.984375 C 0.8125 -0.203125 1.5625 1.21875 2.640625 1.984375 Z M 2.640625 1.984375 "/>
</g>
<g id="glyph-6-2">
<path d="M 2.453125 -1.984375 C 2.453125 -2.75 2.328125 -3.65625 1.84375 -4.59375 C 1.453125 -5.328125 0.71875 -5.96875 0.578125 -5.96875 C 0.5 -5.96875 0.484375 -5.90625 0.484375 -5.875 C 0.484375 -5.84375 0.484375 -5.828125 0.578125 -5.71875 C 1.6875 -4.671875 1.9375 -3.21875 1.9375 -1.984375 C 1.9375 0.296875 1 1.375 0.59375 1.734375 C 0.484375 1.84375 0.484375 1.859375 0.484375 1.890625 C 0.484375 1.9375 0.5 1.984375 0.578125 1.984375 C 0.703125 1.984375 1.109375 1.578125 1.171875 1.515625 C 2.234375 0.390625 2.453125 -1.03125 2.453125 -1.984375 Z M 2.453125 -1.984375 "/>
</g>
<g id="glyph-6-3">
<path d="M 5.8125 -2.640625 C 5.9375 -2.640625 6.09375 -2.640625 6.09375 -2.828125 C 6.09375 -3.015625 5.90625 -3.015625 5.78125 -3.015625 L 0.78125 -3.015625 C 0.65625 -3.015625 0.46875 -3.015625 0.46875 -2.828125 C 0.46875 -2.640625 0.625 -2.640625 0.75 -2.640625 Z M 5.78125 -0.96875 C 5.90625 -0.96875 6.09375 -0.96875 6.09375 -1.140625 C 6.09375 -1.328125 5.9375 -1.328125 5.8125 -1.328125 L 0.75 -1.328125 C 0.625 -1.328125 0.46875 -1.328125 0.46875 -1.140625 C 0.46875 -0.96875 0.65625 -0.96875 0.78125 -0.96875 Z M 5.78125 -0.96875 "/>
</g>
<g id="glyph-6-4">
<path d="M 2.5 -5.0625 C 2.5 -5.28125 2.484375 -5.28125 2.265625 -5.28125 C 1.9375 -4.96875 1.515625 -4.78125 0.765625 -4.78125 L 0.765625 -4.515625 C 0.984375 -4.515625 1.40625 -4.515625 1.875 -4.734375 L 1.875 -0.65625 C 1.875 -0.359375 1.84375 -0.265625 1.09375 -0.265625 L 0.8125 -0.265625 L 0.8125 0 C 1.140625 -0.03125 1.828125 -0.03125 2.171875 -0.03125 C 2.53125 -0.03125 3.234375 -0.03125 3.5625 0 L 3.5625 -0.265625 L 3.28125 -0.265625 C 2.515625 -0.265625 2.5 -0.359375 2.5 -0.65625 Z M 2.5 -5.0625 "/>
</g>
<g id="glyph-7-0">
<path d="M 3.015625 -3.828125 L 4.921875 -3.828125 C 5.03125 -3.828125 5.171875 -3.828125 5.171875 -3.984375 C 5.171875 -4.125 5.03125 -4.125 4.921875 -4.125 L 0.796875 -4.125 C 0.703125 -4.125 0.546875 -4.125 0.546875 -3.984375 C 0.546875 -3.828125 0.703125 -3.828125 0.796875 -3.828125 L 2.703125 -3.828125 L 2.703125 -0.25 C 2.703125 -0.15625 2.703125 0 2.859375 0 C 3.015625 0 3.015625 -0.15625 3.015625 -0.25 Z M 3.015625 -3.828125 "/>
</g>
<g id="glyph-8-0">
<path d="M 6.484375 -5.328125 C 6.484375 -5.46875 6.484375 -5.5625 6.3125 -5.5625 C 6.25 -5.5625 6.21875 -5.5625 6.125 -5.484375 L 5.609375 -5.03125 C 5.25 -5.265625 4.75 -5.5625 3.921875 -5.5625 C 1.75 -5.5625 0.546875 -4.296875 0.546875 -2.734375 C 0.546875 -1.171875 1.71875 0.109375 3.921875 0.109375 C 5.5 0.109375 6.484375 -0.828125 6.484375 -1.8125 C 6.484375 -2 6.40625 -2 6.265625 -2 C 6.0625 -2 6.046875 -1.96875 6.046875 -1.765625 C 5.984375 -0.9375 5.15625 -0.296875 4.109375 -0.296875 C 3.234375 -0.296875 2.640625 -0.625 2.328125 -0.96875 C 1.96875 -1.359375 1.8125 -1.90625 1.8125 -2.734375 C 1.8125 -3.078125 1.828125 -3.953125 2.3125 -4.484375 C 2.875 -5.09375 3.71875 -5.15625 4.078125 -5.15625 C 4.890625 -5.15625 5.765625 -4.65625 5.96875 -3.515625 C 5.984375 -3.359375 6.046875 -3.359375 6.234375 -3.359375 C 6.453125 -3.359375 6.484375 -3.375 6.484375 -3.609375 Z M 6.484375 -5.328125 "/>
</g>
<g id="glyph-8-1">
<path d="M 1.8125 -1.703125 C 1.8125 -2.328125 2.0625 -3.234375 2.828125 -3.25 C 2.828125 -3.25 2.703125 -3.125 2.703125 -2.890625 C 2.703125 -2.578125 2.921875 -2.375 3.21875 -2.375 C 3.515625 -2.375 3.75 -2.578125 3.75 -2.890625 C 3.75 -3.328125 3.296875 -3.59375 2.84375 -3.59375 C 2.15625 -3.59375 1.84375 -3.03125 1.71875 -2.734375 L 1.703125 -2.734375 L 1.703125 -3.59375 L 0.359375 -3.515625 L 0.359375 -3.109375 C 0.828125 -3.109375 0.890625 -3.109375 0.890625 -2.796875 L 0.890625 -0.40625 L 0.359375 -0.40625 L 0.359375 0 C 0.828125 -0.03125 0.90625 -0.03125 1.390625 -0.03125 C 1.84375 -0.03125 1.859375 -0.03125 2.46875 0 L 2.46875 -0.40625 L 1.8125 -0.40625 Z M 1.8125 -1.703125 "/>
</g>
<g id="glyph-8-2">
<path d="M 4 -2.359375 C 4 -3.0625 3.421875 -3.625 2.125 -3.625 C 1.734375 -3.625 0.59375 -3.625 0.59375 -2.828125 C 0.59375 -2.484375 0.859375 -2.296875 1.125 -2.296875 C 1.453125 -2.296875 1.671875 -2.515625 1.671875 -2.828125 C 1.671875 -3.078125 1.515625 -3.21875 1.5 -3.234375 C 1.5625 -3.25 1.796875 -3.28125 2.109375 -3.28125 C 2.75 -3.28125 3.015625 -2.9375 3.015625 -2.359375 L 3.015625 -2.125 C 1.828125 -2.125 0.28125 -1.859375 0.28125 -0.890625 C 0.28125 -0.21875 1.046875 0.0625 1.90625 0.0625 C 2.734375 0.0625 3.0625 -0.375 3.171875 -0.546875 C 3.171875 -0.296875 3.265625 0 4.03125 0 L 4.453125 0 C 4.609375 0 4.71875 0 4.71875 -0.203125 C 4.71875 -0.40625 4.59375 -0.40625 4.484375 -0.40625 C 4 -0.40625 4 -0.5 4 -0.671875 Z M 3.015625 -1.09375 C 3.015625 -0.28125 2.0625 -0.28125 2.03125 -0.28125 C 1.625 -0.28125 1.25 -0.53125 1.25 -0.90625 C 1.25 -1.46875 1.984375 -1.8125 3.015625 -1.828125 Z M 3.015625 -1.09375 "/>
</g>
<g id="glyph-8-3">
<path d="M 7.34375 -2.40625 C 7.34375 -3.359375 6.765625 -3.59375 6.03125 -3.59375 C 5.203125 -3.59375 4.765625 -3.109375 4.59375 -2.859375 C 4.40625 -3.46875 3.875 -3.59375 3.328125 -3.59375 C 2.375 -3.59375 1.9375 -2.953125 1.84375 -2.78125 L 1.84375 -3.59375 L 0.453125 -3.515625 L 0.453125 -3.109375 C 0.921875 -3.109375 0.96875 -3.109375 0.96875 -2.796875 L 0.96875 -0.40625 L 0.453125 -0.40625 L 0.453125 0 C 0.875 -0.03125 1.15625 -0.03125 1.453125 -0.03125 C 1.765625 -0.03125 2.03125 -0.03125 2.46875 0 L 2.46875 -0.40625 L 1.9375 -0.40625 L 1.9375 -2.015625 C 1.9375 -2.890625 2.703125 -3.25 3.21875 -3.25 C 3.484375 -3.25 3.671875 -3.125 3.671875 -2.5 L 3.671875 -0.40625 L 3.15625 -0.40625 L 3.15625 0 C 3.578125 -0.03125 3.859375 -0.03125 4.15625 -0.03125 C 4.46875 -0.03125 4.734375 -0.03125 5.171875 0 L 5.171875 -0.40625 L 4.640625 -0.40625 L 4.640625 -2.015625 C 4.640625 -2.890625 5.40625 -3.25 5.921875 -3.25 C 6.203125 -3.25 6.375 -3.125 6.375 -2.5 L 6.375 -0.40625 L 5.859375 -0.40625 L 5.859375 0 C 6.28125 -0.03125 6.5625 -0.03125 6.859375 -0.03125 C 7.171875 -0.03125 7.4375 -0.03125 7.875 0 L 7.875 -0.40625 L 7.34375 -0.40625 Z M 7.34375 -2.40625 "/>
</g>
<g id="glyph-8-4">
<path d="M 3.578125 -4.640625 C 3.640625 -4.671875 3.875 -4.78125 3.875 -5.0625 C 3.875 -5.3125 3.65625 -5.59375 3.375 -5.59375 C 3.234375 -5.59375 3.109375 -5.53125 3 -5.421875 L 2.015625 -4.375 L 2.28125 -4.015625 Z M 3.578125 -4.640625 "/>
</g>
<g id="glyph-8-5">
<path d="M 3.90625 -1.6875 C 4.078125 -1.6875 4.1875 -1.6875 4.1875 -1.921875 C 4.1875 -2.265625 4.109375 -2.78125 3.703125 -3.171875 C 3.265625 -3.625 2.546875 -3.625 2.359375 -3.625 C 0.953125 -3.625 0.265625 -2.734375 0.265625 -1.796875 C 0.265625 -0.765625 1.0625 0.0625 2.484375 0.0625 C 3.875 0.0625 4.1875 -0.796875 4.1875 -0.921875 C 4.1875 -1.078125 4.015625 -1.078125 3.953125 -1.078125 C 3.828125 -1.078125 3.796875 -1.0625 3.734375 -0.9375 C 3.46875 -0.375 2.796875 -0.3125 2.578125 -0.3125 C 1.40625 -0.3125 1.359375 -1.234375 1.34375 -1.6875 Z M 1.34375 -2 C 1.359375 -2.3125 1.390625 -3.28125 2.375 -3.28125 C 3.359375 -3.28125 3.390625 -2.3125 3.40625 -2 Z M 1.34375 -2 "/>
</g>
<g id="glyph-8-6">
<path d="M 4.875 -2.015625 L 4.875 -2.34375 L 0 -2.34375 L 0 -2.015625 Z M 4.875 -2.015625 "/>
</g>
<g id="glyph-8-7">
<path d="M 4.734375 -2.703125 C 5.578125 -2.9375 6.046875 -3.40625 6.046875 -3.96875 C 6.046875 -4.8125 5.078125 -5.453125 3.546875 -5.453125 L 0.375 -5.453125 L 0.375 -5.046875 L 1.234375 -5.046875 L 1.234375 -0.40625 L 0.375 -0.40625 L 0.375 0 C 0.6875 -0.03125 1.453125 -0.03125 1.8125 -0.03125 C 2.15625 -0.03125 2.921875 -0.03125 3.234375 0 L 3.234375 -0.40625 L 2.375 -0.40625 L 2.375 -2.5625 L 3.390625 -2.5625 C 3.6875 -2.5625 3.96875 -2.484375 4.1875 -2.265625 C 4.421875 -2.03125 4.421875 -1.859375 4.421875 -1.3125 C 4.421875 -0.78125 4.421875 -0.421875 4.9375 -0.140625 C 5.28125 0.0625 5.84375 0.109375 6.21875 0.109375 C 7.109375 0.109375 7.25 -0.59375 7.25 -0.78125 C 7.25 -0.953125 7.125 -0.984375 7.015625 -0.984375 C 6.859375 -0.984375 6.8125 -0.90625 6.796875 -0.796875 C 6.765625 -0.296875 6.4375 -0.21875 6.296875 -0.21875 C 5.796875 -0.21875 5.734375 -0.734375 5.640625 -1.40625 C 5.578125 -1.9375 5.515625 -2.40625 4.734375 -2.703125 Z M 3.40625 -2.890625 L 2.375 -2.890625 L 2.375 -5.046875 L 3.421875 -5.046875 C 4.71875 -5.046875 4.78125 -4.46875 4.78125 -3.96875 C 4.78125 -3.5 4.734375 -2.890625 3.40625 -2.890625 Z M 3.40625 -2.890625 "/>
</g>
<g id="glyph-8-8">
<path d="M 4.59375 -1.734375 C 4.59375 -2.734375 3.890625 -3.625 2.4375 -3.625 C 0.96875 -3.625 0.265625 -2.734375 0.265625 -1.734375 C 0.265625 -0.78125 0.96875 0.0625 2.4375 0.0625 C 3.90625 0.0625 4.59375 -0.796875 4.59375 -1.734375 Z M 2.4375 -0.3125 C 1.34375 -0.3125 1.34375 -1.140625 1.34375 -1.828125 C 1.34375 -2.484375 1.34375 -3.28125 2.4375 -3.28125 C 3.515625 -3.28125 3.515625 -2.46875 3.515625 -1.828125 C 3.515625 -1.140625 3.515625 -0.3125 2.4375 -0.3125 Z M 2.4375 -0.3125 "/>
</g>
<g id="glyph-8-9">
<path d="M 1.8125 -5.515625 L 0.359375 -5.453125 L 0.359375 -5.046875 C 0.828125 -5.046875 0.890625 -5.046875 0.890625 -4.734375 L 0.890625 0 L 1.34375 0 L 1.703125 -0.4375 C 2.0625 -0.09375 2.46875 0.0625 2.9375 0.0625 C 4.28125 0.0625 5.078125 -0.734375 5.078125 -1.765625 C 5.078125 -2.828125 4.296875 -3.59375 3.046875 -3.59375 C 2.4375 -3.59375 2.015625 -3.359375 1.8125 -3.21875 Z M 1.859375 -2.734375 C 2 -2.9375 2.40625 -3.25 2.96875 -3.25 C 4.015625 -3.25 4.015625 -2.28125 4.015625 -1.796875 C 4.015625 -1.28125 4.015625 -0.28125 2.875 -0.28125 C 2.28125 -0.28125 1.953125 -0.71875 1.859375 -0.84375 Z M 1.859375 -2.734375 "/>
</g>
<g id="glyph-8-10">
<path d="M 3.15625 -3.515625 L 3.15625 -3.109375 C 3.625 -3.109375 3.671875 -3.109375 3.671875 -2.796875 L 3.671875 -1.28125 C 3.671875 -0.6875 3.25 -0.28125 2.609375 -0.28125 C 1.96875 -0.28125 1.9375 -0.46875 1.9375 -0.859375 L 1.9375 -3.59375 L 0.453125 -3.515625 L 0.453125 -3.109375 C 0.921875 -3.109375 0.96875 -3.109375 0.96875 -2.796875 L 0.96875 -0.984375 C 0.96875 -0.09375 1.71875 0.0625 2.5 0.0625 C 2.765625 0.0625 3.296875 0.0625 3.71875 -0.5 L 3.71875 0.0625 L 5.171875 0 L 5.171875 -0.40625 C 4.703125 -0.40625 4.640625 -0.40625 4.640625 -0.71875 L 4.640625 -3.59375 Z M 3.15625 -3.515625 "/>
</g>
<g id="glyph-8-11">
<path d="M 4.640625 -2.40625 C 4.640625 -3.375 4.046875 -3.59375 3.328125 -3.59375 C 2.375 -3.59375 1.9375 -2.953125 1.84375 -2.78125 L 1.84375 -3.59375 L 0.453125 -3.515625 L 0.453125 -3.109375 C 0.921875 -3.109375 0.96875 -3.109375 0.96875 -2.796875 L 0.96875 -0.40625 L 0.453125 -0.40625 L 0.453125 0 C 0.875 -0.03125 1.15625 -0.03125 1.453125 -0.03125 C 1.765625 -0.03125 2.03125 -0.03125 2.46875 0 L 2.46875 -0.40625 L 1.9375 -0.40625 L 1.9375 -2.015625 C 1.9375 -2.890625 2.703125 -3.25 3.21875 -3.25 C 3.484375 -3.25 3.671875 -3.125 3.671875 -2.5 L 3.671875 -0.40625 L 3.15625 -0.40625 L 3.15625 0 C 3.578125 -0.03125 3.859375 -0.03125 4.15625 -0.03125 C 4.46875 -0.03125 4.734375 -0.03125 5.171875 0 L 5.171875 -0.40625 L 4.640625 -0.40625 Z M 4.640625 -2.40625 "/>
</g>
<g id="glyph-8-12">
<path d="M 3.0625 -5.453125 L 3.0625 -5.046875 C 3.546875 -5.046875 3.59375 -5.046875 3.59375 -4.734375 L 3.59375 -3.25 C 3.171875 -3.546875 2.75 -3.59375 2.453125 -3.59375 C 1.109375 -3.59375 0.328125 -2.796875 0.328125 -1.765625 C 0.328125 -0.71875 1.09375 0.0625 2.359375 0.0625 C 2.9375 0.0625 3.34375 -0.171875 3.546875 -0.328125 L 3.546875 0.0625 L 5.046875 0 L 5.046875 -0.40625 C 4.578125 -0.40625 4.515625 -0.40625 4.515625 -0.71875 L 4.515625 -5.515625 Z M 3.546875 -0.875 C 3.171875 -0.359375 2.703125 -0.28125 2.4375 -0.28125 C 1.40625 -0.28125 1.40625 -1.265625 1.40625 -1.734375 C 1.40625 -2.25 1.40625 -3.25 2.53125 -3.25 C 2.90625 -3.25 3.28125 -3.109375 3.546875 -2.765625 Z M 3.546875 -0.875 "/>
</g>
<g id="glyph-9-0">
<path d="M 3.546875 -3.390625 C 3.546875 -4.109375 3.28125 -4.890625 2.59375 -4.890625 C 1.546875 -4.890625 0.4375 -3.03125 0.4375 -1.4375 C 0.4375 -0.609375 0.765625 0.0625 1.390625 0.0625 C 2.453125 0.0625 3.546875 -1.828125 3.546875 -3.390625 Z M 1.21875 -2.53125 C 1.578125 -4.046875 2.171875 -4.703125 2.59375 -4.703125 C 3.03125 -4.703125 3.03125 -3.921875 3.03125 -3.796875 C 3.03125 -3.53125 2.96875 -3.125 2.828125 -2.53125 Z M 2.765625 -2.28125 C 2.578125 -1.53125 2.40625 -1.15625 2.203125 -0.8125 C 1.984375 -0.453125 1.703125 -0.125 1.40625 -0.125 C 1.015625 -0.125 0.953125 -0.65625 0.953125 -1.03125 C 0.953125 -1.484375 1.09375 -2.03125 1.15625 -2.28125 Z M 2.765625 -2.28125 "/>
</g>
<g id="glyph-9-1">
<path d="M 2.375 -2.234375 L 3.125 -2.234375 C 3.65625 -2.234375 3.734375 -2.15625 3.734375 -1.921875 C 3.734375 -1.828125 3.734375 -1.8125 3.6875 -1.609375 C 3.671875 -1.578125 3.671875 -1.546875 3.671875 -1.53125 C 3.671875 -1.453125 3.71875 -1.421875 3.796875 -1.421875 C 3.875 -1.421875 3.890625 -1.453125 3.921875 -1.578125 L 4.296875 -3.0625 C 4.296875 -3.078125 4.328125 -3.1875 4.328125 -3.203125 C 4.328125 -3.265625 4.28125 -3.296875 4.203125 -3.296875 C 4.109375 -3.296875 4.109375 -3.265625 4.0625 -3.140625 C 3.921875 -2.59375 3.734375 -2.484375 3.140625 -2.484375 L 2.4375 -2.484375 L 2.875 -4.234375 C 2.9375 -4.453125 2.9375 -4.46875 3.234375 -4.46875 L 4.296875 -4.46875 C 5.21875 -4.46875 5.390625 -4.25 5.390625 -3.671875 C 5.390625 -3.4375 5.375 -3.296875 5.375 -3.234375 C 5.375 -3.1875 5.390625 -3.125 5.484375 -3.125 C 5.59375 -3.125 5.59375 -3.1875 5.609375 -3.296875 L 5.734375 -4.515625 C 5.75 -4.71875 5.703125 -4.71875 5.53125 -4.71875 L 1.828125 -4.71875 C 1.6875 -4.71875 1.59375 -4.71875 1.59375 -4.5625 C 1.59375 -4.46875 1.6875 -4.46875 1.828125 -4.46875 C 1.828125 -4.46875 1.953125 -4.46875 2.09375 -4.453125 C 2.234375 -4.4375 2.25 -4.421875 2.25 -4.359375 C 2.25 -4.3125 2.21875 -4.234375 2.21875 -4.203125 L 1.3125 -0.5625 C 1.234375 -0.296875 1.234375 -0.25 0.6875 -0.25 C 0.5625 -0.25 0.484375 -0.25 0.484375 -0.109375 C 0.484375 -0.03125 0.53125 0 0.59375 0 C 0.796875 0 1.3125 -0.03125 1.515625 -0.03125 L 2.046875 -0.015625 C 2.21875 -0.015625 2.421875 0 2.59375 0 C 2.640625 0 2.75 0 2.75 -0.15625 C 2.75 -0.25 2.65625 -0.25 2.5 -0.25 C 2.484375 -0.25 2.3125 -0.25 2.140625 -0.265625 C 2 -0.28125 1.921875 -0.28125 1.921875 -0.375 C 1.921875 -0.40625 1.921875 -0.4375 1.953125 -0.5 Z M 2.375 -2.234375 "/>
</g>
<g id="glyph-10-0">
<path d="M 3.203125 -2.5 C 2.125 -2.28125 1.40625 -1.890625 1.015625 -1.25 C 0.8125 -0.90625 0.75 -0.5 0.75 -0.40625 C 0.75 -0.296875 0.84375 -0.234375 0.921875 -0.234375 C 1.0625 -0.234375 1.078125 -0.34375 1.09375 -0.46875 C 1.328125 -2 3.3125 -2.3125 5.25 -2.328125 C 5.359375 -2.328125 5.453125 -2.375 5.453125 -2.484375 C 5.453125 -2.65625 5.296875 -2.65625 5.1875 -2.65625 C 4.140625 -2.671875 3.34375 -2.765625 2.609375 -2.984375 C 1.265625 -3.421875 1.140625 -4.28125 1.09375 -4.59375 C 1.078125 -4.734375 0.96875 -4.765625 0.921875 -4.765625 C 0.84375 -4.765625 0.75 -4.703125 0.75 -4.59375 C 0.75 -4.546875 0.765625 -4.1875 1 -3.78125 C 1.453125 -2.9375 2.5625 -2.59375 3.203125 -2.5 Z M 1.03125 0.953125 C 0.921875 0.953125 0.75 0.953125 0.75 1.125 C 0.75 1.296875 0.90625 1.296875 1.03125 1.296875 L 5.171875 1.296875 C 5.28125 1.296875 5.453125 1.296875 5.453125 1.140625 C 5.453125 0.953125 5.296875 0.953125 5.171875 0.953125 Z M 1.03125 0.953125 "/>
</g>
<g id="glyph-11-0">
<path d="M 4.375 -1.109375 C 4.453125 -1.109375 4.59375 -1.109375 4.59375 -1.234375 C 4.59375 -1.375 4.453125 -1.375 4.375 -1.375 L 1.015625 -1.375 C 0.921875 -1.375 0.796875 -1.375 0.796875 -1.234375 C 0.796875 -1.109375 0.921875 -1.109375 1.015625 -1.109375 Z M 4.375 -1.109375 "/>
</g>
<g id="glyph-12-0">
<path d="M 1.984375 -3.15625 C 1.984375 -3.3125 1.96875 -3.3125 1.796875 -3.3125 C 1.453125 -2.984375 0.890625 -2.984375 0.796875 -2.984375 L 0.703125 -2.984375 L 0.703125 -2.765625 L 0.796875 -2.765625 C 0.90625 -2.765625 1.234375 -2.78125 1.515625 -2.90625 L 1.515625 -0.421875 C 1.515625 -0.265625 1.515625 -0.21875 1 -0.21875 L 0.75 -0.21875 L 0.75 0 C 1.015625 -0.015625 1.453125 -0.015625 1.75 -0.015625 C 2.03125 -0.015625 2.484375 -0.015625 2.75 0 L 2.75 -0.21875 L 2.5 -0.21875 C 1.984375 -0.21875 1.984375 -0.265625 1.984375 -0.421875 Z M 1.984375 -3.15625 "/>
</g>
</g>
<clipPath id="clip-0">
<path clip-rule="nonzero" d="M 0 0.0273438 L 286.324219 0.0273438 L 286.324219 167.109375 L 0 167.109375 Z M 0 0.0273438 "/>
</clipPath>
<clipPath id="clip-1">
<path clip-rule="nonzero" d="M 0 106 L 286.324219 106 L 286.324219 141 L 0 141 Z M 0 106 "/>
</clipPath>
<clipPath id="clip-2">
<path clip-rule="nonzero" d="M 0 68 L 286.324219 68 L 286.324219 103 L 0 103 Z M 0 68 "/>
</clipPath>
<clipPath id="clip-3">
<path clip-rule="nonzero" d="M 0 30 L 286.324219 30 L 286.324219 65 L 0 65 Z M 0 30 "/>
</clipPath>
<clipPath id="clip-4">
<path clip-rule="nonzero" d="M 36 0.0273438 L 73 0.0273438 L 73 167.109375 L 36 167.109375 Z M 36 0.0273438 "/>
</clipPath>
<clipPath id="clip-5">
<path clip-rule="nonzero" d="M 100 0.0273438 L 137 0.0273438 L 137 167.109375 L 100 167.109375 Z M 100 0.0273438 "/>
</clipPath>
<clipPath id="clip-6">
<path clip-rule="nonzero" d="M 166 0.0273438 L 203 0.0273438 L 203 167.109375 L 166 167.109375 Z M 166 0.0273438 "/>
</clipPath>
<clipPath id="clip-7">
<path clip-rule="nonzero" d="M 227 0.0273438 L 264 0.0273438 L 264 167.109375 L 227 167.109375 Z M 227 0.0273438 "/>
</clipPath>
<clipPath id="clip-8">
<path clip-rule="nonzero" d="M 0 107 L 115 107 L 115 167.109375 L 0 167.109375 Z M 0 107 "/>
</clipPath>
</defs>
<g clip-path="url(#clip-0)">
<path fill="none" stroke-width="0.79701" stroke-linecap="butt" stroke-linejoin="miter" stroke="rgb(90.609741%, 84.539795%, 85.739136%)" stroke-opacity="1" stroke-miterlimit="10" d="M -135.211872 -74.106937 L -135.211872 66.450973 C -135.211872 69.20509 -132.982722 71.434241 -130.232522 71.434241 L 130.233296 71.434241 C 132.983496 71.434241 135.212646 69.20509 135.212646 66.450973 L 135.212646 -74.106937 C 135.212646 -76.857136 132.983496 -79.086286 130.233296 -79.086286 L -130.232522 -79.086286 C -132.982722 -79.086286 -135.211872 -76.857136 -135.211872 -74.106937 Z M -135.211872 -74.106937 " transform="matrix(0.997087, 0, 0, -0.997087, 143.161724, 79.597233)"/>
</g>
<g clip-path="url(#clip-1)">
<path fill="none" stroke-width="0.79701" stroke-linecap="butt" stroke-linejoin="miter" stroke="rgb(93.740845%, 89.692688%, 90.493774%)" stroke-opacity="1" stroke-miterlimit="10" d="M -132.661473 -49.746909 C -45.920499 -33.676655 45.921273 -53.065169 132.662247 -38.268156 " transform="matrix(0.997087, 0, 0, -0.997087, 143.161724, 79.597233)"/>
</g>
<g clip-path="url(#clip-2)">
<path fill="none" stroke-width="0.79701" stroke-linecap="butt" stroke-linejoin="miter" stroke="rgb(93.740845%, 89.692688%, 90.493774%)" stroke-opacity="1" stroke-miterlimit="10" d="M -132.661473 -11.479177 C -45.920499 4.591076 45.921273 -14.797438 132.662247 -0.000424985 " transform="matrix(0.997087, 0, 0, -0.997087, 143.161724, 79.597233)"/>
</g>
<g clip-path="url(#clip-3)">
<path fill="none" stroke-width="0.79701" stroke-linecap="butt" stroke-linejoin="miter" stroke="rgb(93.740845%, 89.692688%, 90.493774%)" stroke-opacity="1" stroke-miterlimit="10" d="M -132.661473 26.788554 C -45.920499 42.858807 45.921273 23.470294 132.662247 38.267306 " transform="matrix(0.997087, 0, 0, -0.997087, 143.161724, 79.597233)"/>
</g>
<g clip-path="url(#clip-4)">
<path fill="none" stroke-width="0.79701" stroke-linecap="butt" stroke-linejoin="miter" stroke="rgb(93.740845%, 89.692688%, 90.493774%)" stroke-opacity="1" stroke-miterlimit="10" d="M -95.6709 -79.086286 C -79.596729 -25.512246 -93.884446 25.511396 -81.637832 71.434241 " transform="matrix(0.997087, 0, 0, -0.997087, 143.161724, 79.597233)"/>
</g>
<g clip-path="url(#clip-5)">
<path fill="none" stroke-width="0.79701" stroke-linecap="butt" stroke-linejoin="miter" stroke="rgb(93.740845%, 89.692688%, 90.493774%)" stroke-opacity="1" stroke-miterlimit="10" d="M -31.891348 -79.086286 C -15.817177 -25.512246 -30.104894 25.511396 -17.858279 71.434241 " transform="matrix(0.997087, 0, 0, -0.997087, 143.161724, 79.597233)"/>
</g>
<g clip-path="url(#clip-6)">
<path fill="none" stroke-width="0.79701" stroke-linecap="butt" stroke-linejoin="miter" stroke="rgb(93.740845%, 89.692688%, 90.493774%)" stroke-opacity="1" stroke-miterlimit="10" d="M 34.44252 -79.086286 C 50.512774 -25.512246 36.225057 25.511396 48.471671 71.434241 " transform="matrix(0.997087, 0, 0, -0.997087, 143.161724, 79.597233)"/>
</g>
<g clip-path="url(#clip-7)">
<path fill="none" stroke-width="0.79701" stroke-linecap="butt" stroke-linejoin="miter" stroke="rgb(93.740845%, 89.692688%, 90.493774%)" stroke-opacity="1" stroke-miterlimit="10" d="M 95.671674 -79.086286 C 111.741927 -25.512246 97.454211 25.511396 109.700825 71.434241 " transform="matrix(0.997087, 0, 0, -0.997087, 143.161724, 79.597233)"/>
</g>
<g fill="rgb(47.840881%, 14.118958%, 20.783997%)" fill-opacity="1">
<use xlink:href="#glyph-0-0" x="20.65565" y="21.602676"/>
</g>
<path fill-rule="nonzero" fill="rgb(47.840881%, 14.118958%, 20.783997%)" fill-opacity="1" stroke-width="0.3985" stroke-linecap="butt" stroke-linejoin="miter" stroke="rgb(47.840881%, 14.118958%, 20.783997%)" stroke-opacity="1" stroke-miterlimit="10" d="M -69.371629 17.856283 C -69.371629 18.996322 -70.296198 19.920891 -71.43232 19.920891 C -72.57236 19.920891 -73.496928 18.996322 -73.496928 17.856283 C -73.496928 16.72016 -72.57236 15.795592 -71.43232 15.795592 C -70.296198 15.795592 -69.371629 16.72016 -69.371629 17.856283 Z M -69.371629 17.856283 " transform="matrix(0.997087, 0, 0, -0.997087, 143.161724, 79.597233)"/>
<g fill="rgb(47.840881%, 14.118958%, 20.783997%)" fill-opacity="1">
<use xlink:href="#glyph-1-0" x="56.377282" y="54.839567"/>
</g>
<g fill="rgb(47.840881%, 14.118958%, 20.783997%)" fill-opacity="1">
<use xlink:href="#glyph-2-0" x="60.316772" y="56.174666"/>
</g>
<path fill-rule="nonzero" fill="rgb(47.840881%, 14.118958%, 20.783997%)" fill-opacity="0.08" stroke-width="0.79701" stroke-linecap="butt" stroke-linejoin="miter" stroke="rgb(47.840881%, 14.118958%, 20.783997%)" stroke-opacity="1" stroke-miterlimit="10" d="M -63.867313 20.915977 C -68.192413 31.626868 -75.091417 38.945062 -79.271563 37.252632 C -83.45171 35.564119 -83.33418 25.511396 -79.005162 14.800506 C -74.676145 4.085697 -67.781058 -3.228579 -63.600912 -1.540067 C -59.416848 0.148446 -59.538295 10.205087 -63.867313 20.915977 Z M -63.867313 20.915977 " transform="matrix(0.997087, 0, 0, -0.997087, 143.161724, 79.597233)"/>
<path fill="none" stroke-width="1.49442" stroke-linecap="butt" stroke-linejoin="miter" stroke="rgb(47.840881%, 14.118958%, 20.783997%)" stroke-opacity="1" stroke-miterlimit="10" d="M -71.436237 17.856283 L -77.810275 33.636629 " transform="matrix(0.997087, 0, 0, -0.997087, 143.161724, 79.597233)"/>
<path fill-rule="nonzero" fill="rgb(47.840881%, 14.118958%, 20.783997%)" fill-opacity="1" stroke-width="1.49442" stroke-linecap="butt" stroke-linejoin="miter" stroke="rgb(47.840881%, 14.118958%, 20.783997%)" stroke-opacity="1" stroke-miterlimit="10" d="M 7.586905 0.000544631 L 2.413825 1.963627 L 4.147274 -0.0000255158 L 2.411263 -1.964874 Z M 7.586905 0.000544631 " transform="matrix(-0.373479, -0.924489, -0.924489, 0.373479, 66.986395, 49.545056)"/>
<g fill="rgb(47.840881%, 14.118958%, 20.783997%)" fill-opacity="1">
<use xlink:href="#glyph-3-0" x="53.567492" y="34.163975"/>
</g>
<g fill="rgb(47.840881%, 14.118958%, 20.783997%)" fill-opacity="1">
<use xlink:href="#glyph-3-1" x="56.883608" y="34.163975"/>
<use xlink:href="#glyph-3-2" x="61.271256" y="34.163975"/>
<use xlink:href="#glyph-3-3" x="64.802931" y="34.163975"/>
<use xlink:href="#glyph-3-4" x="68.76294" y="34.163975"/>
</g>
<path fill="none" stroke-width="1.49442" stroke-linecap="butt" stroke-linejoin="miter" stroke="rgb(76.528931%, 61.352539%, 64.350891%)" stroke-opacity="1" stroke-miterlimit="10" d="M -71.436237 17.856283 L -62.280659 21.558474 " transform="matrix(0.997087, 0, 0, -0.997087, 143.161724, 79.597233)"/>
<path fill-rule="nonzero" fill="rgb(76.528931%, 61.352539%, 64.350891%)" fill-opacity="1" stroke-width="1.49442" stroke-linecap="butt" stroke-linejoin="miter" stroke="rgb(76.528931%, 61.352539%, 64.350891%)" stroke-opacity="1" stroke-miterlimit="10" d="M 7.585385 -0.00106149 L 2.413772 1.965654 L 4.145754 -0.00163163 L 2.414843 -1.964315 Z M 7.585385 -0.00106149 " transform="matrix(0.924489, -0.373479, -0.373479, -0.924489, 77.576843, 59.511687)"/>
<g fill="rgb(76.528931%, 61.352539%, 64.350891%)" fill-opacity="1">
<use xlink:href="#glyph-3-2" x="90.614252" y="57.546658"/>
<use xlink:href="#glyph-3-5" x="94.145926" y="57.546658"/>
<use xlink:href="#glyph-3-4" x="98.319407" y="57.546658"/>
</g>
<g fill="rgb(76.528931%, 61.352539%, 64.350891%)" fill-opacity="1">
<use xlink:href="#glyph-3-2" x="102.922614" y="57.546658"/>
<use xlink:href="#glyph-3-6" x="106.454288" y="57.546658"/>
<use xlink:href="#glyph-3-7" x="110.841937" y="57.546658"/>
<use xlink:href="#glyph-3-8" x="113.989083" y="57.546658"/>
<use xlink:href="#glyph-3-9" x="116.23784" y="57.546658"/>
</g>
<g fill="rgb(76.528931%, 61.352539%, 64.350891%)" fill-opacity="1">
<use xlink:href="#glyph-3-2" x="120.195763" y="57.546658"/>
</g>
<g fill="rgb(66.096497%, 44.17572%, 48.50769%)" fill-opacity="1">
<use xlink:href="#glyph-4-0" x="51.25425" y="92.466632"/>
<use xlink:href="#glyph-4-1" x="55.729652" y="92.466632"/>
<use xlink:href="#glyph-4-2" x="59.768861" y="92.466632"/>
<use xlink:href="#glyph-4-2" x="62.934977" y="92.466632"/>
<use xlink:href="#glyph-4-3" x="66.101093" y="92.466632"/>
</g>
<g fill="rgb(66.096497%, 44.17572%, 48.50769%)" fill-opacity="1">
<use xlink:href="#glyph-4-4" x="69.927525" y="92.466632"/>
</g>
<g fill="rgb(66.096497%, 44.17572%, 48.50769%)" fill-opacity="1">
<use xlink:href="#glyph-4-5" x="78.349933" y="92.466632"/>
<use xlink:href="#glyph-4-1" x="82.825334" y="92.466632"/>
<use xlink:href="#glyph-4-6" x="86.864543" y="92.466632"/>
<use xlink:href="#glyph-4-6" x="89.158275" y="92.466632"/>
<use xlink:href="#glyph-4-7" x="91.452007" y="92.466632"/>
</g>
<g fill="rgb(66.096497%, 44.17572%, 48.50769%)" fill-opacity="1">
<use xlink:href="#glyph-4-8" x="54.73508" y="100.413414"/>
<use xlink:href="#glyph-4-9" x="59.210482" y="100.413414"/>
<use xlink:href="#glyph-4-10" x="61.504213" y="100.413414"/>
<use xlink:href="#glyph-4-8" x="65.543423" y="100.413414"/>
</g>
<g fill="rgb(66.096497%, 44.17572%, 48.50769%)" fill-opacity="1">
<use xlink:href="#glyph-4-6" x="72.657254" y="100.413414"/>
<use xlink:href="#glyph-4-3" x="74.950986" y="100.413414"/>
</g>
<g fill="rgb(66.096497%, 44.17572%, 48.50769%)" fill-opacity="1">
<use xlink:href="#glyph-4-11" x="79.202972" y="100.413414"/>
<use xlink:href="#glyph-4-1" x="82.80528" y="100.413414"/>
<use xlink:href="#glyph-4-6" x="86.844489" y="100.413414"/>
</g>
<g fill="rgb(66.096497%, 44.17572%, 48.50769%)" fill-opacity="1">
<use xlink:href="#glyph-4-12" x="41.577523" y="108.360196"/>
<use xlink:href="#glyph-4-9" x="46.052924" y="108.360196"/>
<use xlink:href="#glyph-4-13" x="48.346656" y="108.360196"/>
<use xlink:href="#glyph-4-14" x="51.556746" y="108.360196"/>
<use xlink:href="#glyph-4-9" x="54.722862" y="108.360196"/>
<use xlink:href="#glyph-4-0" x="57.016593" y="108.360196"/>
<use xlink:href="#glyph-4-10" x="61.491995" y="108.360196"/>
<use xlink:href="#glyph-4-15" x="65.531204" y="108.360196"/>
<use xlink:href="#glyph-4-9" x="70.006605" y="108.360196"/>
<use xlink:href="#glyph-4-13" x="72.300337" y="108.360196"/>
<use xlink:href="#glyph-4-8" x="75.510427" y="108.360196"/>
<use xlink:href="#glyph-4-1" x="79.985828" y="108.360196"/>
<use xlink:href="#glyph-4-5" x="84.025038" y="108.360196"/>
<use xlink:href="#glyph-4-9" x="88.500439" y="108.360196"/>
<use xlink:href="#glyph-4-6" x="90.794171" y="108.360196"/>
<use xlink:href="#glyph-4-9" x="93.087903" y="108.360196"/>
<use xlink:href="#glyph-4-14" x="95.381635" y="108.360196"/>
</g>
<g fill="rgb(66.096497%, 44.17572%, 48.50769%)" fill-opacity="1">
<use xlink:href="#glyph-4-16" x="98.334974" y="108.360196"/>
</g>
<path fill-rule="nonzero" fill="rgb(47.840881%, 14.118958%, 20.783997%)" fill-opacity="1" stroke-width="0.3985" stroke-linecap="butt" stroke-linejoin="miter" stroke="rgb(47.840881%, 14.118958%, 20.783997%)" stroke-opacity="1" stroke-miterlimit="10" d="M 68.392987 -7.655538 C 68.392987 -6.515498 67.468419 -5.59093 66.332297 -5.59093 C 65.192257 -5.59093 64.267688 -6.515498 64.267688 -7.655538 C 64.267688 -8.791661 65.192257 -9.716229 66.332297 -9.716229 C 67.468419 -9.716229 68.392987 -8.791661 68.392987 -7.655538 Z M 68.392987 -7.655538 " transform="matrix(0.997087, 0, 0, -0.997087, 143.161724, 79.597233)"/>
<g fill="rgb(47.840881%, 14.118958%, 20.783997%)" fill-opacity="1">
<use xlink:href="#glyph-1-0" x="214.916078" y="80.276249"/>
</g>
<g fill="rgb(47.840881%, 14.118958%, 20.783997%)" fill-opacity="1">
<use xlink:href="#glyph-2-1" x="218.854571" y="81.611348"/>
</g>
<path fill-rule="nonzero" fill="rgb(47.840881%, 14.118958%, 20.783997%)" fill-opacity="0.08" stroke-width="0.79701" stroke-linecap="butt" stroke-linejoin="miter" stroke="rgb(47.840881%, 14.118958%, 20.783997%)" stroke-opacity="1" stroke-miterlimit="10" d="M 88.792258 -12.427252 C 90.139934 -6.088473 81.176321 1.186627 68.773001 3.823214 C 56.36968 6.459801 45.223929 3.458871 43.876253 -2.879907 C 42.528577 -9.222603 51.488272 -16.497704 63.89551 -19.134291 C 76.298831 -21.770878 87.444582 -18.769948 88.792258 -12.427252 Z M 88.792258 -12.427252 " transform="matrix(0.997087, 0, 0, -0.997087, 143.161724, 79.597233)"/>
<path fill="none" stroke-width="1.49442" stroke-linecap="butt" stroke-linejoin="miter" stroke="rgb(47.840881%, 14.118958%, 20.783997%)" stroke-opacity="1" stroke-miterlimit="10" d="M 66.332297 -7.655538 L 84.478911 -11.510519 " transform="matrix(0.997087, 0, 0, -0.997087, 143.161724, 79.597233)"/>
<path fill-rule="nonzero" fill="rgb(47.840881%, 14.118958%, 20.783997%)" fill-opacity="1" stroke-width="1.49442" stroke-linecap="butt" stroke-linejoin="miter" stroke="rgb(47.840881%, 14.118958%, 20.783997%)" stroke-opacity="1" stroke-miterlimit="10" d="M 7.586064 -0.00135096 L 2.414218 1.963403 L 4.145205 0.00026197 L 2.41234 -1.966154 Z M 7.586064 -0.00135096 " transform="matrix(0.975281, 0.207294, 0.207294, -0.975281, 223.71502, 90.293322)"/>
<g fill="rgb(47.840881%, 14.118958%, 20.783997%)" fill-opacity="1">
<use xlink:href="#glyph-3-0" x="237.243843" y="94.04502"/>
</g>
<g fill="rgb(47.840881%, 14.118958%, 20.783997%)" fill-opacity="1">
<use xlink:href="#glyph-3-1" x="240.55996" y="94.04502"/>
<use xlink:href="#glyph-3-2" x="244.947608" y="94.04502"/>
<use xlink:href="#glyph-3-3" x="248.479283" y="94.04502"/>
<use xlink:href="#glyph-3-4" x="252.439292" y="94.04502"/>
</g>
<path fill="none" stroke-width="1.49442" stroke-linecap="butt" stroke-linejoin="miter" stroke="rgb(76.528931%, 61.352539%, 64.350891%)" stroke-opacity="1" stroke-miterlimit="10" d="M 66.332297 -7.655538 L 67.962044 0.00741034 " transform="matrix(0.997087, 0, 0, -0.997087, 143.161724, 79.597233)"/>
<path fill-rule="nonzero" fill="rgb(76.528931%, 61.352539%, 64.350891%)" fill-opacity="1" stroke-width="1.49442" stroke-linecap="butt" stroke-linejoin="miter" stroke="rgb(76.528931%, 61.352539%, 64.350891%)" stroke-opacity="1" stroke-miterlimit="10" d="M 7.58342 0.00151388 L 2.412388 1.962436 L 4.147207 0.000109186 L 2.413528 -1.962474 Z M 7.58342 0.00151388 " transform="matrix(0.207294, -0.975281, -0.975281, -0.207294, 210.14432, 83.267369)"/>
<g fill="rgb(76.528931%, 61.352539%, 64.350891%)" fill-opacity="1">
<use xlink:href="#glyph-3-2" x="195.600513" y="67.39289"/>
<use xlink:href="#glyph-3-5" x="199.132187" y="67.39289"/>
<use xlink:href="#glyph-3-4" x="203.305668" y="67.39289"/>
</g>
<g fill="rgb(76.528931%, 61.352539%, 64.350891%)" fill-opacity="1">
<use xlink:href="#glyph-3-2" x="207.908875" y="67.39289"/>
<use xlink:href="#glyph-3-6" x="211.440549" y="67.39289"/>
<use xlink:href="#glyph-3-7" x="215.828198" y="67.39289"/>
<use xlink:href="#glyph-3-8" x="218.975345" y="67.39289"/>
<use xlink:href="#glyph-3-9" x="221.224101" y="67.39289"/>
</g>
<g fill="rgb(76.528931%, 61.352539%, 64.350891%)" fill-opacity="1">
<use xlink:href="#glyph-3-2" x="225.182024" y="67.39289"/>
</g>
<g fill="rgb(66.096497%, 44.17572%, 48.50769%)" fill-opacity="1">
<use xlink:href="#glyph-4-4" x="192.623212" y="116.03577"/>
<use xlink:href="#glyph-4-9" x="198.407189" y="116.03577"/>
<use xlink:href="#glyph-4-12" x="200.700921" y="116.03577"/>
<use xlink:href="#glyph-4-17" x="205.176322" y="116.03577"/>
</g>
<g fill="rgb(66.096497%, 44.17572%, 48.50769%)" fill-opacity="1">
<use xlink:href="#glyph-4-5" x="211.41706" y="116.03577"/>
<use xlink:href="#glyph-4-1" x="215.892462" y="116.03577"/>
<use xlink:href="#glyph-4-6" x="219.931671" y="116.03577"/>
<use xlink:href="#glyph-4-6" x="222.225403" y="116.03577"/>
<use xlink:href="#glyph-4-7" x="224.519135" y="116.03577"/>
</g>
<g fill="rgb(66.096497%, 44.17572%, 48.50769%)" fill-opacity="1">
<use xlink:href="#glyph-4-6" x="177.545265" y="123.983549"/>
<use xlink:href="#glyph-4-3" x="179.838997" y="123.983549"/>
</g>
<g fill="rgb(66.096497%, 44.17572%, 48.50769%)" fill-opacity="1">
<use xlink:href="#glyph-4-11" x="184.090983" y="123.983549"/>
<use xlink:href="#glyph-4-1" x="187.693291" y="123.983549"/>
<use xlink:href="#glyph-4-6" x="191.7325" y="123.983549"/>
<use xlink:href="#glyph-4-6" x="194.026232" y="123.983549"/>
<use xlink:href="#glyph-4-16" x="196.319964" y="123.983549"/>
</g>
<g fill="rgb(66.096497%, 44.17572%, 48.50769%)" fill-opacity="1">
<use xlink:href="#glyph-4-9" x="203.215344" y="123.983549"/>
<use xlink:href="#glyph-4-0" x="205.509076" y="123.983549"/>
<use xlink:href="#glyph-4-13" x="209.984478" y="123.983549"/>
<use xlink:href="#glyph-4-17" x="213.194567" y="123.983549"/>
<use xlink:href="#glyph-4-0" x="216.796875" y="123.983549"/>
<use xlink:href="#glyph-4-13" x="221.272277" y="123.983549"/>
<use xlink:href="#glyph-4-9" x="224.482366" y="123.983549"/>
<use xlink:href="#glyph-4-14" x="226.776098" y="123.983549"/>
<use xlink:href="#glyph-4-9" x="229.942214" y="123.983549"/>
<use xlink:href="#glyph-4-18" x="232.235946" y="123.983549"/>
</g>
<g fill="rgb(66.096497%, 44.17572%, 48.50769%)" fill-opacity="1">
<use xlink:href="#glyph-4-17" x="236.28012" y="123.983549"/>
<use xlink:href="#glyph-4-19" x="239.882428" y="123.983549"/>
</g>
<g fill="rgb(66.096497%, 44.17572%, 48.50769%)" fill-opacity="1">
<use xlink:href="#glyph-4-17" x="178.125569" y="131.930331"/>
<use xlink:href="#glyph-4-13" x="181.727877" y="131.930331"/>
<use xlink:href="#glyph-4-14" x="184.937967" y="131.930331"/>
<use xlink:href="#glyph-4-9" x="188.104083" y="131.930331"/>
<use xlink:href="#glyph-4-20" x="190.397815" y="131.930331"/>
<use xlink:href="#glyph-4-1" x="197.054177" y="131.930331"/>
<use xlink:href="#glyph-4-14" x="201.093386" y="131.930331"/>
<use xlink:href="#glyph-4-9" x="204.259502" y="131.930331"/>
<use xlink:href="#glyph-4-3" x="206.553234" y="131.930331"/>
<use xlink:href="#glyph-4-0" x="210.592443" y="131.930331"/>
</g>
<g fill="rgb(66.096497%, 44.17572%, 48.50769%)" fill-opacity="1">
<use xlink:href="#glyph-4-8" x="217.706274" y="131.930331"/>
<use xlink:href="#glyph-4-1" x="222.181676" y="131.930331"/>
<use xlink:href="#glyph-4-2" x="226.220885" y="131.930331"/>
<use xlink:href="#glyph-4-12" x="229.387001" y="131.930331"/>
<use xlink:href="#glyph-4-17" x="233.862402" y="131.930331"/>
<use xlink:href="#glyph-4-2" x="237.46471" y="131.930331"/>
</g>
<g fill="rgb(60.879517%, 35.5896%, 40.586853%)" fill-opacity="1">
<use xlink:href="#glyph-5-0" x="103.088805" y="20.517845"/>
</g>
<g fill="rgb(60.879517%, 35.5896%, 40.586853%)" fill-opacity="1">
<use xlink:href="#glyph-1-1" x="107.310983" y="20.517845"/>
<use xlink:href="#glyph-1-0" x="111.655543" y="20.517845"/>
</g>
<g fill="rgb(60.879517%, 35.5896%, 40.586853%)" fill-opacity="1">
<use xlink:href="#glyph-6-0" x="118.177549" y="20.517845"/>
</g>
<g fill="rgb(60.879517%, 35.5896%, 40.586853%)" fill-opacity="1">
<use xlink:href="#glyph-1-1" x="122.867004" y="20.517845"/>
<use xlink:href="#glyph-1-0" x="127.211564" y="20.517845"/>
</g>
<g fill="rgb(60.879517%, 35.5896%, 40.586853%)" fill-opacity="1">
<use xlink:href="#glyph-7-0" x="130.114843" y="17.71304"/>
</g>
<g fill="rgb(60.879517%, 35.5896%, 40.586853%)" fill-opacity="1">
<use xlink:href="#glyph-1-2" x="136.350624" y="20.517845"/>
</g>
<g fill="rgb(60.879517%, 35.5896%, 40.586853%)" fill-opacity="1">
<use xlink:href="#glyph-6-1" x="142.870245" y="20.517845"/>
</g>
<g fill="rgb(60.879517%, 35.5896%, 40.586853%)" fill-opacity="1">
<use xlink:href="#glyph-1-0" x="146.153897" y="20.517845"/>
</g>
<g fill="rgb(60.879517%, 35.5896%, 40.586853%)" fill-opacity="1">
<use xlink:href="#glyph-6-2" x="150.323625" y="20.517845"/>
</g>
<g fill="rgb(60.879517%, 35.5896%, 40.586853%)" fill-opacity="1">
<use xlink:href="#glyph-1-1" x="155.013875" y="20.517845"/>
<use xlink:href="#glyph-1-0" x="159.358435" y="20.517845"/>
</g>
<g fill="rgb(60.879517%, 35.5896%, 40.586853%)" fill-opacity="1">
<use xlink:href="#glyph-6-3" x="165.880441" y="20.517845"/>
</g>
<g fill="rgb(60.879517%, 35.5896%, 40.586853%)" fill-opacity="1">
<use xlink:href="#glyph-6-4" x="174.792074" y="20.517845"/>
</g>
<g fill="rgb(60.879517%, 35.5896%, 40.586853%)" fill-opacity="1">
<use xlink:href="#glyph-5-1" x="179.014252" y="20.517845"/>
</g>
<path fill-rule="nonzero" fill="rgb(60.392761%, 41.569519%, 12.156677%)" fill-opacity="0.06" d="M 9.613281 154.964844 L 9.613281 122.003906 C 9.613281 120.359375 10.949219 119.027344 12.59375 119.027344 L 100.753906 119.027344 C 102.398438 119.027344 103.734375 120.359375 103.734375 122.003906 L 103.734375 154.964844 C 103.734375 156.609375 102.398438 157.945312 100.753906 157.945312 L 12.59375 157.945312 C 10.949219 157.945312 9.613281 156.609375 9.613281 154.964844 Z M 9.613281 154.964844 "/>
<g clip-path="url(#clip-8)">
<path fill="none" stroke-width="0.79701" stroke-linecap="butt" stroke-linejoin="miter" stroke="rgb(54.351807%, 37.411499%, 10.940552%)" stroke-opacity="1" stroke-miterlimit="10" d="M -133.938632 -75.587813 L -133.938632 -42.530574 C -133.938632 -40.881237 -132.598791 -39.545314 -130.949455 -39.545314 L -42.53172 -39.545314 C -40.882384 -39.545314 -39.542544 -40.881237 -39.542544 -42.530574 L -39.542544 -75.587813 C -39.542544 -77.237149 -40.882384 -78.57699 -42.53172 -78.57699 L -130.949455 -78.57699 C -132.598791 -78.57699 -133.938632 -77.237149 -133.938632 -75.587813 Z M -133.938632 -75.587813 " transform="matrix(0.997087, 0, 0, -0.997087, 143.161724, 79.597233)"/>
</g>
<g fill="rgb(48.313904%, 33.253479%, 9.725952%)" fill-opacity="1">
<use xlink:href="#glyph-8-0" x="14.606325" y="127.634881"/>
<use xlink:href="#glyph-8-1" x="21.636931" y="127.634881"/>
<use xlink:href="#glyph-8-2" x="25.660437" y="127.634881"/>
<use xlink:href="#glyph-8-3" x="30.392805" y="127.634881"/>
</g>
<g fill="rgb(48.313904%, 33.253479%, 9.725952%)" fill-opacity="1">
<use xlink:href="#glyph-8-4" x="38.298363" y="127.634881"/>
</g>
<g fill="rgb(48.313904%, 33.253479%, 9.725952%)" fill-opacity="1">
<use xlink:href="#glyph-8-5" x="38.501008" y="127.634881"/>
</g>
<g fill="rgb(48.313904%, 33.253479%, 9.725952%)" fill-opacity="1">
<use xlink:href="#glyph-8-1" x="42.96795" y="127.634881"/>
</g>
<g fill="rgb(48.313904%, 33.253479%, 9.725952%)" fill-opacity="1">
<use xlink:href="#glyph-8-6" x="46.983509" y="127.634881"/>
<use xlink:href="#glyph-8-7" x="51.850974" y="127.634881"/>
<use xlink:href="#glyph-8-2" x="59.124755" y="127.634881"/>
<use xlink:href="#glyph-8-8" x="63.857123" y="127.634881"/>
</g>
<g fill="rgb(48.313904%, 33.253479%, 9.725952%)" fill-opacity="1">
<use xlink:href="#glyph-8-9" x="71.974863" y="127.634881"/>
</g>
<g fill="rgb(48.313904%, 33.253479%, 9.725952%)" fill-opacity="1">
<use xlink:href="#glyph-8-8" x="77.653704" y="127.634881"/>
<use xlink:href="#glyph-8-10" x="82.521169" y="127.634881"/>
<use xlink:href="#glyph-8-11" x="87.929817" y="127.634881"/>
<use xlink:href="#glyph-8-12" x="93.338464" y="127.634881"/>
</g>
<g fill="rgb(58.27179%, 31.295776%, 36.625671%)" fill-opacity="1">
<use xlink:href="#glyph-3-10" x="25.224302" y="140.056588"/>
<use xlink:href="#glyph-3-11" x="30.894868" y="140.056588"/>
</g>
<g fill="rgb(58.27179%, 31.295776%, 36.625671%)" fill-opacity="1">
<use xlink:href="#glyph-3-9" x="34.639319" y="140.056588"/>
</g>
<g fill="rgb(58.27179%, 31.295776%, 36.625671%)" fill-opacity="1">
<use xlink:href="#glyph-4-21" x="38.921283" y="140.056588"/>
</g>
<g fill="rgb(58.27179%, 31.295776%, 36.625671%)" fill-opacity="1">
<use xlink:href="#glyph-3-12" x="42.748103" y="138.221948"/>
</g>
<g fill="rgb(58.27179%, 31.295776%, 36.625671%)" fill-opacity="1">
<use xlink:href="#glyph-9-0" x="42.087034" y="140.056588"/>
</g>
<g fill="rgb(58.27179%, 31.295776%, 36.625671%)" fill-opacity="1">
<use xlink:href="#glyph-4-22" x="46.085352" y="140.056588"/>
</g>
<g fill="rgb(58.27179%, 31.295776%, 36.625671%)" fill-opacity="1">
<use xlink:href="#glyph-10-0" x="53.074931" y="140.056588"/>
</g>
<g fill="rgb(58.27179%, 31.295776%, 36.625671%)" fill-opacity="1">
<use xlink:href="#glyph-9-1" x="63.108113" y="140.056588"/>
</g>
<g fill="rgb(58.27179%, 31.295776%, 36.625671%)" fill-opacity="1">
<use xlink:href="#glyph-4-21" x="69.214775" y="140.056588"/>
</g>
<g fill="rgb(58.27179%, 31.295776%, 36.625671%)" fill-opacity="1">
<use xlink:href="#glyph-9-0" x="72.380525" y="140.056588"/>
</g>
<g fill="rgb(58.27179%, 31.295776%, 36.625671%)" fill-opacity="1">
<use xlink:href="#glyph-4-22" x="76.377846" y="140.056588"/>
</g>
<g fill="rgb(58.27179%, 31.295776%, 36.625671%)" fill-opacity="1">
<use xlink:href="#glyph-11-0" x="79.544594" y="137.059345"/>
</g>
<g fill="rgb(58.27179%, 31.295776%, 36.625671%)" fill-opacity="1">
<use xlink:href="#glyph-12-0" x="84.925116" y="137.059345"/>
</g>
<g fill="rgb(70.999146%, 70.999146%, 70.999146%)" fill-opacity="1">
<use xlink:href="#glyph-4-23" x="17.703276" y="146.551611"/>
<use xlink:href="#glyph-4-0" x="20.630373" y="146.551611"/>
</g>
<g fill="rgb(70.999146%, 70.999146%, 70.999146%)" fill-opacity="1">
<use xlink:href="#glyph-4-18" x="24.892998" y="146.551611"/>
</g>
<g fill="rgb(70.999146%, 70.999146%, 70.999146%)" fill-opacity="1">
<use xlink:href="#glyph-4-17" x="28.937172" y="146.551611"/>
<use xlink:href="#glyph-4-2" x="32.53948" y="146.551611"/>
<use xlink:href="#glyph-4-13" x="35.705596" y="146.551611"/>
<use xlink:href="#glyph-4-17" x="38.915686" y="146.551611"/>
</g>
<g fill="rgb(70.999146%, 70.999146%, 70.999146%)" fill-opacity="1">
<use xlink:href="#glyph-4-20" x="45.156424" y="146.551611"/>
<use xlink:href="#glyph-4-17" x="51.812785" y="146.551611"/>
<use xlink:href="#glyph-4-14" x="55.415093" y="146.551611"/>
<use xlink:href="#glyph-4-2" x="58.581209" y="146.551611"/>
<use xlink:href="#glyph-4-9" x="61.747325" y="146.551611"/>
<use xlink:href="#glyph-4-11" x="64.041057" y="146.551611"/>
</g>
<g fill="rgb(70.999146%, 70.999146%, 70.999146%)" fill-opacity="1">
<use xlink:href="#glyph-4-5" x="70.281795" y="146.551611"/>
</g>
<g fill="rgb(70.999146%, 70.999146%, 70.999146%)" fill-opacity="1">
<use xlink:href="#glyph-4-3" x="74.969973" y="146.551611"/>
<use xlink:href="#glyph-4-15" x="79.009182" y="146.551611"/>
<use xlink:href="#glyph-4-0" x="83.484584" y="146.551611"/>
<use xlink:href="#glyph-4-12" x="87.959985" y="146.551611"/>
<use xlink:href="#glyph-4-13" x="92.435386" y="146.551611"/>
</g>
<g fill="rgb(70.999146%, 70.999146%, 70.999146%)" fill-opacity="1">
<use xlink:href="#glyph-4-17" x="16.700207" y="154.498393"/>
<use xlink:href="#glyph-4-13" x="20.302515" y="154.498393"/>
<use xlink:href="#glyph-4-14" x="23.512605" y="154.498393"/>
<use xlink:href="#glyph-4-9" x="26.678721" y="154.498393"/>
<use xlink:href="#glyph-4-20" x="28.972452" y="154.498393"/>
<use xlink:href="#glyph-4-1" x="35.628814" y="154.498393"/>
<use xlink:href="#glyph-4-14" x="39.668023" y="154.498393"/>
<use xlink:href="#glyph-4-9" x="42.834139" y="154.498393"/>
<use xlink:href="#glyph-4-3" x="45.127871" y="154.498393"/>
<use xlink:href="#glyph-4-0" x="49.16708" y="154.498393"/>
</g>
<g fill="rgb(70.999146%, 70.999146%, 70.999146%)" fill-opacity="1">
<use xlink:href="#glyph-4-15" x="56.280912" y="154.498393"/>
<use xlink:href="#glyph-4-0" x="60.756313" y="154.498393"/>
<use xlink:href="#glyph-4-11" x="65.231714" y="154.498393"/>
<use xlink:href="#glyph-4-17" x="68.834022" y="154.498393"/>
<use xlink:href="#glyph-4-2" x="72.43633" y="154.498393"/>
<use xlink:href="#glyph-4-14" x="75.602446" y="154.498393"/>
<use xlink:href="#glyph-4-1" x="78.768562" y="154.498393"/>
<use xlink:href="#glyph-4-9" x="82.807772" y="154.498393"/>
<use xlink:href="#glyph-4-0" x="85.101504" y="154.498393"/>
</g>
<g fill="rgb(70.999146%, 70.999146%, 70.999146%)" fill-opacity="1">
<use xlink:href="#glyph-4-14" x="89.364128" y="154.498393"/>
</g>
<g fill="rgb(70.999146%, 70.999146%, 70.999146%)" fill-opacity="1">
<use xlink:href="#glyph-4-16" x="92.317468" y="154.498393"/>
</g>
<g fill="rgb(70.999146%, 70.999146%, 70.999146%)" fill-opacity="1">
<use xlink:href="#glyph-4-24" x="95.928996" y="154.498393"/>
</g>
</svg>
